/* XPM */
static char *cd27280cf04b41638fbe36e4ac536fc4oqCxhoDM60eHr1Rs[] = {
/* columns rows colors chars-per-pixel */
"64 64 109 2 ",
"   c #020616",
".  c #02071A",
"X  c #03091E",
"o  c #0C0E1D",
"O  c #060A20",
"+  c #080D25",
"@  c #070D28",
"#  c #0A0F29",
"$  c #0D1124",
"%  c #0D122A",
"&  c #11142A",
"*  c #0D1534",
"=  c #0E1539",
"-  c #121732",
";  c #151A34",
":  c #181D36",
">  c #10173A",
",  c #141C3B",
"<  c #1A1F39",
"1  c #1B2037",
"2  c #1D223C",
"3  c #23273D",
"4  c #24293D",
"5  c #141E41",
"6  c #181F44",
"7  c #1B2344",
"8  c #1C254B",
"9  c #1F294E",
"0  c #222742",
"q  c #262C43",
"w  c #2B2F43",
"e  c #222A4D",
"r  c #292E49",
"t  c #2C3046",
"y  c #2D324B",
"u  c #31354D",
"i  c #34384D",
"p  c #272F52",
"a  c #2D3553",
"s  c #313752",
"d  c #343A53",
"f  c #393D53",
"g  c #343D5C",
"h  c #363F61",
"j  c #3C4156",
"k  c #3C425A",
"l  c #3D4563",
"z  c #3E476A",
"x  c #3F486E",
"c  c #41424D",
"v  c #424655",
"b  c #494A56",
"n  c #424559",
"m  c #45495F",
"M  c #4A4D5B",
"N  c #454B61",
"B  c #4A4E62",
"V  c #424A6D",
"C  c #4D5165",
"Z  c #4D5369",
"A  c #505469",
"S  c #565A6F",
"D  c #5A5D6E",
"F  c #4E5672",
"G  c #535A73",
"H  c #565B72",
"J  c #585B71",
"K  c #595D72",
"L  c #5A5F73",
"P  c #535B7C",
"I  c #575E7D",
"U  c #5E6171",
"Y  c #5C6175",
"T  c #5B6178",
"R  c #5F6378",
"E  c #5F6478",
"W  c #606473",
"Q  c #606374",
"!  c #606378",
"~  c #606478",
"^  c #676B7A",
"/  c #63687F",
"(  c #6B6E7D",
")  c #5E6483",
"_  c #636880",
"`  c #646B8A",
"'  c #6E7487",
"]  c #717483",
"[  c #737686",
"{  c #787C8C",
"}  c #697291",
"|  c #6E7492",
" . c #6E7695",
".. c #727A99",
"X. c #808393",
"o. c #808493",
"O. c #808394",
"+. c #8F95AD",
"@. c #8D95B0",
"#. c #9198B3",
"$. c #999FBA",
"%. c #9FA4B6",
"&. c #A1A6B7",
"*. c #A4A9BB",
"=. c #ABB0C1",
"-. c #B3B9CC",
";. c #BFC2CF",
":. c #C0C5D7",
">. c #FDFDFE",
/* pixels */
"q ` ..q w q q w w q w q w w r y u r u r u r u s s s s s s s s s s -.s s s s f k n k k n n n B T T T T J ~ _ _ _ _ / / / / / _ _ ",
"q n +.b n n n n n n n n n n m M B B M B B B B C C C C C C C C C C #.A C C A D D U J J Q U U ^ { { [ ;.{ X.o.o.O.X.X.X.X.X.X.O._ ",
"q n O O X o O O O o O O O + # # # % & # & # - - - - ; - - ; - - - ) - - - ; 3 3 3 3 t w t u i i B J J J H S $.H H S S H =.S X._ ",
"q n O O X ; O O O O O O O O # # & % # & # & - - > - : - ; - ; - - - - - 2 3 3 w t t r r t u w f J A J J ~ Y S H S S S S S S X./ ",
"q n O O O O O X ; O O O O O $ # & # & # % % & - - ; - - > ; - ; - - - 2 3 t t t r w w w t w n j J J J ! ! ! ! J J S S S S S X./ ",
"q b O O O & O O o O O o O O O # # # # & % % % % - - - - ; - - - - ; 0 w w t m m m m w w u u n n n J L ! ! ! ! ! S S H H H S X.Z ",
"q n O o O O O O X O O O O O O # # & # # % * % - - - - - - - ; ; - < 0 w w m m m m m n u i n n n n N ! ! ! ! ! ! J S S Q S S X.S ",
"r n O O O O O O O O O O O O O # & # & * & # & # & - u u ; - - 2 2 < w w N m m m k f n C u n n n n N B ! ! ! ! ! Q J H S S n ] Z ",
"0 b O O O X X O X O O O | +.:.& I % % % % % ) # ) @.:.#.| ) 2 2 2 2 0 N m m N j j | N B i n n n m B C B E ! R ! ! H H S n k ( Z ",
"w b O O I O O O O O O O X O # & & # # & & % # & # # - 2 2 2 2 2 2 2 0 m N n j N m m B B i n n n n B C C C C C ! H n n n n n ( Z ",
"0 b O O O O O X O O O O O # & # # * # & % % % # - : < 2 2 2 2 2 2 2 3 B N B N N N N B C i i n n n B B C C B B C n n n n n f ( Z ",
"w n O O O O O X X X O O + + # & & # & # % % , : : : < 2 2 2 2 2 2 < 0 n N B A A m N B C i u n n n n m N C C B n n n f j f f ( C ",
"q b O O O O O o X O O O O + & & & # & & ; : : - : < 2 2 2 2 2 2 2 0 0 u A A A C m m B B i i i n n n j n C M n f f u j i i w W m ",
"q n O O O O O O O O O O + + # # & & ; ; : : : : - < 2 2 2 2 2 : : 0 0 y f A A A m N C i i i i i i n n n j j j f i f i t w w U N ",
"0 n O O O O O O O O O O O + # & : ; ; : ; : : : : 2 2 2 2 2 > ; - ; y s d f c f w u u i i i i i i i s i i i i w i i q t w w U N ",
"3 n O O O O O O O O X O O O - ; ; ; : : ; : : : : < 2 2 2 - - ; - 2 2 u f f f w t w u i i i i i B C i i i i i i i t t w t t Y N ",
"4 c X O O O O O O O X O & & & ; ; ; & : : : : : : < < ; - ; ; 2 2 2 2 0 t t t t t t w +.i i u i C i i i f i i i w w w w w w Q N ",
"` +.  X X O X O O O & & & & & ; ; : : : : : ; : : # - ; ; - 2 2 2 2 2 3 w t t t t t t i i i i i i i i i i i i 4 w w w w t w Y n ",
"` c       X X & & & $ & & & & & & : ; ; ; : : : & - - - - 2 2 2 2 2 2 2 3 t w t t t t t w i i i i i i i i t w w w w q w 4 w U k ",
"4 b       & & & & & & & & & & & ; ; : : : : $ $ # & : < 2 2 2 2 2 2 2 2 2 w w y t t t t w w i u i u u 3 t 3 4 w w w 4 3 4 3 L k ",
"0 c   o $ $ $ & & & & & & & & 3 - - ; : ; & & # # # : 1 1 3 2 2 2 2 2 2 2 0 w w t t t w t y t u j f 3 t 3 3 3 3 3 4 3 3 3 3 D n ",
"4 b $ $ $ $ $ & & & & & & & & & & ; ; ; # +.@.& & ; : : < 2 2 2 3 2 2 2 2 w w t t t w y t t t t t 3 w t 3 3 3 3 3 3 3 3 3 3 D k ",
"t M o $ o $ o & & & & & & & & & & & + # r +.@.; : : ; : : < 2 2 2 2 2 2 2 2 3 t t t t w t t t t 3 t t 3 0 4 3 3 4 3 3 3 3 3 L j ",
"t M $ $ $ $ $ $ $ & $ & & & & & & X + q r r : ; ; : : : : : 1 2 3 2 2 2 2 2 3 q t t t t t t t t t w t 3 3 3 3 i 3 4 3 3 3 3 S n ",
"t M $ $ $ o $ $ $ & & & & & & O X O 0 4 w u u : : ; ; : : ; : 1 2 2 2 f g 2 2 0 q w w r t t t r t 3 3 3 3 3 3 4 3 0 3 4 3 4 D f ",
"t b $ $ $ $ $ $ $ o $ & & & X O o X t w t i i : ; : ; : : ; : 1 2 2 2 2 f 2 2 2 3 w ..w w t t w 3 3 &.4 3 3 3 3 3 4 3 < 1 : S s ",
"i b $ o $ o $ $ $ o & & O O o O O & & t u u ; : : ; : : : : : : 2 2 2 2 2 2 2 2 2 0 w ) t 3 t 3 3 3 3 4 4 3 3 3 3 3 1 ; - - C i ",
"4 b $ $ $ $ o $ $ $ & o O O O O O & & & & & ; ; ; : ; ; : : | : >.< ..2 2 2 2 2 2 < 3 w t t t N j j 3 4 4 1 2 3 3 - - - - ; C s ",
"i b o $ $ $ $ o $ . O O O O X O & & & & & & 3 ; : : & 1 : : ; : #.< 2 2 2 2 2 2 2 2 7 < 3 q j f j j j j 2 3 : - - - ; - ; ; C s ",
"t b $ o $ o $ o . o O O X & & & & & & & & & & ; : ; : : : : : : : : < 2 2 0 2 2 < 0 - 3 0 d f d f d f f - ; - } ; ; - - - - C s ",
"t M $ $ $ o     X X O o O & & & & & & & & & & - : : : ; : : ; ; : : 1 < 2 2 2 2 1 - 1 3 - s u a s d s s - - +.- - > - ; ; - C s ",
"4 M $ $ o o   +.X O O O & & & & & & & & & & ; ; & : : : ; : : : : : 1 2 2 2 2 2 - 3 7 - - u s *.u u u a ; - ; ; - ; ; - - ; C s ",
"4 M $         o o $ $ & & % & & & & & & & & $ ; 1 & 1 ; ; : : ; : - : < < 2 2 2 2 2 * * ; * u s y s s y - ; - ; ; - ; - ; ; Z a ",
"j M           o o $ & & & & & & & & & & & & & & ; 1 ; ; : ; : : : : < < 2 2 2 2 2 1 1 ; ; ; ; u s y a ; - ; ; - ; 0 - ; - - Z s ",
"4 j o           $ $ $ & & & & & & & & & & & ; ; ; 1 ; : : ; ; : : : ; < 2 2 2 2 1 ; ; - * ; - - - ; ; - 0 - ; - ; ; - - ; - C s ",
"4 b . o o o o $ $ $ & & & & & & & & & & $ & $ ; ; & ; ; : : : : : ; : : 2 2 2 2 ; ; u - ; - ; - ; - - ; ; - - - - - ; - - , Z g ",
"4 j $ o % $ $ $ $ $ $ % & & & & & & & & & & & & ; ; 1 & ; : ; ; ; : : : & < < - ; u u * ; ; * ; - ; ; - ; ; * - - ; , , , , Z d ",
"t j X $ % & $ % % $ $ $ $ ; & & & & & & & & & & $ 1 ; 1 : : : : : : : # : : - - * ; ; ; - - ; ; - ; - , , , , , , , , , , , Z a ",
"4 k X $ % % & % & $ % & % $ % % & & & & & & & & & & & : 1 ; : : : ; # : : & & - - - - ; ; - * ; , , ; ; , , , , , , , * > ; Z g ",
"j j & & % & $ $ & & % % $ $ % ; j 4 i & & & & & & & & ; * ; ; : ; & %.: : # & # % , ; , , * , , , , = > > , , , ; > * * * = B a ",
"4 M $ & & $ % & & $ % % & % $ i t u u a * - $ & $ & & - ; ; ; 1 , 6 < < * 2 * * * ; * , , ; , ; - - * * , * * , * * * * * * C a ",
"j M % & & $ % % % $ & % & % t t y y a y ; - ; ; - ; ; * ; 1 , 1 < < 2 = * * * * * * * * * , * * % - * * * , * * * * ; * * * B a ",
"r M % % ; $ & % & & % % $ % i t y y t y j - * ; - - * ; * ; : , 1 < * * * * * * * * * ; * * * * * * * * * * * * * * - * * 5 F k ",
"y l & % % $ & % % % % % $ ; t t t t y y % - - - ; * ; ; - - % , , 9 9 9 8 * * * * * * * * * * * * * * ; * * * * * * 9 9 5 , Z g ",
"k L , 7 q 7 q 7 4 7 % % % % % t t t y j 2 * e e e 9 e e 9 7 9 5 7 8 p 8 8 9 8 5 9 9 9 5 * * * * * * * 4 7 * * 9 9 8 5 5 9 , F k ",
"a Z ; 4 q 7 q , , 7 q 7 q 7 7 4 k k k 9 7 e 9 2 e 9 e e * 9 9 5 * 8 = 5 8 5 5 5 9 2 5 9 , 5 9 9 9 9 9 9 9 8 5 5 9 5 5 5 5 5 F a ",
"d Z ; ; ; , , 4 , ; 4 , , ; 7 , 7 7 ; ; 7 , , 2 5 7 5 * 2 9 5 * * 6 = = 5 5 = 5 , 5 , 5 5 5 5 , 5 5 , 9 5 5 5 9 5 5 5 5 , 5 F z ",
"i C ; ; ; ; ; , ; * , 4 , 7 ; ; , , 7 , ; , , 9 , 2 * 5 , 2 * = * * * * = z ) F x x P P P P 5 5 5 , 5 5 5 5 5 5 , 5 5 , 5 x  .l ",
"k ' 7 v l l , , , ; , , ; , ; ; , 1 ; ; , ; , , , * , P P F F F F x l z l 8 l x x z 9 x P G x x x I x x x x x F x x x x x 9 P l ",
"k G l 7 l 2 v F l v l N ; ; l N l l F F G l l F N l V V x l l l x l l l 5 5 8 l l 8 z 8 x x x 9 9 9 p x x 9 x x 9 x x 8 7 9 F l ",
"i S 7 4 4 2 2 4 7 4 l 7 4 l 7 N l l l l l l l l Z V V z l l l 5 8 7 5 8 6 5 7 7 5 7 8 8 9 9 8 x 8 9 9 9 9 8 9 5 7 8 7 z l 5 G l ",
"j S ; $ ; * , 4 7 N 7 7 7 7 N 7 4 4 9 7 4 l G j l 7 q , 5 5 5 h l 7 5 l x 5 5 l 5 7 5 7 7 5 z z z 8 8 7 z 8 5 x l 7 5 7 5 5 F k ",
"a Z ; % ; ; % ; $ , ; 4 1 , 4 7 4 q l l 7 q k l 4 7 j , , , l l l l 5 x p 5 5 8 8 5 z 5 8 7 5 l 5 l 7 5 5 8 5 5 7 7 7 7 5 * x j ",
"i C ; ; & ; ; 1 ; % ; ; 7 1 4 7 l l 9 4 q , 7 7 7 , , 9 , , l l l l 6 p p 7 p p 5 7 5 8 5 8 5 8 5 7 8 5 * 7 7 7 5 * * * = = Z p ",
"y C ; $ $ $ $ $ $ $ ; $ $ 4 7 7 l 7 7 q % , q 7 k , , , , , l l l l 6 6 5 8 l 8 7 7 7 5 6 5 6 6 * 5 5 5 * 5 8 * * @ * * * * x j ",
"a C $ $ $ $ $ $ $ $ $ ; , 7 7 4 7 q 7 , 7 7 7 7 , , % % , , , , 5 5 8 5 6 6 * 5 5 5 7 = * 8 5 * @ * 8 7 7 5 = * = = * * * * x p ",
"j M $ $ $ $ $ $ $ $ % $ 1 ; ; $ & : , ; 4 7 7 , , , , , , , , , , 5 p 5 7 * * 6 5 5 8 5 8 5 * @ @ * * * * * * * * * * * @ @ l a ",
"w M $ $ $ $ $ $ $ $ $ $ $ ; $ $ $ $ ; * $ : , % 7 , , , , , , , , , , , 5 5 6 5 5 * * * 5 * * = = * * * * * @ * * * * @ @ @ N y ",
"w M $ $ $ % $ $ % $ $ $ $ $ $ $ $   ; ; ; % % , % X % , , , , , , , , , , , * @ * * * @ @ * * * * * * @ @ * * @ @ @ @ @ @ @ N r ",
"t v o o $ $ $ $ $ $ % $ % $ ; $   ; $ ; % % @ @ o X X % % , % , , , , @ % @ @ % % * @ % @ * @ @ * @ * O @ @ @ @ @ @ @ @ @ @ k r ",
"w b o o o o $ $ $ $ $ $ $ % ; $ ; ; $   . . . o @ X X % % , % , , , % @ @ X X % % % % X X % % X @ * @ * % % $ @ + X $ o .   b q ",
"w b o o o o o o $ $ $ $ $ $ o $ $ $ $   . . . o X @ @ % % , , , % % % @ * O X @ % $ $ X X X X % @ @ @ O o $ X X X X X       j 3 ",
"w b b b b b b b M M M M M j M M M M c c M j j j j j l M l M l j k z B B v j j B j j k j j M j j B B k k j j b c j j c c c c j 4 ",
"w w w w w w w w t t w w 4 w q j t 4 4 4 4 4 4 4 4 4 4 j 4 4 j r q j a q q q q q t 4 t q q q q q 4 q 4 4 t 4 4 4 4 4 4 4 4 4 4 4 "
};
