/* XPM */
static char *_dda93117a8a4f6cd87f1bb4db481b50wuX9BA0nTGO3tVY5[] = {
/* columns rows colors chars-per-pixel */
"64 64 189 2 ",
"   c #11B1DE",
".  c #2AA7DC",
"X  c #38A3DC",
"o  c #30AADE",
"O  c #38B1DD",
"+  c #3AB9DE",
"@  c #02BDE4",
"#  c #08BDE1",
"$  c #1DB6E5",
"%  c #16BDE8",
"&  c #3AA7E1",
"*  c #3AACE1",
"=  c #24BDE5",
"-  c #2CB8E7",
";  c #20B7E8",
":  c #4D8ECA",
">  c #558FC6",
",  c #4997CE",
"<  c #4D94D4",
"1  c #4E9AD7",
"2  c #4796D8",
"3  c #4E96DA",
"4  c #4E9ADB",
"5  c #5395D4",
"6  c #5996D6",
"7  c #549BD7",
"8  c #5D99D2",
"9  c #5196DA",
"0  c #5299DB",
"q  c #5998D9",
"w  c #639ACF",
"e  c #659CD4",
"r  c #6A9FD6",
"t  c #649DDA",
"y  c #53A2CD",
"u  c #4EA6D6",
"i  c #43A1DE",
"p  c #57A3DD",
"a  c #6FA3D3",
"s  c #6FAFD5",
"d  c #64A1DE",
"f  c #6CA5DE",
"g  c #7DAAD5",
"h  c #7EADD9",
"j  c #7DB6DA",
"k  c #41ADE3",
"l  c #4EB4E2",
"z  c #58B7E2",
"x  c #5BBBE7",
"c  c #69A5E1",
"v  c #66A8E4",
"b  c #69B5E7",
"n  c #62B9E5",
"m  c #79B7E2",
"M  c #05C1E6",
"N  c #08C1E2",
"B  c #06C9E7",
"V  c #09C8E7",
"C  c #08C2E8",
"Z  c #02CBEB",
"A  c #0CCEE9",
"S  c #10CEEC",
"D  c #04D3ED",
"F  c #03D6F5",
"G  c #24C5E3",
"H  c #05E4F8",
"J  c #61C0DF",
"K  c #5CCCE6",
"L  c #4AD8F2",
"P  c #6FC3E1",
"I  c #72C0E2",
"U  c #63DCED",
"Y  c #66DAF6",
"T  c #8CADD2",
"R  c #80AED9",
"E  c #83B4DC",
"W  c #8FB6DA",
"Q  c #93B3D9",
"!  c #A5BDD4",
"~  c #85B5E3",
"^  c #91B9E1",
"/  c #BCCAD5",
"(  c #B8C7DA",
")  c #BBCDDE",
"_  c #89C9E4",
"`  c #9DC5E3",
"'  c #98C7E7",
"]  c #98D6EB",
"[  c #A5C5E6",
"{  c #A4CCE4",
"}  c #AECDE7",
"|  c #A5C9E9",
" . c #A8CCEA",
".. c #B2CDE6",
"X. c #B3CEE9",
"o. c #A7D6EB",
"O. c #A8DDEF",
"+. c #BBD5EA",
"@. c #B9DBEC",
"#. c #B9D5F0",
"$. c #B5D9F1",
"%. c #8EE5EC",
"&. c #9CE9F5",
"*. c #B7E0E8",
"=. c #AEE2F0",
"-. c #B5ECF3",
";. c #BDEEF4",
":. c #B5F2F7",
">. c #C2D3DC",
",. c #CAD4DF",
"<. c #CFDCDF",
"1. c #D1D5DA",
"2. c #D5DADD",
"3. c #DDDDDD",
"4. c #E1DFDD",
"5. c #E1E1DF",
"6. c #C3D3E4",
"7. c #CAD5E3",
"8. c #C4DBE6",
"9. c #CDDAE6",
"0. c #C9D7EC",
"q. c #C7D8EA",
"w. c #CCDBEC",
"e. c #D2DCE3",
"r. c #DADFE4",
"t. c #D2DDED",
"y. c #D9DEEB",
"u. c #C4DCF0",
"i. c #CDDDF1",
"p. c #D2DFF2",
"a. c #E0DFE3",
"s. c #CEE1EE",
"d. c #DDE1E4",
"f. c #D4E1EC",
"g. c #DCE4EC",
"h. c #CFE2F5",
"j. c #C7EDF7",
"k. c #CAECF4",
"l. c #D3E2F3",
"z. c #DBE5F3",
"x. c #DEEAF4",
"c. c #D4E4F9",
"v. c #DBE7FA",
"b. c #DDE9F9",
"n. c #CEF5F6",
"m. c #D2F5F8",
"M. c #E4E3E3",
"N. c #E9E7E7",
"B. c #E5E9E5",
"V. c #EAEAE6",
"C. c #E3E6EB",
"Z. c #EAE7E9",
"A. c #E4EAED",
"S. c #ECEDEC",
"D. c #F2EFED",
"F. c #EEF1EE",
"G. c #F2F1EE",
"H. c #E1E7F3",
"J. c #E4ECF4",
"K. c #EAEEF4",
"L. c #E5EDF8",
"P. c #EBEFF9",
"I. c #F0EEF1",
"U. c #E5F3F5",
"Y. c #ECF2F5",
"T. c #EFF9F7",
"R. c #E7F1F9",
"E. c #EBF2FA",
"W. c #E3F8FD",
"Q. c #EDFAFC",
"!. c #F4F4F4",
"~. c #F9F7F5",
"^. c #F5F9F6",
"/. c #FAFAF6",
"(. c #F2F6FA",
"). c #F2F6FB",
"_. c #F7F7F9",
"`. c #F5F7FB",
"'. c #F9F6FB",
"]. c #F2F8FB",
"[. c #F6F9FA",
"{. c #F5FAFC",
"}. c #FAFAFA",
"|. c #FCFBFB",
" X c #F9FCFA",
".X c #F9FAFC",
"XX c #FCFBFC",
"oX c #FDFAFD",
"OX c #FDFDFD",
/* pixels */
"F.V.M.3.4.4.4.5.M.5.B.B.V.I.S.S.!.!.~. X|. X X!.}.~.~.}.}.~.}.|.[..X/.~.~.^.^.}.T.`.'.'.[.!.D.I.G.D.D.S.S.S.F.F.G.V.A.M.5.N.Z.B.",
"G.V.N.r.a.a.M.5.N.D.S.B.K.G.S.!.G.~.^.[.|.|. X].[.[.}.[.}.[.|.[..XoX^.}.|.}.'.~.[.|..X}.[.~.~._.G.G.I.D.S.S.K.S.Y.V.B.5.4.5.d.M.",
"B.N.M.2.2.M.0.N.e.s.A.N.S.G._._.~.].U.[.n.}.(.|.(.(.}.T.}.oXoXOXoX|.|.|.].z.(.(._._.n.m.m._.(.G.G.Y.!.D.A.A.h.A.s.w.d.d.7.2.6.2.",
"8.M.s 4.a.,.7.R 9.R e.d.Y.~.'._.^.}.E.}.L.U.|.g.oXOX~ C.E.OXOXOX|.|.|.OXx.H.}.' J.K.T.].%.!.W.!.~.!._.!.A.Q 9.h W h g ,.g 3.T 1.",
"2./ : : M.t < < Z.3 ,.E !.[.oX}.].|.J.|.}.s.i.f.l.}.h.l.J.(.OXOXOXOXOXK.f.OXl.l.f.XXU.OXL.J.{.[.}.}.}.T.@.> 6.6.>.3 , ) , 5.3.! ",
",./ ( 2 ..N.t 6.d 3 D.g.~.[.|.|.XX}.' t..Xi.oXh.OXOXl.OXJ.OXOXOXOXOX}.U.OXOXi.OXl.l.XXx.z.oX}.oX}.}.OXQ.] 7.6.6.6.< N.X . 6.M.3.",
") >.>.o V.d 3 6.6.3 7.g._./.OX|.|.oXJ.h.h.s.OXl.l.l.l.h.OX[..XOXOXOXOXOXz.OXh.OXs.l.z.|.|.g.{..XoXOXOX}.K., q.D.K.3 e.f.f.F.,.e.",
">.<.f.G.y.S.S.7.q.q.!.!.~._.|.OXoXOXU.f.OXOXOXl.z.c.OXz.R..XoXOXOXOXOX{ OXl.c.z.l.OXz.l.l.OXW.XXOXOXOX}.O.~.9.q.q.9.f.x.^.g.f.d.",
"d.g.V J.!.!.9.D.!.w.!.g.!._.~.|.OXOXP.OXOXz.OXz.OXOXv.OXR.oXOXOXOXOXOXY.x.OXv.OXOXOXv.OXz.OX{.XXOX|.oX[.J.r !.!.9.I.z.^.T.J.G.C.",
"C.S.~.}.J.!.f.w.w.!.~.g.}.[./.|.OXOXE.z.b.OXOXv.OXOXv.OXE.OXOXOXOXOXOXE.OXv.OXv.OXb.b.OXOXJ.XXXXOX|.oX}.~._.~.w.w.y.g.~.L.!.F.G.",
"C.F.A.E.J.G.t.!.f.s.[.A.{.|.OXOXOXOXOXOXx.OXb.OXb.b.OXOXE.OXOXOXOXOXXXOXJ.OXOXb.OXx.OXx.OXOXXXOXOXOXOX[.Y.[.~.f.!.!.p.g.!.!.g.S.",
"g.S.g.!.H.!.!.f.f.~.g.[..X|.OXOXOXOXOXL.x.x.OXL.OXOXL.OXOXOXOXOXOXOXOXT.OXb.OXJ.OXOXOXx.OXU.XXOXOXOXOX.X~.}.z.f._.G.y.!.f.I.S.A.",
"q.d.r.Y.G.y.g.!.C._.C.U.oXOXOXOXOXOXOXOXL.OXL.L.L.K.OXOXE.OXOXOXOXOXOX[.OXJ.OXL.OXOXK.OXK.K.OXOXOXOXOXOXY.}.C./.!.!.!.e.D.e.Z.Z.",
"N.Z.Z.C.D.Y.A.~.K.K._.}.}.OXOXOXOXOXOX].(.(.(.OX(.(.OXOXOXOXOXOXOXOXOXOX(.T.(.OXOX{.OXOX(.OXXXOXOXOXOXOXoX}.}.}.Y.!.J.!.C.q.S.S.",
"N.S.V.Y.G.!.~.(.'.}.|.oXOXOXOXOXOXOXOXOXOXOXOXOXOXOXOXOXOXOXOXOXOXOXOXOXOXOXOXOXOXOXOXOXOXOXOXOXOXOXOXOXOXoX}.{.~.(.!.!.!.S.S.Z.",
"S.S.S.!.!.Y.~.[.~._.OXOXOXOXOXOXOXOXOXOXOXOXOXOXOXOXOXOXOXOXOXOXOXOXOXOXOXOXOXOXOXOXOXOXOXOXOXOXOXOXOXOXOXOX}.}.|.!.!.!.!.(.S.A.",
"Z.S.S.!.!.!.^.~.}.}.}.OXOXOXOXOXOXOXOXOXOXOXOXOXOXOXOXOXOXOXOXOXOXOXOXOXOXOXOXOXOXOXOXOXOXOXOXOXOXOXOXOXOXOXOX}.}.'.(.^.I.!.S.S.",
"S.S.S.!.!.~.~.[.}.oXOXOXOXOXOXOXOXOXOXOXOXOXOXOXOXOXOXOXOXOXOXOXOXOXOXOXOXOXOXOXOXOXOXOXOXOXOXOXOXOXOXOXOXOXOXOX}.}.~.^.!.I.!.S.",
"S.D.S.!.^._._.}.}.OXOXOXOXOXOXOXOXOXOXOXOXOXOXOXOXOXOXOXOXOXOXOXOXOXOXOXOXOXOXOXOXOXOXOXOXOXOXOXOXOXOXOXOXOXOXOX}.}.~.~.!.!.S.S.",
"S.Y.!.!.~.~.~.}.OXOXOXOXOXOXOXOXOXOXOXOXOXOXOXOXOXOXOXOXOXOXOXOXOXOXOXOXOXOXOXOXOXOXOXOXOXOXOXOXOXOXOXOXOXOXOXOX|._.~._.K.!.G.!.",
"S.G.I.!.^._.[.}.OXOXOXOXOXOXOXOXOXOXOXOXOXOXOXOXOXOXOXOXOXOXOXOXOXOXOXOXOXOXOXOXOXOXOXOXOXOXOXOXOXOXOXOXOXOXOXOX}.}.[.~.~.!.!.S.",
"G.K.!.!._.~.}.|.OXOX.XOXOXOXOXOXOXOXOXoXOXOXOXOXOXOXOXOXOXOXOXOXOXOXOXOXOX.XOXOXOXOXOXOXOXOXOXOXOXOXOXOXOXOXOXOXOX}.}.}.~.K.!.D.",
"I.!.!.^.[.~.}.oXOXOXOXOXOXOXOXOXOXOXOXOXOXOXOXOXOXOXOXOXOXOXOXOXOXOXOXOXOXOXOXOXOXOXOXOXOXOXOXOXOXOXOXOXOXOXOXOXOX|.}.}.~.^.!.S.",
"S.!.!.~.~.}.}.OXOXOXOXOXOXOXOXOXOXOXOXOXOXOXOXOXOXOXOXOXOXOXOXOXOXOXOXOXOXOXOXOXOXOXOXOXOXOXOXOXOXOXOXOXOXOXOXOXOXOX}._._.~.!.!.",
"!.!.~.~.}._.|.OXOXOXOXOXOXOXOXOXOXOXOXOXOXOXOXOXOXOXOXOXOXOXOXOXOXOXOXOXOXOXOXOXOXOXOXOXOXOXOXOXOXOXOXOXOXOXOXOXOXOXoX}.~.~.^.K.",
"S.!.!.^.}.}.|.OXOXOXOXOXOXOXOXOXOXOXOXOXOXOXOXOXOXOXOXOXOXOXOXOXOXOXOXOXOXOXOXOXOXOXOXOXOXOXOXOXOXOXOXOXOXOXOXOXOXOXOX}.}.~.!.!.",
"!.I.~._.}.}.OXOXOXOXOXOXOXOXOXOXOXOXOXOXOXOXOXOXOXOXOXOXOXOXOXOXOXOXOXOXOXOXOXOXOXOXOXOXOXOXOXOXOXOXOXOXOXOXOXOXOXOXOX}.[.~.~.!.",
"Y.!.^._.}.OXOXOXOXOXOXOXOXOXOXOXOXOXOXOXOXOXOXOXOXOXOXOXOXOXOXOXOXOXOXOXOXOXOXOXOXOXOXOXOXOXOXOXOXOXOXOXOXOXOXOXOXOXOX}.[.~.!.!.",
"G.!.~._.[.oXOXOXOXOXOXOXOXOXOXOXOXOXOXOXOXOXOXOXOXOXOXOXOXOXOXOXOXOXOXOXOXOXOXOXOXOXOXOXOXOXOXOXOXOXOXOXOXOXOXOXOXOXOXoX}.^.~.!.",
"D._.~.[.}.}.OXOXOXOXOXOXOXOXOXOXOXOXOXOXOXOXOXOXOXOXOXOXOXOXOXOXOXOXOXOXOXOXOXOXOXOXOXOXOXOXOXOXOXOXOXOXOXOXOXOXOXOXOX}.'.~.^.~.",
"!.!.~.}.}.|.OXOXOXOXOXOXOXOXOXOXOXOXOXOXOXOXOXOXOXOXOXOXOXOXOXOXOXOXOXOXOXOXOXOXOXOXOXOXOXOXOXOXOXOXOXOXOXOXOXOXOXOXOXoX}.}.~.!.",
"!.!.~.[.}.OXOXOXOXOXOXOXOXOXOXOXOXOXOXOXOXOXOXOXOXOXOXOXOXOXOXOXOXOXOXOXOXOXOXOXOXOXOXOXOXOXOXOXOXOXOXOXOXOXOXOXOXOXOX}.}.[._.!.",
"Y.~.~.}.OXOXOXOXOXOXOXOXOXOXOXOXOXOXOXOXOXOXOXOXOXOXOXOXOXOXOXOXOXOXOXOXOXOXOXOXOXOXOXOXOXOXOXOXOXOXOXOXOXOXOXOXOXOXOXOX}.}.~.~.",
"!.~.[.}.}.OXOXOXOXOXOXOXOXOXOXOXOXOXOXOXOXOXOXOXOXOXOXOXOXOXOXOXOXOXOXOXOXOXOXOXOXOXOXOXOXOXOXOXOXOXOXOXOXOXOXOXOXOXOXOX}.}._.^.",
"G.~.}.~.}.OXOXOXOXOXOXOXOXOXOXOXOXOXOXOXOXOXOXOXOXOXOXOXOXOXOXOXOXOXOXOXOXOXOXOXOXOXOXOXOXOXOXOXOXOXOXOXOXOXOXOXOXOXOXOX}._.~.^.",
"I.^.^.}.oXOXOXOXOXOXOXOXOXOXOXOXOXOXOXOXOXOXOXOXOXOXOXOXOXOXOXOXOXOXOXOXOXOXOXOXOXOXOXOXOXOXOXOXOXOXOXOXOXOXOXOXOXOXOXOX}._.~._.",
"!.~.K.}.oXOXOXOXOXOXOXOXOXOXOXOXOXOXOXOXOXOXOXOXOXOX.XOXOXOXOXOXOXOXOXOXOXOXOXOXOXOXOXOX.XOXOXOXOXOXOXOXOX.XOXOXOXOXOXOX}.[._.~.",
"Y.~._.}.|.oXOXOXOXOXOXOXOXOXOXOXOXOXOXOXOXOXOXOXOXOXOXOXOXOXOXOXOXOXOXOXOXOXOXOXOXOXOXOXOXOXOXOXOXOXOXOXoXOXOXOXOXOXOXOX}.}.~.~.",
"K.^.~.E.|.E.T.OXOXOXOXOXOXOXOXOXOXOX[.OXOXOX].OXoX].`.OXOXOXOXOXOXOXOXOXOXOXOX_.].oXOXOXOX[.OXOXOXOXOXOXOXOXOXOXOX(.OXOX}.[.[.~.",
"!.~.}.L..XOXOXOX].OXOXOXOXOXOXOXOXOX{.OXoX].oXOXOX].OXOXOXOXOXOXOXOXOXOXOXOXOX].OX(.OXOXOXOXOXOXOXOXOXOX{.OXOXOXOXOXOXE.P._.~.^.",
"G.~.J.K.}.E.E.E.OXT.OX{.OXOXOXOXOXOXOXOX(.(.].|.(.OXE.OX{.OXOXOXOXOXOXOXOXOXOXOXOX].oXOX(.OXOXOXOXOXOXOX'.(.OXOXOX(.OX.XP.}.~.Y.",
"K.~.J.}.}.OXOXP.OXE.OXOXOXOXOXOXOXOXOXOXOXOXOXOXOXOXE.E.OXOXOXOXOXOXOXOXOXE.OXE.OXE.OXOXE.OXOXOXOXOXOXOXOXE.OXE.E.OXE.oX}.[.A.!.",
"Y.!._.~.|.|.L.OXE.OXOXOXOXOXOXOXOXoXQ.OXL.E.E.OXE.OXR.E.OXOXOXOXOXOXOX_.OXE.OXOXR.OXE.OXE.OXOXOXOXOXOXOX[.OXR.OXE.OXOXOXJ._.A.Y.",
"!.!.t J.|.J.|.P.OXOXOXOXOXOXOXOXOXOXOXE.OXOXE.OXOXJ.E.E.OXOXOXOXOXOX.XOXOXOXE.E.OXY.E.E.E.OXoXOXOXOXOXOXOXOXE.L.OXL.OXOXJ.[.~.~.",
"S.!.K.}.Y.|.oXOXOX{.OXoXOXOXOXOXOXOX]. XOX[.OXOX{.OX{.OX{.OXOXOXOXOXOX{.OXOX{.`.].].OX{.OXOXOXOXOXOXOXOXOX(.OX{.OX(.(.OX}.Y.K.g.",
"!.(._.^.}.}.OXOXOXOXOXOXOXOXOXOXOXOXOXOXOXOXOXOXOXOXoXOXOXOXOXOXOXOXOXOXOXOXOXOXoXOXOXOXOXOXOXOXOXOXOXOXOXOXOXOXOXOX}.oX}.~.[.!.",
"^.'.~.}.}..XOXOXOXOXOXOXOXOXOXOXOXOXOXOXOXOXOXOXOXOXOXOXOXOXOXOXOXOXOXOXOXOXOXOXOXOXOXOXOXOXOXOXOXOXOXOXOXOXOXOXOXOXOXOX|.|._.^.",
"~./.}.}.oXOXOXOXOXOXOXOXOXOXOXOXOXOXOXOXOXOXOXOXOXOXOXOXOXOXOXOXOXOXOXOXOXOXOXOXOXOXOXOXOXOXOXOXOXOXOXOXOXOXOXOXOXOXOXOXOX.X_.~.",
"^.^.|.|.OXOX|.|.|.OXOXOXOXOXOXOXOXOXOXOXOXOXOXOXOXOXOXOXOXOXOXOXOXOXOXOXOXOXOXOXOXOXOXOXOXOXOXOXOXOXOXOXOXOXOXOX|.OXOXoXOXoX}./.",
"K.'.OX|..XoXOX|.OXOXoXOXOXOXOXOXOXOXOXOXOXOXOXOXOXOXOXOXOXOXOXOXOXOXOXOXOXOXOXOXOXOXOXOXOXOXOXOXOXOXOXOXOXOXOXOXOXOX.X}..X|.~.T.",
"I.Y._.}.].`.(.`.[.{.OXW.OXOXOXOXOXOXOX`.{.].OX].].{.{.OXE.OXOXOXOXOXOX{.{.OX].{..XOXOXOX{..XOXOXOXOXOXOXOXOX{.[.[.|.|.[.}.Y.U.S.",
"K.g.~.J.H.z.~ oXOXx.j (.OXOXOXOXOXoXE.OXOXL.J.J.OXH.OXJ.OXOXOXOXOXOX{.OXJ.J.x.J.J.OXv.J.H.R.OXOXOXOXOXOX(.g.j z.x.j ^ |.m z.y.q.",
"S.G.9.i 2 }.0 w.w.s.f._ Q.OXOXOXOXOXOXJ.L.OXv.l.OXl.OXOXK.{.OXOXOXOXOXL.OXl.OXOXl.XXp.OXc.j OXXXOXOXoXOXE.OX0 c w.f }.q.3 q.9.C.",
"6.K.!.5 0.9 0 i.l.s.1 { Q.OXOXOXOXOXE.(.OXR.OXh.h.l.OXp.L.OXOXOXOXOXOXJ.l.h.OXl.l.l.c.OXOXx.OX|.OXOX.XOX| f.4 oX1 0 c '.3 3 q.A.",
"g.a !.9 0.0 4 v 4 i.d J.Q.OXOXOXOXQ.W.Y [.E.U.z.v OXc.h.OXOXOXOXOXOXOXU.l.0 OXOXc.OXH.L.OXY.{.OXOXOXOX{.R.w.0 p.4 w.w./.!.X }.@.",
"*.u q.d 0.q.v & l.4 t.| ].OXOXOXOX{.E.A D Z x.l.l.p.1 l.L.}.OXOXOXOXOXK.l.OXl.l.OXH.OXF R.K OXOXOXOXOX].J.p.4 9 }.4 [.q.8.]. X-.",
"!.J f.X !.[.x ; x k t.J.T.OXOXOXOX].OX= % - b l.l.0 OXXXL.{.OXOXOXOXXX` f.OXOX0 z.$ OX[.U P.Q.OXOXOXOXOXJ.p.oXi.9 i.f q.2 % J.:.",
"-.G M y.* $ B L.Z $ i [ .XOXOXOXOXOXL.z.* c.0 0 f 0 c.p. .OXOXOXOXOXOXXXc.l.l.OXc.x.D E.A ] XXOXOXOXOXoX[ p.9 i.w.d q.9 q.x x.-.",
"-.!.B (.z @ L H L M & A.].OXOXOXOX[.OXq 7 0 0 0 l.l.0 l.R.{.OXOXOXOXW.E.l.0 l.0 l.n J.C H.I Q.OXOXOXoX(.oXt.9 9 w.5 3 G.3 w.f.=.",
";.U.N   o g.B W.D # n _ Q.OXOXOXOXOXJ.u 0 q q l.6 0 OXl.` .X|.|.OXOXT.E.p c.OX6 l.0 c.k v.J.{.OXOXOXoX(.[ t.w.5 '.0.3 3 6.6.y A.",
"*.g.f.G.u O = J G + U.P OXXXXXOXOX{._ I l OXc.a l.l.t z...].|.|.XXXXW.] OXt z.t z.d r c.z.W {.|.OXOXOX[.J.y.t.e w e w 7.8 6.V.d.",
"d.o.o.} g.Z.O.Y.Y.$.|.j.[.oXXXXX|.OX;.&.Q.=.Y.$.T.#.#.E.z./.|.|.OXXX|.k.$.(.#.E.].E.+.OX@.].OX|.|.OX|..Xl.U.L.J.+.J.X.g...} y.r.",
"M.V.Z.V.Y.Y.^.].].^.[.|.OXOXOXXX|.|.{.].OXXXOXXX[.oXOX.XOX|.OXOXOXOXOX|.OXXXXX{.{.OXXXXX|.XXOX|.OXOX|./.[.[.^.].^.Y.!.Y.S.U.A.V.",
"d.V.S.Y.!.(.~.!.(.'.XXXXOXXX|.OX|.OXOXOXOXOXOXOXOXOXOXOXOXOXOXOXOXOXOXOXOXOXOXOXOXOXOXXXXXXXXXoX|.|.}./.^.!.(.!.!.!.K.S.V.Z.Z.Z."
};
