/* XPM */
static char *_146ee6028724a19b64ba9c6859beb97qnE1z0RYaJWG5Hvo[] = {
/* columns rows colors chars-per-pixel */
"64 64 9 1 ",
"  c None",
". c black",
"X c #4D3D3D",
"o c #4D3E3E",
"O c #E64EB5",
"+ c #E64EB6",
"@ c #9D9595",
"# c #9E9595",
"$ c #9E9696",
/* pixels */
"                                                                ",
"                                                                ",
"                                                                ",
"                                                                ",
"                                                                ",
"                                                                ",
"                                                                ",
"                                                                ",
"                      ..          ..                            ",
"                      ..          ..                            ",
"                    ..$$..      ..$$..                          ",
"                    ..$$..      ..$$..                          ",
"                    ..$$oo......oo$$..                          ",
"                    ..$$oo......oo$$..                          ",
"                  ..oo$$$$oooXXX$$$$oo..                        ",
"                  ..oo$$$$oooXXX$$$$oo..                        ",
"                  ..$$$$@$@$@$$$@$@$$$..                        ",
"                  ..$$$@@$@$@$@$@$@$$$..                        ",
"                ..oo$@$@@$@$@$$$@@@$$$XX..                      ",
"                ..oo@$@$$@$@@@@@$$$$$$XX..                      ",
"                ..$@$@..@$@$..$$@@..$$$$..                      ",
"                ..@$@$..$$$@..$$$$..$$$$..                      ",
"                ..$@OO$$$$..$$..$$$$OO$$..                      ",
"                ..$$OO$$$$..$$..$$$$OO$$..                      ",
"              ..oo$$@$@$$@$@$@@@$$$$$$$$oo..                    ",
"              ..oo$$$@$@@$@$@$$$@@@$@$@$oo..                    ",
"              ..XX$$@$@$$@$@$@@@$$$$$$$$oo..                    ",
"              ..XX$@$@$@@$@$@$$$@@@$@$@$oo..                    ",
"              ..@@@$@$@$$@$@$@@@$$$$$$$$$$..                    ",
"              ..$$$@$@$@@$@$@$$$@@@$@$@$$$..                    ",
"              ..$$$@$@$@@$@$@$$$@$@$@$@$$$..                    ",
"              ..$$$@$@$@@$@$@$$$@@@$@$@$$$..                    ",
"            ..oooo@$@$@$$@$@$@@@$$$$$$$$oooo..                  ",
"            ..oooo@$@$@$$@$@$@$@$$$$$$$$oooo..                  ",
"            ..oo@@@$@$@$$@$@$@@@$$$$$$$$$$oo..                  ",
"            ..oo$$$$$$$$$$$$$$$$$$$$$$$$$$oo..                  ",
"            ..$$@@@$@$@$$@$@$@@@$$$$$$$$$$$$..    ....          ",
"            ..$$$$$$$$$$$$$$$$$$$$$$$$$$$$$$..    ....          ",
"            ..oooo@$@$@$$@$@$@@@$$$$$$$$oooo..  ..$$$$..        ",
"            ..oooo$$$$$$$$$$$$$$$$$$$$$$oooo..  ..$$$$..        ",
"            ..oo$$$$$$$$$$$$$$$$$$$$$$$$$$oo..    ..oo..        ",
"            ..oo@@@$@$@$$@$@$@@@$$$$$$$$$$oo..    ..oo..        ",
"            ..$$$$$$..$$$$$$$$$$$$$$..$$$$$$..    ..$$..        ",
"            ..$$@@@$..@$$$$$$@@@$$$$..$$$$$$..    ..$$..        ",
"            ..oo$$$$..$$..$$$$$$..$$..$$$$oo......$$$$..        ",
"            ..oo@@$$..$$..$$$@@@..$$..$$$$oo......$$$$..        ",
"              ..XX$$..$$..$@$@$$..$$..$$oo..$$$$oo$$..          ",
"              ..XX$$..$$..$@$@$$..$$..$$oo..$$$$oo$$..          ",
"                ......$$..........$$................            ",
"                ......$$..........$$................            ",
"                    ......      ......                          ",
"                    ......      ......                          ",
"                                                                ",
"                                                                ",
"                                                                ",
"                                                                ",
"                                                                ",
"                                                                ",
"                                                                ",
"                                                                ",
"                                                                ",
"                                                                ",
"                                                                ",
"                                                                "
};
