/* XPM */
static char *_bb36ab4013e4df4dd953bc09c418ae9YwSEYujVFQNUq1Zf[] = {
/* columns rows colors chars-per-pixel */
"64 64 8 1 ",
"  c None",
". c #111214",
"X c #3D2D09",
"o c #4D525E",
"O c #636A7A",
"+ c #E01444",
"@ c #E887CB",
"# c #E8E0DF",
/* pixels */
"                                                                ",
"                                                                ",
"                                                                ",
"                                                                ",
"                                                                ",
"                                                                ",
"                                                                ",
"                                                                ",
"                          XXXXXX        XXXXXX                  ",
"                          XXXXXX        XXXXXX                  ",
"                          XXXXXX        XXXXXX                  ",
"                        XXXXOOXXXX    XXXXOOXX                  ",
"                        XXXXOOXXXX    XXXXOOXX                  ",
"                        XXXXOOXXXX    XXXXOOXX                  ",
"      XXXXXX            XXOO##OOXXXXXXXXOO##XX                  ",
"      XXXXXX            XXOO##OOXXXXXXXXOO##XX                  ",
"      XXXXXX            XXOO##OOXXXXXXXXOO##XX                  ",
"      XX##XX            XXooOOOOooOOooOOooOOXXXX                ",
"      XX##XX            XXooOOOOooOOooOOooOOXXXX                ",
"      XXOOXX          XXXXOOOOOOOOOOooOOOOOOOOXXXX              ",
"      XXOOXX          XXXXOOOOOOOOOOooOOOOOOOOXXXX              ",
"      XXOOXX          XXXXOOOOOOOOOOooOOOOOOOOXXXX              ",
"      XXooXXXX        XXooooOO++OOOOOOOO++OOooXX                ",
"      XXooXXXX        XXooooOO++OOOOOOOO++OOooXX                ",
"      XXooXXXX        XXooooOO++OOOOOOOO++OOooXX                ",
"      XXXXOOXXXXXXXXXXXXOOOOOOOOOOOOOOOOOOOOOOXXXX              ",
"      XXXXOOXXXXXXXXXXXXOOOOOOOOOOOOOOOOOOOOOOXXXX              ",
"      XXXXOOXXXXXXXXXXXXOOOOOOOOOOOOOOOOOOOOOOXXXX              ",
"        XXXXooOOooOOooOOooooOOOO##@@##OOOOOOooXX                ",
"        XXXXooOOooOOooOOooooOOOO##@@##OOOOOOooXX                ",
"        XXXXooOOooOOooOOooooOOOO##@@##OOOOOOooXX                ",
"          XXXXXXXXOOooOOOOOOOOOOOO##OOOOOOOOOOXXXX              ",
"          XXXXXXXXOOooOOOOOOOOOOOO##OOOOOOOOOOXXXX              ",
"                XXOOOOOOOOooOOOOOOOOOOOOOOOOXXXX                ",
"                XXOOOOOOOOooOOOOOOOOOOOOOOOOXXXX                ",
"                XXOOOOOOOOooOOOOOOOOOOOOOOOOXXXX                ",
"                XXOOOOOOOOOOOOOOOOOOOOOOOOXXXX                  ",
"                XXOOOOOOOOOOOOOOOOOOOOOOOOXXXX                  ",
"                XXOOOOOOOOOOOOOOOOOOOOOOOOXXXX                  ",
"                XXXXOOOOOOOOOOOO####OO##OOXX                    ",
"                XXXXOOOOOOOOOOOO####OO##OOXX                    ",
"                XXXXOOOOOOOOOOOO####OO##OOXX                    ",
"                  XXOOOO######OO####OOOOOOXX                    ",
"                  XXOOOO######OO####OOOOOOXX                    ",
"                  XXOOOO######OO####OOOOOOXX                    ",
"                  XX##OOOO##OO##OOOO##OOXXXX                    ",
"                  XX##OOOO##OO##OOOO##OOXXXX                    ",
"                  XXXXXX..XXXXXXXXXXXXXXXX                      ",
"                  XXXXXX..XXXXXXXXXXXXXXXX                      ",
"                  XXXXXX..XXXXXXXXXXXXXXXX                      ",
"                                                                ",
"                                                                ",
"                                                                ",
"                                                                ",
"                                                                ",
"                                                                ",
"                                                                ",
"                                                                ",
"                                                                ",
"                                                                ",
"                                                                ",
"                                                                ",
"                                                                ",
"                                                                "
};
