/* XPM */
static char *result[] = {
/* columns rows colors chars-per-pixel */
"64 64 35 1 ",
"  c black",
". c #6D0000",
"X c #034200",
"o c #03004B",
"O c #001F5B",
"+ c #9B1800",
"@ c #B30000",
"# c #D11E1E",
"$ c #EF3C3C",
"% c #9B5B00",
"& c #915731",
"* c #E15E00",
"= c #FF7C11",
"- c #49880A",
"; c #67A628",
": c #E1A100",
"> c #FFBF00",
", c #FF9A2F",
"< c #FFDD1E",
"1 c #D79D77",
"2 c #85C446",
"3 c #673FAF",
"4 c #005D9B",
"5 c #0065A1",
"6 c #855DCD",
"7 c #0083BF",
"8 c #1EA1DD",
"9 c #00A3E1",
"0 c #1AC1FF",
"q c #38DFFF",
"w c #F5BB95",
"e c #FFD9B3",
"r c #FFF7D1",
"t c white",
"y c None",
/* pixels */
"yyyyyyyyyyyyyyyyyyyyyyyyyyyyyyyyyyyyyyyyyyyyyyyyyyyyyyyyyyyyyyyy",
"yyyyyyyyyyyyyyyyyyyyyyyyyyyyyyyyyyyyyyyyyyyyyyyyyyyyyyyyyyyyyyyy",
"yyyyyyyyyyyyyyyyyyyyyyyyyyyyyyyyyyyyyyyyyyyyyyyyyyyyyyyyyyyyyyyy",
"yyyyyyyyyyyyyyyyyyyyyyyyyyy...........yyyyyyyyyyyyyyyyyyyyyyyyyy",
"yyyyyyyyyyyyyyyyyyyyyyyy...@#########@...yyyyyyyyyyyyyyyyyyyyyyy",
"yyyyyyyyyyyyyyyyyyyyyyyy...@#########@...yyyyyyyyyyyyyyyyyyyyyyy",
"yyyyyyyyyyyyyyyyyyyyyyy.@@###$$#$##$####@.yyyyyyyyyyyyyyyyyyyyyy",
"yyyyyyyyyyyyyyyyyyyyyy.@##@#$##$$$$#$#@@#@..yyyyyyyyyyyyyyyyyyyy",
"yyyyyyyyyyyyyyyyyyyyyy.@@@#$#$$$$$$$#$##@@..yyyyyyyyyyyyyyyyyyyy",
"yyyyyyyyyyyyyyyyyyyyyy.@@@#$#$$$$$$$#$##@@..yyyyyyyyyyyyyyyyyyyy",
"yyyyyyyyyyyyyyyyyyyyyy.@@@#$#$$$$$$$#$##@@..yyyyyyyyyyyyyyyyyyyy",
"yyyyyyyyyyyyyyyyyyyy..@@####$$$$$$$$$####@@@.yyyyyyyyyyyyyyyyyyy",
"yyyyyyyyyyyyyyyyyyyy..@@@@#$#$$$$$$$#$##@@@@.yyyyyyyyyyyyyyyyyyy",
"yyyyyyyyyyyyyyyyyyy+++@@####$$$$$$$$$####@@@+yyyyyyyyyyyyyyyyyyy",
"yyyyyyyyyyyyyyyyyyy+**++++++++++++++++++++++*+yyyyyyyyyyyyyyyyyy",
"yyyyyyyyyyyyyyyyyyy+**++++++++++++++++++++++*+yyyyyyyyyyyyyyyyyy",
"yyyyyyyyyyyyyyyyyyy+***=,,=,,,,,,,,,,,==,=***+yyyyyyyyyyyyyyyyyy",
"yyyyyyyyyyyyyyyyyyy+****=======,,,,======****+yyyyyyyyyyyyyyyyyy",
"yyyyyyyyyyyyyyyyyyy+***=**=,,,,,,,,,,,==*=***+yyyyyyyyyyyyyyyyyy",
"yyyyyyyyyyyyyyyyyyy%+++++++++++++++++++++++++%yyyyyyyyyyyyyyyyyy",
"yyyyyyyyyyyyyyyyyyy%+++++++++++++++++++++++++%yyyyyyyyyyyyyyyyyy",
"yyyyyyyyyyyyyyyyyyy%%%>>%%   wwwwwww    %>>>%%yyyyyyyyyyyyyyyyyy",
"yyyyyyyyyyyyyyyyyyy&%%:><<% t  wwww t %%<>::%&yyyyyyyyyyyyyyyyyy",
"yyyyyyyyyyyyyyyyyyy&ww%><<%=   wwww  =%%<>%%w&yyyyyyyyyyyyyyyyyy",
"yyyyyyyyyyyyyyyyyyy&ww%><<%=   wwww  =%%<>%%w&yyyyyyyyyyyyyyyyyy",
"yyyyyyyyyyyyyyyyyyy&ww%><<%=   wwww  =%%<>%%w&yyyyyyyyyyyyyyyyyy",
"yyyyyyyyyyyyyyyyyy%&ww%><<%==&&ewee&==%%<>%%w&yyyyyyyyyyyyyyyyyy",
"yyyyyyyyyyyyyyyyy%>:%%:<%%rrreeeeeeerrrr%<::%yyyyyyyyyyyyyyyyyyy",
"yyyyyyyyyyyyyyy%%>:%%%:<%%ere&&&&&&&eree%<::%yyyyyyyyyyyyyyyyyyy",
"yyyyyyyyyyyyyyy%%>%:::%:>>%%e&&tttt&e%%%>:%%yyyyyyyyyyyyyyyyyyyy",
"yyyyyyyyyyyyyyy%%>%:::%:>>%%e&&tttt&e%%%>:%%yyyyyyyyyyyyyyyyyyyy",
"yyyyyyyyyyyyyy%>>%%:>>>%%%%wwee&&&&eww%%%%%%yyyyyyyyyyyyyyyyyyyy",
"yyyyyyyyyyyyyy%%%y%:>>>:::X&&11wwww1&&XX%%yyyyyyyyyyyyyyyyyyyyyy",
"yyyyyyyyyyyyyy%yyy%>>>>:::X;-&&&&&&&-;XX%%yyyyyyyyyyyyyyyyyyyyyy",
"yyyyyyyyyyyyyy%yyy%>>>>:::X;-&&&&&&&-;XX%%yyyyyyyyyyyyyyyyyyyyyy",
"yyyyyyyyyyyyyy%yyy%>>>::>>X;2XX;;;;X2;XX%yyyyyyyyyyyyyyyyyyyyyyy",
"yyyyyyyyyyyyyyyyy%>>:::>>>OX;XX2222X;XOOyyyyyyyyyyyyyyyyyyyyyyyy",
"yyyyyyyyyyyyyyyyy%>>::>>>>O7XXXXXXXXX7OOyyyyyyyyyyyyyyyyyyyyyyyy",
"yyyyyyyyyyyyyyy%%>>>>>>>OO85X;;2X22;X588Oyyyyyyyyyyyyyyyyyyyyyyy",
"yyyyyyyyyyyyyyy%%>>>>>>>OO85X;;2X22;X588Oyyyyyyyyyyyyyyyyyyyyyyy",
"yyyyyyyyyyyyyyy%%>>>>>>>OO85X;;2X22;X588Oyyyyyyyyyyyyyyyyyyyyyyy",
"yyyyyyyyyyyyy%%>>>>:::::OO8X;22X9XX2;X88Oyyyyyyyyyyyyyyyyyyyyyyy",
"yyyyyyyyyyyyyyy%%%%%%%%O777X222XqXX22X777Oyyyyyyyyyyyyyyyyyyyyyy",
"yyyyyyyyyyyyyyyyyyyyyyyO884XXXXXqXXXXX448Oyyyyyyyyyyyyyyyyyyyyyy",
"yyyyyyyyyyyyyyyyyyyyyyyO884XXXXXqXXXXX448Oyyyyyyyyyyyyyyyyyyyyyy",
"yyyyyyyyyyyyyyyyyyyyyyyO5540qqqqqqqqq0445Oyyyyyyyyyyyyyyyyyyyyyy",
"yyyyyyyyyyyyyyyyyyyyyy&O8849qqqqqqqqq9448O&&yyyyyyyyyyyyyyyyyyyy",
"yyyyyyyyyyyyyyyyyyyyyy&wOO40900909909044Ow&&yyyyyyyyyyyyyyyyyyyy",
"yyyyyyyyyyyyyyyyyyyyyy&1ee44000000000444e1&&yyyyyyyyyyyyyyyyyyyy",
"yyyyyyyyyyyyyyyyyyyyyy&1ee44000000000444e1&&yyyyyyyyyyyyyyyyyyyy",
"yyyyyyyyyyyyyyyyyyyyyyy&wwO54444444445OOw&yyyyyyyyyyyyyyyyyyyyyy",
"yyyyyyyyyyyyyyyyyyyyyyyy&&&O755OOOO57O&&&yyyyyyyyyyyyyyyyyyyyyyy",
"yyyyyyyyyyyyyyyyyyyyyyyyyyyO755OyOO57Oyyyyyyyyyyyyyyyyyyyyyyyyyy",
"yyyyyyyyyyyyyyyyyyyyyyyyyyyO755OyOO57Oyyyyyyyyyyyyyyyyyyyyyyyyyy",
"yyyyyyyyyyyyyyyyyyyyyyyyyyyO755OyOO57Oyyyyyyyyyyyyyyyyyyyyyyyyyy",
"yyyyyyyyyyyyyyyyyyyyyyyyyyyO755OyOO57Oyyyyyyyyyyyyyyyyyyyyyyyyyy",
"yyyyyyyyyyyyyyyyyyyyyyyyyyyO755OyOO57Oyyyyyyyyyyyyyyyyyyyyyyyyyy",
"yyyyyyyyyyyyyyyyyyyyyyyyyyOOOOOOyOOOOOOOyyyyyyyyyyyyyyyyyyyyyyyy",
"yyyyyyyyyyyyyyyyyyyyyyyyoo36633oyoo36633oyyyyyyyyyyyyyyyyyyyyyyy",
"yyyyyyyyyyyyyyyyyyyyyyyyoo36633oyoo36633oyyyyyyyyyyyyyyyyyyyyyyy",
"yyyyyyyyyyyyyyyyyyyyyyyyoo66633oyoo36666oyyyyyyyyyyyyyyyyyyyyyyy",
"yyyyyyyyyyyyyyyyyyyyyyyyooooooooyooooooooyyyyyyyyyyyyyyyyyyyyyyy",
"yyyyyyyyyyyyyyyyyyyyyyyyyyyyyyyyyyyyyyyyyyyyyyyyyyyyyyyyyyyyyyyy",
"yyyyyyyyyyyyyyyyyyyyyyyyyyyyyyyyyyyyyyyyyyyyyyyyyyyyyyyyyyyyyyyy"
};
