/* XPM */
static char *_addf8a60e714900979b4830d0f3060ehNH0LAhBNuuABEwo[] = {
/* columns rows colors chars-per-pixel */
"64 64 7 1 ",
"  c None",
". c gray50",
"X c #ED1C24",
"o c #B97A57",
"O c #F7AB79",
"+ c gray63",
"@ c #DBA88C",
/* pixels */
"                                                                ",
"                                                                ",
"                                                                ",
"                                                                ",
"                                                                ",
"                                                                ",
"                        ..............                          ",
"                      ..................                        ",
"                     .....oooooooooo.....                       ",
"                    ....oooooooooooooo....                      ",
"                   ....oooooooooooooooo....                     ",
"                  ....oooooooooooooooooo....                    ",
"                 ....oooooooooooooooooooo....                   ",
"                ....oooooooooooooooooooooo....                  ",
"               ....ooooo@@@@@@@@@@@@@@@oooo....                 ",
"              ....ooooo@OOOOOOOOOOOOOOO@oooo....                ",
"             ....oooooo@OXXXXXXXXXXXXXO@ooooo....               ",
"            ....ooooooo@OXXXXXXXXXXXXXO@oooooo....              ",
"            ...oooooooo@OXXXXXXXXXXXXXO@ooooooo...              ",
"           ...ooooooooo@OXXXXXXXXXXXXXO@oooooooo...             ",
"           ...ooooooooo@OXXXXXXXXXXXXXO@oooooooo...             ",
"           ..oooooooooo@OXXXXXXXXXXXXXO@ooooooooo..             ",
"           ..oooooooooo@OXXXXXXXXXXXXXO@ooooooooo..             ",
"           ..oooooooooo@OOOOOOOOOOOOOOO@ooooooooo..             ",
"           ..oooooooooo@OOOOOOOOOOOOOOO@ooooooooo..             ",
"           ..oooooooooo@OXXXXXXXXXXXXXO@ooooooooo..             ",
"           ..oooooooooo@OXXXXXXXXXXXXXO@ooooooooo..             ",
"           ..oooooooooo@OXXXXXXXXXXXXXO@ooooooooo..             ",
"           ..oooooooooo@OXXXXXXXXXXXXXO@ooooooooo..             ",
"           ..oooooooooo@OXXXXXXXXXXXXXO@ooooooooo..             ",
"           ..oooooooooo@OXXXXXXXXXXXXXO@ooooooooo..             ",
"           ..oooooooooo@OXXXXXXXXXXXXXO@ooooooooo..             ",
"           ..oooooooooo@OOOOOOOOOOOOOOO@ooooooooo..             ",
"           ..ooooooooooo@@@@@@@@@@@@@@@oooooooooo..             ",
"           ..oooooooooooooooooooooooooooooooooooo..             ",
"           ..oooooooooooooooooooooooooooooooooooo..             ",
"           ..oooooooooooooooooooooooooooooooooooo..             ",
"           ..oooooooooooooooooooooooo++o++ooooooo..             ",
"           ..ooooooooooooooooooooooooo+++oooooooo..             ",
"           ..oooooooooooooooooooooooooooooooooooo..             ",
"           ..oooooooooooooooooooooooooooooooooooo..             ",
"           ..oooooooooooooooooooooooooooooooooooo..             ",
"           ..oooooooooooooooooooooooooooooooooooo..             ",
"           ..oooooooooooooooooooooooooooooooooooo..             ",
"           ..oooooooooooooooooooooooooooooooooooo..             ",
"           ..oooooooooooooooooooooooooooooooooooo..             ",
"           ..oooooooooooooooooooooooooooooooooooo..             ",
"           ..oooooooooooooooooooooooooooooooooooo..             ",
"           ..oooooooooooooooooooooooooooooooooooo..             ",
"           ..oooooooooooooooooooooooooooooooooooo..             ",
"           ..oooooooooooooooooooooooooooooooooooo..             ",
"           ..oooooooooooooooooooooooooooooooooooo..             ",
"           ..oooooooooooooooooooooooooooooooooooo..             ",
"           ..oooooooooooooooooooooooooooooooooooo..             ",
"           ..oooooooooooooooooooooooooooooooooooo..             ",
"           ..ooooo..........................ooooo..             ",
"           ........................................             ",
"           ......+++++++++++++++++++++++++++++.....             ",
"            ++++++++++++++++++++++++++++++++++++++              ",
"         .............................................          ",
"        ...............................................         ",
"        ...............................................         ",
"     ++++++++++++++++++++++++++++++++++++++++++++++++++++       ",
"     ++++++++++++++++++++++++++++++++++++++++++++++++++++       "
};
