/* XPM */
static char *result[] = {
/* columns rows colors chars-per-pixel */
"64 64 10 1 ",
"  c #3D2D09",
". c #4D525E",
"X c #636A7A",
"o c #ED1C24",
"O c #E01444",
"+ c #1EE656",
"@ c #E887CB",
"# c #C3C3C3",
"$ c #E8E0DF",
"% c None",
/* pixels */
"%%%%%%%%%%%%%%%%%%%%%%%%%%%%%%%%%%%%%%%%%%%%%%%%%%%%%%%%%%%%%%%%",
"%%%%%%%%%%%%%%%%%%%%%%%%%%%%%%%%%%%%%%%%%%%%%%%%%%%%%%%%%%%%%%%%",
"%%%%%%%%%%%%%%%%%%%%%%%%%%%%%%%%%%%%%%%%%%%%%%%%%%%%%%%%%%%%%%%%",
"%%%%%%%%%%%%%%%%%%%%%%%%%%%%%%%%%%%%%%%%%%%%%%%%%%%%%%%%%%%%%%%%",
"%%%%%%%%%%%%%%%%%%%%%%%%%%%%%%%%%%%%%%%%%%%%%%%%%%%%%%%%%%%%%%%%",
"%%%%%%%%%%%%%%%%%%%%%%%%%%%%%%%%%%%%%%%%%%%%%%%%%%%%%%%%%%%%%%%%",
"%%%%%%%%%%%%%%%%%%%%%%%%%%%%%%%%%%%%%%%%%%%%%%%%%%%%%%%%%%%%%%%%",
"%%%%%%%%%%%%%%%%%%%%%%%%%%%%%%%%%%%%%%%%%%%%%%%%%%%%%%%%%%%%%%%%",
"%%%%%%%%%%%%%%%%%%%%%%%%      %%%%%%%%      %%%%%%%%%%%%%%%%%%%%",
"%%%%%%%%%%%%%%%%%%%%%%%%      %%%%%%%%      %%%%%%%%%%%%%%%%%%%%",
"%%%%%%%   %%%%%%%%%%%%%%      %%%%%%%%      %%%%%%%%%%%%%%%%%%%%",
"%%%%   ##        %%%%%%%  XX    %%%%    XX    %%%%%%%%%%%%%%%%%%",
"%%%  #### X++X.   %%%%%%  XX    %%%%    XX    %%%%%%%%%%%%%%%%%%",
"%%  ##### XX+XX.X   %%%%  XX    %%%%    XX    %%%%%%%%%%%%%%%%%%",
"%  ###    XX+XX..X   %%%  $$XX        XX$$XX  %%%%%%%%%%%%      ",
"% ##   %   XXXXX.XX   %%  $$XX        XX$$XX  %%%%%%%%%%%%      ",
"% ## %%%%%  XXXX.XXX   %  $$XX        XX$$XX  %%%%%%%%%%%%      ",
"%%  %%%%%%   XXXX.XXX     XX..XX..XX..XXXX..  %%%%%%%%%%%%  $$  ",
"%%%%%%%   XXXXXXX.XXXX    XX..XX..XX..XXXX..  %%%%%%%%%%%%  $$  ",
"%%%%%%% X...XXXXX.XXXX  XXXXXXXX..XXXXXXXXXX    %%%%%%%%%%  XX  ",
"%%%    XXXXX..XXX.XXXX  XXXXXXXX..XXXXXXXXXX    %%%%%%%%%%  XX  ",
"%  ### XXXXXX..XX.XXXX  XXXX+++X..XXXX+++XXX    %%%%%%%%%%  XX  ",
"% ### XXXXXXXX.XXXXXXX  ..XXOO+XXXXXXXOO+X....  %%%%%%%%    ..  ",
"% ###    XXX XXXXXXXXX  ..XXOO+XXXXXXXOO+X....  %%%%%%%%    ..  ",
"% ##  %%      XXXXXXXX  ..XXoO+XXXXXXXoO+X....  %%%%%%%%    ..  ",
"% #  %%%%%%   XXXXXXXX  XXXXXXXXXXXXXXXXXXXXXX            XX    ",
"% # %%%%   XXXXXXXXXXX  XXXXXXXXXXXXXXXXXXXXXX            XX    ",
"% # %%  XXXXXX..XXXXXX  XXXXXXXXXXXXXXXXXXXXXX            XX    ",
"%   % XXXXXXXXX..XXXXX  ..XXXXXX$$@@$$XXXX....XX..XX..XX..    %%",
"%%%%  XXXXXXXXXX..XXXX  ..XXXXXX$$@@$$XXXX....XX..XX..XX..    %%",
"%%%% XXXXXXXXXXXX.XXXX  ..XXXXXX$$@@$$XXXX....XX..XX..XX..    %%",
"%%%% XXXXXXXXXXXX.XXXX  XXXXXXXXXX$$XXXXXXXXXXXX..XX        %%%%",
"%%            XXXX.XXX  XXXXXXoooX$$XoooXXXXXXXX..XX        %%%%",
"% #### %%%%   XXXX.XXX    XXXXoXXXXXXXXoXX..XXXXXXXX  %%%%%%%%%%",
"% ###  %%  XXXXXXX.       XXXXoXXXXXXXXoXX..XXXXXXXX  %%%%%%%%%%",
"% ### %%  XXXXXXXX.       XXXXoXXooXoXXoXX..XXXXXXXX  %%%%%%%%%%",
"% ### %  XXXX+XXXX.  %%%    XXXXXoXXoXXXXXXXXXXXXXXX  %%%%%%%%%%",
"%  ## % XXXXXX++XX  %%%%    XXXXXoXXoXXXXXXXXXXXXXXX  %%%%%%%%%%",
"%% ##    XXXXXX+X   %%%%    XXXXXoXXoXXXXXXXXXXXXXXX  %%%%%%%%%%",
"%%  ## %    X      %%%%%%%  XX$$Xo$o$$XXXXXXXXXXXX    %%%%%%%%%%",
"%%%    % ###      %%%%%%%%  XX$$oo$o$$XXXXXXXXXXXX    %%%%%%%%%%",
"%%%%%%%% ### %%%%%%%%%%%%%  XX$$XX$o$$XXXXXXXXXXXX    %%%%%%%%%%",
"%%%%%%%% ### %%%%%%%%%%%%%  XXXXXX$o$$XX$$$$$$XXXX  %%%%%%%%%%%%",
"%%%%%%%% ###  %%%%%%%%%%%%  XXXXXX$o$$XX$$$$$$XXXX  %%%%%%%%%%%%",
"%%%%%%%% ####  %%%%%%%%%%%  XXXXXX$o$$XX$$$$$$XXXX  %%%%%%%%%%%%",
"%%%%%%%%  #### %%%%%%%%%%%    XX$$XXXX$$XX$$XXXX$$  %%%%%%%%%%%%",
"%%%%%%%%%   ## %%%%%%%%%%%    XX$$XXXX$$XX$$XXXX$$  %%%%%%%%%%%%",
"%%%%%%%%%%%    %%%%%%%%%%%%%                        %%%%%%%%%%%%",
"%%%%%%%%%%%%%%%%%%%%%%%%%%%%                        %%%%%%%%%%%%",
"%%%%%%%%%%%%%%%%%%%%%%%%%%%%                        %%%%%%%%%%%%",
"%%%%%%%%%%%%%%%%%%%%%%%%%%%%%%%%%%%%%%%%%%%%%%%%%%%%%%%%%%%%%%%%",
"%%%%%%%%%%%%%%%%%%%%%%%%%%%%%%%%%%%%%%%%%%%%%%%%%%%%%%%%%%%%%%%%",
"%%%%%%%%%%%%%%%%%%%%%%%%%%%%%%%%%%%%%%%%%%%%%%%%%%%%%%%%%%%%%%%%",
"%%%%%%%%%%%%%%%%%%%%%%%%%%%%%%%%%%%%%%%%%%%%%%%%%%%%%%%%%%%%%%%%",
"%%%%%%%%%%%%%%%%%%%%%%%%%%%%%%%%%%%%%%%%%%%%%%%%%%%%%%%%%%%%%%%%",
"%%%%%%%%%%%%%%%%%%%%%%%%%%%%%%%%%%%%%%%%%%%%%%%%%%%%%%%%%%%%%%%%",
"%%%%%%%%%%%%%%%%%%%%%%%%%%%%%%%%%%%%%%%%%%%%%%%%%%%%%%%%%%%%%%%%",
"%%%%%%%%%%%%%%%%%%%%%%%%%%%%%%%%%%%%%%%%%%%%%%%%%%%%%%%%%%%%%%%%",
"%%%%%%%%%%%%%%%%%%%%%%%%%%%%%%%%%%%%%%%%%%%%%%%%%%%%%%%%%%%%%%%%",
"%%%%%%%%%%%%%%%%%%%%%%%%%%%%%%%%%%%%%%%%%%%%%%%%%%%%%%%%%%%%%%%%",
"%%%%%%%%%%%%%%%%%%%%%%%%%%%%%%%%%%%%%%%%%%%%%%%%%%%%%%%%%%%%%%%%",
"%%%%%%%%%%%%%%%%%%%%%%%%%%%%%%%%%%%%%%%%%%%%%%%%%%%%%%%%%%%%%%%%",
"%%%%%%%%%%%%%%%%%%%%%%%%%%%%%%%%%%%%%%%%%%%%%%%%%%%%%%%%%%%%%%%%",
"%%%%%%%%%%%%%%%%%%%%%%%%%%%%%%%%%%%%%%%%%%%%%%%%%%%%%%%%%%%%%%%%"
};
