/* XPM */
static char *_cf383ce135243cea62fe7e6ea6206fetwuKOJdB44ggEZpp[] = {
/* columns rows colors chars-per-pixel */
"64 64 133 2 ",
"   c None",
".  c black",
"X  c #14210B",
"o  c #1D2F10",
"O  c #294417",
"+  c #3B6121",
"@  c #950000",
"#  c #D50000",
"$  c #558B2F",
"%  c #90CAF9",
"&  c #91CBF9",
"*  c #92CBF9",
"=  c #93CBF9",
"-  c #94CCF9",
";  c #95CCF9",
":  c #96CDF9",
">  c #97CDF9",
",  c #98CEF9",
"<  c #99CEF9",
"1  c #9ACFF9",
"2  c #9BCFF9",
"3  c #9CCFF9",
"4  c #9CD0F9",
"5  c #9DD0F9",
"6  c #9ED1F9",
"7  c #9FD1F9",
"8  c #A0D1F9",
"9  c #A1D2F9",
"0  c #A2D2F9",
"q  c #A2D3FA",
"w  c #A3D3FA",
"e  c #A3D4FB",
"r  c #A4D4FB",
"t  c #A6D5FB",
"y  c #A7D5FB",
"u  c #A8D6FB",
"i  c #A9D6FB",
"p  c #AAD7FB",
"a  c #ABD7FB",
"s  c #ACD8FB",
"d  c #ADD8FB",
"f  c #AED8FB",
"g  c #AFD9FB",
"h  c #B0D9FB",
"j  c #B2DAFB",
"k  c #B3DBFB",
"l  c #B4DBFB",
"z  c #B5DBFB",
"x  c #B5DCFB",
"c  c #B6DCFB",
"v  c #B7DDFB",
"b  c #B8DDFB",
"n  c #B9DDFB",
"m  c #BADEFB",
"M  c #BBDEFB",
"N  c #BBDFFB",
"B  c #BCDFFB",
"V  c #BDDFFB",
"C  c #BEE0FB",
"Z  c #BFE0FB",
"A  c #C0E1FB",
"S  c #C1E1FB",
"D  c #C2E2FB",
"F  c #C3E2FB",
"G  c #C4E3FB",
"H  c #C5E3FB",
"J  c #C6E3FB",
"K  c #C7E3FB",
"L  c #C7E4FB",
"P  c #C7E4FC",
"I  c #C8E5FC",
"U  c #C8E5FD",
"Y  c #C9E6FD",
"T  c #CAE6FD",
"R  c #CBE6FD",
"E  c #CBE7FD",
"W  c #CCE7FD",
"Q  c #CDE7FD",
"!  c #CEE8FD",
"~  c #CFE8FD",
"^  c #D0E9FD",
"/  c #D1E9FD",
"(  c #D2EAFD",
")  c #D3EAFD",
"_  c #D4EAFD",
"`  c #D4EBFD",
"'  c #D5EBFD",
"]  c #D6ECFD",
"[  c #D7ECFD",
"{  c #D8ECFD",
"}  c #D9EDFD",
"|  c #DAEDFD",
" . c #DAEEFD",
".. c #DBEEFD",
"X. c #DCEEFD",
"o. c #DDEFFD",
"O. c #DEEFFD",
"+. c #DFF0FD",
"@. c #E0F0FD",
"#. c #E1F1FD",
"$. c #E2F1FD",
"%. c #E3F2FD",
"&. c #E4F2FD",
"*. c #E5F2FD",
"=. c #E6F3FD",
"-. c #E7F3FD",
";. c #E8F4FD",
":. c #E9F4FD",
">. c #EAF5FD",
",. c #EBF5FD",
"<. c #ECF5FD",
"1. c #ECF6FE",
"2. c #EDF6FE",
"3. c #EDF7FF",
"4. c #EEF7FF",
"5. c #EFF8FF",
"6. c AliceBlue",
"7. c #F1F8FF",
"8. c #F2F9FF",
"9. c #F3F9FF",
"0. c #F3FAFF",
"q. c #F4FAFF",
"w. c #F5FAFF",
"e. c #F6FBFF",
"r. c #F7FBFF",
"t. c #F8FCFF",
"y. c #F9FCFF",
"u. c #FAFDFF",
"i. c #FBFDFF",
"p. c #FCFEFF",
"a. c #FDFEFF",
"s. c #FEFEFF",
"d. c white",
/* pixels */
"% % % % % % % % % % % % % % % % % % % % % % % % % % % % % % % % % % % % % % % % % % % % % % % % % % % % % % % % % % % % % % * * ",
"% % % % % % % % % % % % % % % % % * * * * * * * * * % * * % * * * * * * * * * * % % ; % % ; - % % - % ; ; % % ; % ; ; ; ; % % - ",
"* % % * * * % % * * * * * * * * - % % - * * * * * * * * * - * - . . . . % - * * ; ; % ; ; - - - - - - - ; ; ; ; ; ; ; - - - - - ",
"* - * - - - - ; - - * - - - - - - - - . . . - - - - - - - . . # # # # # # . . . . . . . . - - , - , - , , - - , - , - - , - , , ",
"- , - , - , , - - , , - - - - , - . # # # # # . . . # # # @ @ # # # # # # # # # # # # # # . , , , , , , , , , , , , , , , , , , ",
", - , , , - , , , - , , , , , , , . # # # # # # # # # # # @ . # # # # # # # # # # # # # # . , , , , , 3 , , , 3 , 3 , 3 , 3 , 3 ",
", , , , , , , , , , , , , , , 4 , . # # # # # # # # # # . . # # # # # # # # # # # # # # # # . 3 3 3 3 3 3 3 3 3 4 3 3 3 3 3 4 3 ",
"4 , 4 , , 3 3 , , 3 3 3 3 3 4 , 3 . # # # # # # # # @ @ . @ # # # # # # # # # # # # # # @ @ . 4 4 4 4 4 4 4 4 4 4 4 4 4 4 4 8 4 ",
"3 4 4 4 4 4 4 4 3 4 4 4 4 4 4 4 4 . @ @ @ # @ @ @ # . # # # . @ @ # # # # # # @ @ @ @ . . # . 8 4 8 4 8 8 8 4 8 8 8 4 8 8 8 4 8 ",
"4 4 4 4 4 4 4 4 8 4 4 4 8 4 4 8 8 . . @ @ @ @ . . . # # # # # . . @ @ # # @ @ @ . . . # # # . 8 8 8 8 8 8 8 8 3 8 8 8 8 8 8 8 8 ",
"8 8 8 8 8 8 8 8 8 8 8 8 8 8 8 8 8 . # # # # # . . @ # # # # # # # . . . . . # # # # # # # # . 8 w e 8 r 8 r q y w w r r e r r r ",
"8 8 w 8 8 w 8 8 8 8 8 w w 8 8 w w . # # # # # # . . # # # # # # @ @ . # # # # # # # # # # . r q r w r r r r q y r r r r r r r r ",
"r r r r y q q q r r r r w w w u r . # # # # # # # # . @ # # # @ . # # # # # # # # # # # # . u u r r u r r u r u u u r u r u r u ",
"u r u r y y y y r u r u u w u u u . # # # # # # # # # # . # # . . # # # # # # # # # # # # u u u s u u u u u u a u u u u s u u u ",
"u u u r y y u u u u u u u u u u u u . # # # # # # # # # # @ # . # # # # # # # # # # # # # u u u u u a u u u u u u a u u u s f u ",
"u a u u a u u u u u u a u u u u u u . # # # # # # # # # # # . # # # # # # # # # # # # # . f a a f u f f s f f f f a s s s s f f ",
"u a s s u s u s u s u s u s s s u s . # # # # # # # # # # # # @ @ # # # # # # # # # # # . f f f f f f f a a h a f f f f f f f f ",
"f f s f s f s s f f f f f s f f f f f # # # # # # # # # # # # # . @ @ # # # # # # # # # . f f f f h f f h h h h h f f h f f g f ",
"f f f f f f f f f f f f f f f f f f h # # # # # # # # # # # # # # @ @ # # # # # # # # # f f f f h h f h h h h h h h h h f f g k ",
"f f h f h f f f h h h h f f h h f h h . # # # # . + $ . . # # # # . @ @ # # # # # # # # k k k k k h k k h h c h h x h x x k k k ",
"h h h h k k h k h h x h h h h h k k k x # # # # . + $ . $ . . # # # . @ # # # # # # # . k l l k x x x c c c c c c c c c x x x x ",
"x x x x k k k k k h x c x c x c x k x x # # # # . + $ . $ $ . # # # # @ # # # # # # # . l v v l x x x x c c c c c c c x x x x x ",
"x x x x x x x x c c c c x x c c x x x x # # # # . + $ . $ $ $ # # # # . # # # # # # . v v v v v x b b b x b b b c c b b b b b b ",
"b x x b x x x x c c c b x b b b x x b x . # # # . + + $ $ $ $ # # # # . # # # # # # . m v v m v b b b b b b b b b b b M b b b M ",
"b b b b b M b b b b b b b b b b b b b M . # . . . . + $ . $ $ # # # # . # # # # # # m m m m m m m m m v m v v C M M C M C C b C ",
"b M M b b M M M M M M M M b M M M . . . . . + + + + . $ . $ $ # # # # @ . . . . . . . Z Z m C m m C C C C C C C M M M M b C b C ",
"b C C b M M C M C M C M M D M M C M C $ $ $ $ $ $ $ + . + . $ . # # # + + + $ $ + $ $ $ . Z Z Z Z Z Z C C C Z Z D D M M C C C C ",
"C M C C M D M M M C M C M M D M M C M . $ $ $ $ $ $ $ + + + . . # . . + + $ $ $ $ $ $ $ $   Z Z Z Z Z Z Z Z Z Z D C D D D D C D ",
"C C M D M D M Z D M Z D M D D Z D D Z D . . . . . $ $ $ . . . . . . . . . . . . . . . . . F Z F Z Z F Z F Z F F D D D D D D D D ",
"D D D D D D D Z D D D D D D Z Z D D D D D D D . . $ O + o o o O O O O O + . F F F F F F F F F F F F G G G F F G D D D H D H G H ",
"D D D D D D D D D D D D D D H D D D D D D H D H H . X o O + + O O X X + .   L F G G G F F L F G L L L G L J J J H H H H H H H H ",
"D H H D H H H H H H H H H H H H H H H H H H H H H H H . $ $ $ $ $ $ $ $ J L L L L L L L L L L L L U H H U H L I U U U U U U U U ",
"J J J J J J K K J I K I J I L I K I K K K I K K L I I I $ $ $ $ $ $ $ $ U U U U U U U U U U U U U U U U U U U U U W U U W U U U ",
"U U U U U U U U I U I U I U I U I U U U I U U U I W U U . $ $ $ $ $ $ . U U U W U W W W U W W W U W W W W W W W W W W W W W W ! ",
"U U U W U W W U W U W U U W U U W U W W W W W W W W U W E $ $ $ $ $ $ . W W ! ! W W W W W W W W W W W W W W W W W W W W W W W W ",
"W ! W W W W W W W W W W W ! ! ! W W ~ W W W ~ W W W ! ! ! $ $ $ $ $ $ . ! ! ! ! ^ W ^ W ~ W ~ ~ W ~ ~ W ~ ~ ~ ~ W ~ ~ ~ ~ ~ ^ ^ ",
"! ! ! ! W ^ W W ^ ^ W ^ ! ! ! ! ^ ^ ~ ~ ~ ~ ~ ~ ~ ~ ~ ~ ! $ $ $ $ $ $ ^ ^ ^ ^ ^ ^ ^ ^ ^ ^ ^ ^ ^ ^ ^ ~ ~ ^ ' ~ ^ ^ ^ ^ ^ ' ~ ^ ^ ",
"^ ! W ^ ~ ~ ^ ~ ^ W ~ ~ ! ^ ^ ^ ^ ^ ^ ^ ~ ~ ^ ^ ^ ^ ^ ^ ^ $ $ $ $ $ $ ^ ^ ^ ^ ^ ^ ^ ^ ' ^ ^ ^ ^ ^ ' ' ^ ' ^ ' ^ ' ' ^ ' ^ ' ^ ' ",
"^ ~ ^ ^ ^ ' ^ ^ ^ ^ ^ ' ^ ` ` ^ ' ^ ^ ' ~ ' ' ~ ' ^ ' ^ ^ $ $ $ $ $ $ ' ' ^ ' ' ^ ' ' ^ ' ' ^ [ ' ' ^ ' ' ~ ' ' ' ^ ' ^ ' ' ' ' ",
"' ' ' ' ^ ' ' ' ' ' ' ^ ^ [ ^ ^ ' ^ ' ' _ _ ' _ ' ' ' ' [ $ $ $ $ $ $ ^ ' ' ' ' ' ' ' ' ' ' ` ` ' ' ' ' ' ' ' ' ' ' ' ' ' ' ' ' ",
"' ' ' ' ' ^ [ ` [ ^ [ ` [ ^ ` [ ' ' [ [ ' ' ' ' ` [ ` [ [ $ $ $ $ $ $ [ [ [ [ [ [ [ [ [ [ [ [ [ [ [ [ [ [ { [ [ { { { { { [ { { ",
"' ' [ { [ [ [ [ [ [ [ [ [ [ [ [ ' ' { { [ [ [ [ [ [ [ [ . $ $ $ $ $ $ { [ [ [ [ [ [ { [ [ ` [ [ [ [ [ [ { { { [ { { { { +.[ { { ",
"' { { { { { [ [ [ { [ [ { [ { [ { { { { { { { { +.[ [ +.. $ $ $ $ $ $ { { +.X.{ { { { { [ +.[ +.+.[  . .+. .{ +.X.{ +.{ [ +.+.+.",
"{ { { { +.{ { { +.{ { +.{ +.{ +.{ X.X.{ +.{ +.{ [ +.{ { . $ $ $ $ $ $ { { +.{ { +.+.{ +.+.{ +.{ [ +.[ +.[ +.X.{ X.X.{ +.+.{ +.{ ",
"+.{ { { { { +.{ { +.{ { +.{ { +.+.{ { +.{ { +.X.X.X.X.X.. $ $ $ $ $ $ . +.+.+.+.+.+.+.+.+.+.+.+.+.+.+.X.+.+.+.+.+.+.+.+.+.X.+.+.",
"+.+.+.+.+.+.+.+.+.+.+.+.+.+.+.+.+.+.+.+.+.+.+.+.@.@.@.+.. $ $ $ $ $ $ . +.+.@.@.+.+.@.@.+.+.@.@.+.+.+.+.+.+.+.+.+.@.@.@.+.+.+.+.",
"+.+.+.+.+.+.+.+.+.+.+.+.+.+.@.@.+.+.@.@.@.@.@.@.@.@.@.@.. $ $ $ $ $ $ . @.@.@.@.+.@.@.@.+.@.@.@.@.+.@.@.@.%.@.@.@.@.@.%.@.@.@.@.",
"+.+.@.@.@.@.+.+.@.%.@.@.@.+.@.@.@.@.@.%.@.%.@.@.@.&.@.&.@.$ $ $ $ $ $ . @.@.&.@.@.@.=.@.@.&.@.=.%.=.@.=.%.%.=.=.@.&.@.=.=.&.&.&.",
"@.@.@.%.&.@.&.@.&.@.&.@.&.&.@.&.@.&.@.&.&.&.&.&.@.&.&.&.&.$ $ $ $ $ $ . &.&.&.&.&.&.&.&.&.&.&.&.=.@.=.=.&.&.&.&.&.&.&.&.&.&.&.&.",
"&.&.@.=.&.&.&.&.&.&.&.&.&.&.&.&.&.&.=.&.&.&.&.&.&.&.&.&.&.. $ $ $ $ $ . =.=.=.&.&.:.&.&.=.=.=.=.=.=.=.=.&.&.>.&.&.:.&.:.:.:.:.:.",
"&.&.=.=.&.&.=.&.:.&.:.&.&.&.:.&.=.=.=.=.=.&.&.&.=.&.>.&.&.. $ $ $ $ $ . =.=.&.&.:.:.&.:.>.&.=.=.>.=.=.=.=.>.=.>.>.>.:.&.:.:.&.:.",
">.&.>.=.&.>.=.>.&.:.&.:.:.:.:.:.=.>.=.>.>.>.>.>.>.=.>.>.>.. $ $ $ $ $ $ >.>.>.>.:.:.:.:.>.>.>.>.>.>.>.>.>.>.>.>.>.>.>.>.>.>.>.>.",
">.:.>.>.&.>.>.>.>.>.>.>.>.>.>.>.>.>.>.>.>.>.>.<.>.<.>.<.>.. $ $ $ $ $ $ >.<.<.>.<.<.<.<.>.>.<.>.>.<.>.<.5.>.>.<.<.<.>.5.<.5.<.5.",
">.>.>.>.>.<.>.>.>.<.>.<.<.>.>.<.<.<.<.<.<.<.<.<.<.<.<.>.<.. $ $ $ $ $ $ <.<.5.5.<.<.5.5.5.5.5.<.5.<.<.5.5.5.5.5.5.5.5.5.<.7.<.5.",
"<.5.<.5.<.5.5.>.5.<.<.5.5.<.<.6.5.<.5.<.5.5.5.<.5.5.5.5.7.. $ $ $ $ $ $ 5.5.5.5.5.7.5.5.7.5.7.7.5.7.5.7.5.7.5.7.5.7.7.7.7.7.7.7.",
"<.7.5.5.7.5.5.5.5.7.5.5.5.5.5.7.5.5.5.5.5.7.7.7.7.7.5.7.7.. $ $ $ $ $ $ 7.7.7.7.7.7.7.7.7.7.7.7.7.7.7.7.7.7.7.7.7.7.0.7.0.7.7.7.",
"6.6.6.6.7.7.6.6.7.7.7.7.7.7.7.7.7.7.e.7.7.7.7.7.7.7.7.7.e.. $ $ $ $ $ $ 7.e.7.7.e.7.7.7.7.e.7.7.q.q.7.7.7.e.7.e.q.0.7.e.7.q.q.q.",
"6.e.6.6.e.7.7.e.e.7.e.7.7.e.e.q.7.7.7.e.7.e.7.7.q.7.e.7.e.. $ $ $ $ $ $ e.7.7.e.7.e.e.e.7.e.e.e.q.q.q.e.q.7.e.e.q.q.e.e.q.q.q.q.",
"e.e.6.e.e.7.e.7.e.e.7.e.e.7.e.e.e.e.e.e.e.e.e.e.q.q.e.e.e.. $ $ $ $ $ $ t.q.q.t.e.e.q.t.q.q.t.t.q.t.t.t.q.t.t.t.t.t.q.t.y.y.t.t.",
"w.w.e.e.e.e.e.y.e.7.q.t.e.e.e.e.e.e.e.t.e.e.e.e.q.t.y.e.e.. $ $ $ $ $ $ t.t.q.t.y.t.t.t.t.t.t.t.t.t.t.t.t.t.t.t.t.t.t.t.y.i.t.t.",
"e.y.y.y.t.t.t.t.t.t.t.t.q.t.t.t.t.i.t.t.t.t.t.i.t.t.t.i.i.. $ $ $ $ $ $ t.t.t.t.i.i.t.i.t.i.i.i.t.i.t.i.i.i.i.i.i.i.i.i.t.i.i.i.",
"y.y.y.y.i.i.t.t.i.i.i.i.t.i.i.t.i.i.i.i.i.i.i.i.i.i.i.i.i.. $ $ $ $ $ $ i.i.i.i.i.i.i.i.i.i.i.i.i.i.i.i.i.i.i.i.i.i.i.i.i.i.i.i.",
"i.i.y.y.i.i.i.i.i.i.i.i.i.i.i.i.i.i.i.i.i.i.i.i.i.i.i.i.i.. $ $ $ $ $ $ i.i.i.i.i.i.i.i.i.i.i.i.i.i.i.i.i.i.i.i.i.i.i.i.i.i.i.i.",
"i.i.i.i.i.i.i.i.i.i.i.i.i.i.i.i.i.i.i.i.i.i.i.i.i.i.i.i.i.. $ $ $ $ $ $ i.i.i.i.i.i.i.i.i.i.i.i.i.i.i.i.i.i.i.i.i.i.i.i.i.i.i.i."
};
