/* XPM */
static char *_7457de284d04dcac724742af24a38c9OPB5lWPiNIywVMbU[] = {
/* columns rows colors chars-per-pixel */
"64 64 256 2 ",
"   c #3C0B02",
".  c #3B1503",
"X  c #470D06",
"o  c #471409",
"O  c #541309",
"+  c #4C1A13",
"@  c #591B17",
"#  c #670B00",
"$  c #6A1A05",
"%  c #751D0E",
"&  c #631A1C",
"*  c #691A18",
"=  c #761D18",
"-  c #4E2313",
";  c #58261A",
":  c #6A2910",
">  c #64221D",
",  c #6B281A",
"<  c #73231D",
"1  c #78251A",
"2  c #753818",
"3  c #5D1920",
"4  c #671E22",
"5  c #582B23",
"6  c #642222",
"7  c #6C2523",
"8  c #672A27",
"9  c #6E2926",
"0  c #6C2C2A",
"q  c #732523",
"w  c #7C2726",
"e  c #722B25",
"r  c #732B2B",
"t  c #7C2C2B",
"y  c #69362A",
"u  c #6A322C",
"i  c #773627",
"p  c #74332B",
"a  c #7B322B",
"s  c #752C33",
"d  c #6A3833",
"f  c #7C3332",
"g  c #753834",
"h  c #73442C",
"j  c #794338",
"k  c #7B4D42",
"l  c #7B5549",
"z  c #81231C",
"x  c #832919",
"c  c #883619",
"v  c #8A1E2B",
"b  c #832523",
"n  c #842B25",
"m  c #8A2B25",
"M  c #862629",
"N  c #842C2B",
"B  c #8A2D2C",
"V  c #932B2A",
"C  c #883627",
"Z  c #83322C",
"A  c #8C332D",
"S  c #96372B",
"D  c #94332D",
"F  c #852C32",
"G  c #8B2E31",
"H  c #8A2839",
"J  c #942E33",
"K  c #843432",
"L  c #8D3333",
"P  c #8D3933",
"I  c #883837",
"U  c #923534",
"Y  c #9A3433",
"T  c #943A35",
"R  c #9A3A35",
"E  c #953539",
"W  c #9B363A",
"Q  c #943C3B",
"!  c #9C3A3A",
"~  c #A23A2B",
"^  c #A33B3A",
"/  c #954B1D",
"(  c #88442A",
")  c #97442A",
"_  c #884435",
"`  c #954737",
"'  c #9B4333",
"]  c #95433B",
"[  c #9C433C",
"{  c #9B4B3B",
"}  c #915533",
"|  c #9A543C",
" . c #AA4B2C",
".. c #A94A33",
"X. c #AF4F31",
"o. c #A3443C",
"O. c #AB463D",
"+. c #A3493D",
"@. c #A94B3C",
"#. c #AA5539",
"$. c #B45639",
"%. c #B06436",
"&. c #B8663C",
"*. c #C46939",
"=. c #C6713E",
"-. c #993C42",
";. c #A43F45",
":. c #874B45",
">. c #9D4442",
",. c #994944",
"<. c #845241",
"1. c #9A5644",
"2. c #A24643",
"3. c #A34A43",
"4. c #A64946",
"5. c #AB4C42",
"6. c #AC4C49",
"7. c #B34C48",
"8. c #A45344",
"9. c #AC5443",
"0. c #A6544B",
"q. c #AB534A",
"w. c #A85948",
"e. c #B35444",
"r. c #B95746",
"t. c #B45944",
"y. c #B2544C",
"u. c #B55B4B",
"i. c #BC5C4C",
"p. c #AC5652",
"a. c #BC5D53",
"s. c #B85B55",
"d. c #977555",
"f. c #A8664A",
"g. c #B86747",
"h. c #AB724A",
"j. c #BB7449",
"k. c #AA6D53",
"l. c #BC6354",
"z. c #BD6A54",
"x. c #AC7C54",
"c. c #BA7958",
"v. c #957B66",
"b. c #AB7763",
"n. c #C25C4C",
"m. c #C25F55",
"M. c #C66B48",
"N. c #D16B4B",
"B. c #C8764A",
"V. c #D47C4B",
"C. c #C56959",
"Z. c #C87657",
"A. c #D37B53",
"S. c #D87A57",
"D. c #C86962",
"F. c #D46962",
"G. c #CD7764",
"H. c #D27966",
"J. c #A7825B",
"K. c #BC8559",
"L. c #BC9357",
"P. c #978468",
"I. c #9B846C",
"U. c #91886F",
"Y. c #9B8A6C",
"T. c #9C8572",
"R. c #958874",
"E. c #9C8A72",
"W. c #A58867",
"Q. c #BA8A65",
"!. c #B6936B",
"~. c #A68C72",
"^. c #A39477",
"/. c #AF9171",
"(. c #AB9374",
"). c #AD957B",
"_. c #AD9A7C",
"`. c #B89777",
"'. c #B3957D",
"]. c #B3997C",
"[. c #B5A27B",
"{. c #D6884A",
"}. c #C88457",
"|. c #C78D56",
" X c #D68659",
".X c #D69559",
"XX c #E68E5A",
"oX c #D1A25B",
"OX c #C88863",
"+X c #D78866",
"@X c #DB8C63",
"#X c #C59669",
"$X c #D89668",
"%X c #D58B74",
"&X c #C69A77",
"*X c #D99875",
"=X c #E48A65",
"-X c #E59869",
";X c #E69974",
":X c #F09379",
">X c #CFA86A",
",X c #CAA478",
"<X c #D8A778",
"1X c #E7A86A",
"2X c #EAAA76",
"3X c #F5A97A",
"4X c #F3B379",
"5X c #AA9883",
"6X c #AD9B81",
"7X c #B39B83",
"8X c #B79885",
"9X c #B6948C",
"0X c #B7A588",
"qX c #BCAB8C",
"wX c #BAB38D",
"eX c #BBAD93",
"rX c #C69A86",
"tX c #C29790",
"yX c #C6A788",
"uX c #C4AC8C",
"iX c #CBAC8C",
"pX c #D3AB8C",
"aX c #D8A98A",
"sX c #C4B189",
"dX c #CBB28E",
"fX c #D6B489",
"gX c #C4AE93",
"hX c #CCAC92",
"jX c #CDA698",
"kX c #D5AB96",
"lX c #D4AB9A",
"zX c #C4B293",
"xX c #CBB393",
"cX c #CAB799",
"vX c #CDBC9B",
"bX c #D2B493",
"nX c #D9B799",
"mX c #D2BA9B",
"MX c #EEAB8B",
"NX c #E7B48A",
"BX c #F5B687",
"VX c #E6B99A",
"CX c #F5BB9A",
"ZX c #CFB4A1",
"AX c #D5BBA2",
"SX c #E7BAAA",
"DX c #CDC29B",
"FX c #D8C19B",
"GX c #E9C49D",
"HX c #FBCB9D",
"JX c #D8C3A5",
"KX c #D4C8AE",
"LX c #E8C7A6",
"PX c #F3CFB0",
"IX c #F8E3B5",
"UX c #FCDEC1",
/* pixels */
"JXAXKX'.~.7X6X).5X6X5X7XqXqX0XxXKX0XuX0X_.^.).).eX).(.6X~._.'.8X].8X`.).5XP.v.].ZXFXJXJX^.Y.P.).'.).7XE.~.8X).7X].).7X6XY.~.v.JX",
"h.h.c.c.!.kXiX<X&X#X#X#XQ.Q.!.JXsXcXnX#X,X,X,X#X*XzXLX|.K.c.k.kXxXQ.#XQ.OXOX}.x.OXh.h.x.#XQ.OXx.cXcXbXOXK.h.b.xXxXbXpXK.c.Q.k.h.",
"H.+X=X+X=XMXaX;X-X@X@X$X.X+X}.nXFXGXHX.X;X;X1X X;XSXUXS.+XS.z.`.fXc. X=XXX=X@XS.=XB. X X:X=X=X+XSXSXCX=XS.V.c.iXyXfXNXS.S.B.A.A.",
";.l.a.E a.i.r.Z.Z.D.Z.G.Z.Z.%.<XAX<XBXz.Z.C.C.G.C.V E 6.l.t.+.HX>Xj.S.i.n.y.i.u.i.m.n.y.F C.D.H -.o.^ ! l.n. .1XiX$X3X$.a.a.i.a.",
"T [ 2.! T E E P E E W ! r.i.i.e.pXf.k.G.4.4...Z.m 2.6.E E a.+.LXw.C.H.D ^ L U E E Q E W ! A E ! i.B ! W ! C.l.9.pX` 7.i.4.Q W R ",
"! R T 2.R Q E E P T Q Q n m R i.iX1.#.i.8.3.{ { P ! Q L P D 1 LX9.' 2.U ! +.3.E E P T Q ,.T E T m A U 2.Q x S t.aX| @.S A E P E ",
"W W ^ 0.-.-.T ! ! W R W E T R i.xX8.a.C.6.7.7.5.! W R Y E ! < nXf.Y 6.E ^ 3.3.Q E W W R 4.^ ! ! ! ^ W 2.^ ^ A y.pX{ C.W W W ! ! ",
"T R E s u ,.R Y T Y R Y T D ] +.sX( ,.A D E E S W R E R R R $ LX1.( ] U D D Y E Y T R R Y Q E T R D Y S Y V P 1.nX_ 3.E R Y R R ",
"r 9 9 8 d 8 r p r r q q r 0 - ].zX'.lX6 s r u t r 9 r r 0 f X uX`.`.ZXr _ u d d 0 s 9 s s g s s r g s s r r - ].gX5XlXt d r r r ",
"6X~.P.R.5XP.Y.v.7XT.T.5X7XlXmX0XzX(.7X8X7X~.P._.7X5X^.Y.R.xXxXqXvXwXAX8XwX(.5X5XT.T.T.5X0X5X7XR.T.(.].].7X8X].xXuXiXwX8XT.I.I.7X",
"rX/.x.W.`.W.P.U.^.P.P.&X!.fXnXfXaX#X!.!.`.J.J.^.^.E.Y.J.J.uXiXNX<XfXfX`.0X(.`.[.W.J.W.`.,X`.W.P.P.E./.&X&X`.,XnXNXGXnX).W.W.`.rX",
"&.*.%.V.A.*.%.,XiX`.&Xj.{.V.XX=.{.&.&.V.}.g.f.qXpXiX2X{.{.fXBX{.{.{.XX-X&X}.S.B.V.A.V.V.V.OXK.dXxXhXBX*.*.&.M.*.*.M.%.!.M.*.*.*.",
"x w 1 R S n $ #XxX.X1XX.$.X.$.X.X.$.u.S *. ./ .XsXL.2Xw m e.e.V ..X.X.@.B Z N n X.$.$.$...z $ |.xXL.-Xc B m m m C Z N t D R S B ",
"N T E B n F x / ZX/ ..b b z z b = m T z z z x c vX2 S K R n = F = z 1 = L [ W o.V z z z z D.#.c nX2 ' F F ! E N B M B G m w w n ",
"b L E B M G b { iXO.6.F N N v N N L E N z M M @.uX( @.A W B B m V B B b M R R T R n w n b a.e.` iXi 5.M z 2.! B M B B N B b b b ",
"A N B A M F x 8.xX..3.B G B B L n N M w M M x 8.sXK 7.C M N b D Y V B M R N b T +.T ' [ m w z ` iXZ 9.M R * w B G B B N >.G Z B ",
"M M B B m N A ` xX_ +.M t n x [ ! ! [ A n B m ] iX2 ! N B w q q < F H F w E T R U ' R T [ [ S | iX: o.G 9 6 < N M H F t G V M b ",
"@ & & & & &   qXzXyXkX@ & & O e i 1 f t r @ X lXuX`.SX* & & @ 6 s u g u ; i i 9 8 :.:., 1 t ; nXJXJXPX4 @ j u & & @ * @ * & @ & ",
"o X     . .   /.dX/.jX  o . X @ + - - - -     W.bX(.qXo X X X X ; ; 5 - X 6 ; @ @ h y - ; : o [.bX0XnX  . - - . X X X X o X o o ",
"E.Y.^.W.R.R.v.cXwX,XDXU.P.xXwXwXwXqXyX,X].U.v.eXuXpXmXR.U.R.Y.T.5X_.5X5XP.].].7X_.wXwX[.(.5XR.DXvXcXKX5X6XeXeX0XR.R.U.Y.R.W.I.E.",
"gXuXMXS.B.V.B.V.A.Z.f.aXZ.@XL.nXAXyXNX}.-X1XXX1X1X@X$XqXhX.X.X-X1X.X$XiX.X1XNX`.qX0X&X*X1X1X1X1X1X1X2X1X4X2X2X2X2XyX<X.X X1X<X<X",
"sX,X2X$.t.$.t.$.$.$.#.| B.Z.h.pXmX&X1X#.X.#.#.X.#.X.#.1.6  .$.x  . .#.j  .#.} >X0XfXNX( }.g.&.h.h.g.g.g.&.&.g.&.&.1.8.X.$.) } >X",
"iX<XBXm.C.i.C.C.C.C.a.D.H.H.Z.BXmX<XBXl.n.i.g.n.i.C.F.C.T a.C.-.F.C.F.[ #.l.#.3X0XBXHX' %XC.Z.G.Z.Z.G.Z.c.H.H.H.G.$.n.n.i.M. .2X",
"uX` a.E ! a.a.T I -.-.F 4.0.[ z.AX) 9.g.i.t.e.#.9.< t T T E T T E D m t.M.) 2.y.zXc.C.u.9.G.H.@.C.j.H.8.Z.w.l.{ 8.g.M.t.l.i.l.9.",
"sX} s.E J o.^ W ^ S R T +.1.o.Z.qX( s.T W Y W ^ J B G W E E ! N Q W 2.Y ^ I n $.dXw.i.T -.3.q.Q ] e.p.6.5.5.r.q.3.U V r.r.Y A t.",
"pX_ y.Y B = = = * y.7.q.5.5.o.f.dX( 7.T = q = q G U U E E S Y Q t = 7 = < E V 1.uX| q.R R T A ` +.7.4.9 1 < < w A -.m m c Y C +.",
"sXh ,.E A * 6 6 6 0.5.O.8.9.,.1.dXh 4.I 9 8 8 0 -.! ! ! ! ! W -.q 9 9 9 0 ,.U _ uX_ 3.W W W Y W 7.p.z.g u y u s :.E ^ W W ^ V ` ",
"qX(.kX<.j g h k l j _ j j j 5 ^.iX^.AXg 5 k d u u u u u d 0 0 u u 0 6 f u u - (.pX'.lX0 r u u u y p u 5 k k k <.d 5 0 d 0 8 + `.",
"bXiXxXmX6X].^.vXvXmXmXmX_.].).vXuXxXnXW.I.8X'.5XP.6X5X7X~.T.W.5Xv.T.~.5XP.0X'.hXsXsXxX'.'.'.6X7XI.E.E.I.~.E.E.5X8XI.T.Y.6X'.).sX",
"A.V.c.iXZ.$X%XnXnXmXGXK.{.V.{.V.V.V.N.{.M.M.#.aXkXv.OXM.M.M.k.&Xg.*.*.*.*.M.&.S.S.A. XM.rXK.Q.yXhXlXaXS.A.*.*.*.V.pXMXM. X*.*.V.",
"$X+X#XVX{.3XaXLXvXPXHX+X X+X X@X X@X X+XB.Z.h.VXwX^.OXZ.c.B.j.nXZ.B.M.S.Z.A.V.=X=X$X-XZ.VX}.OXCXxXVXPX;X*XM.N.Z.;XlXVXC.@XZ.Z.=X",
"H ;.;.! 3.! S g.JXa.m.I 6.) ' { ) ' ' T R -.^ O.pXc 7.F V n L v J t.g.m m B Z K N V n z m y.5.{ hXC 7.V E [ P n n r.5.0.B N N N ",
"L P A K Z B a 1.vX@.w.n ! Z N 9.+.5.4.T ( K n f.nX( 5.F n m B r R T P T Q ] ' C 5...5.5.P [ ~ w.bX} l.` L < w L L U L G L L G L ",
"[ ] ] ] T T n ` xX] 5.1 9.+.] a e , , ] ' ` R #.FXi O.+.T R R R 6.@.5.5.@.5.6.5.3.1 , , P A z ( yX: P m 1 r r t N e e t K K K N ",
">.>.>.3.4.-.f h mXg ,.,.q.0.0._ a p i ] 2.,.` } vXh P 6.! T ] ` w.w.w.0.0.8.8.8.w.8 , 9 ,.F 7 ; sXO a I f s f K K r f I I I I f ",
"6 6 7 8 8 5 . gXvX].ZX; p t p d u 1.:.a e ; o /.JX0XLXj p f a * f s f f p a a p p :.:.u > 6   '.yX~.jX> 7 4 @ 7 7 6 6 > 0 6 6 6 ",
"^.^.E.6X_.0X7XvXbXnXKX~._._.6X5XqXeX0XeX6XT.v.yXnXd.R.7XqX(.(.wXqXuXqX).].)._._.6X6X_.qX_.eXzXmXxXbXiX8XE.Y.v.6X7X0X0X0X^.^.^.5X",
"c.%X`.pXc.Z.j.|.|.}.$X+X#X$X,XIXUXUXPXx.*Xh.j.K.K.M.}.}.}.x.f.JXv.~.!.K.L.$X&XVX}.|.}.$X|.*X.X@X{.mXnX&XZ.#X`.IXPXPXSX+X%X$X$Xh.",
"=XMX*XVXH.OXH.%X*X;X*XG.@X:X$XUXKXPXIX X3XZ.Z.=X+X+X}.-X@XS.z.PXd.!.<X:X:XMX*XHX}.+XOX;X*X*X*X*X%XVXGX1XZ.=X}.HXPXLXPX=X*X;X*XS.",
"Q D.f.g.g.g.g.g.g.g.g.j.k.B.%.<XIX>XBXz.r.$.r.n.$.t.r.y.u.A < GX.XoX2XZ ,.Z.C.c.Z.C.M.z.M.Z.M.Z.g.z.M.D.p.s. .oXFXoX1X$.i.$.9.y.",
"G J Z L C.x P -.L 4.>.3.+.G.Z.k.JX1.z.3.E I K L 6.r.C.P P B 1 bX9...q.Y L -.^ 2.R L E >.2.i.m.T 2.2.2.+.D A D 6.fX) u.I A e.C.V ",
"E E Q t T L L f ] ,.3.2.! +.S C.DX1.Z.K t N N E n T T B G Y = pX9.8.w.P I M Z n 6 E E U L A U U B A B 2.3.[ T 9.pX( q.P I L B U ",
"L U T N U P E K P 3.3.+.] +.` l.DX| C.K M t w A Q L E G G U , aX8.e.y.A L w Z t 6 -.N L G L E L T U A 3.3.[ R #.pX) t.G Q N A L ",
"G L L L U U L L A >.4.4.3.O.{ z.mX1.l.,.G L G B E L E L L E < aX| @.y.U E U K F t r = U U E L L L U L A E L m +.kX` u.U E L E L ",
"7 7 r 9 9 9 9 q 7 & e q f L ; rXJX7XLXg K K f f 4 9 9 9 7 9 O yX[.].gX8 7 7 r 6 yX7XSX8 q q 9 9 e q q 9 r q X `.yX/.nX8 9 r 9 r ",
"lXkXlXlXjXlXjXjXrXlXlX9XjXhX`.bXyXAXLXlXJXlXjXSXSXSXSXjX9XrXW.dXbXbXPXhX8X8X`.9XW.~.uXxXrX9XrXrXlXkXjXtXjXlX8XAXiXyXJXhXtX`.&XkX",
"&X&X&X&X#X!.!.^.P.^.].J.&X`.!.bXfXGXLX[.,X!.!.0X0XwXsX#XW.W.d.FXfXfXnX`.~.W.b.v.`.!.`.`.~.x.J.P.~.^.rXK.#X`.!.FXfX0XnX#XW.J.b.rX",
"j.B.B.j.N.S.}.kXxX<XCXZ.M.=.M.{.}.=X&XnX;X Xc.FXmXiXBXN.N. XV.B.B.V.=.=. XB.}.{.B.M.B.M.B.N.h.iXiXbXNXM.N.B.=. X XnXCXN.N.B.&.j.",
"G G G U C L : oXgXoXBXL P K Z [ 2.+.8.E { ,.c >XFX,XGX$.e.D U E E l.r.r.r.V D $.Y L L L L L : oXiXoXMXC A ,.` w.` Z L F K L U G ",
"B 2.;.U E L z ) cXS 9.R L o.! B >.2.0.] { 3.) #.DX2 c $.m A N ^ T L n z n.m N m E U A >.>.T % ( iX2 +.D L 4.[ [ w.s.s.G 6.n G G ",
"U 2.>.L L L m | yXO.e.E U 2.+.U 3.0.6.3.[ 3.' g.DXh  .e.T E I >.E L V B C.R A A N A B R [ G x #.yX( a.E L 0.,.{ y.s.q.A [ m B A ",
"A L L Q G L A 8.sXr.u.A G Q Q L E Q L N [ >.R z.mX| C.a.F G K 7 L T E B ! Q T 2.u.[ [ +.+.J D 8.mX1.G.L T T Q 2.+.8.3.+.3.3.2.U ",
"[ L Q t P L T | iXO.6.Y B * & t N U T V A U m u.FX} D.L t w r u F L D I 9 p.o.5...o.O.O.O.O.o.w.mX} s.6.] 5.5.O.O._ ' @.O.+.3.o.",
"a K K K K f , `.uXyXSX; q g g q > & 6 6 4 & X yXwX_.VX9 6 4 ; d > 6 6 6 d I n a N i a a 2 > X yXhX`.VX* K :.j :.a p a a a a t Z ",
"; ; ; ; 8 8 + ].iX/.8XX + - ; o + O + O + @   ~.hX'.rXO o o o ; + + O + + 5 y ; ; ; u 8 8 + o _.yX~.8Xo u d h y > ; ; : ; ; ; ; ",
"qX7X_.`._.wXwXDXDXmXJXwX_.'.'.9X).Y.E.P.Y.(.(.uXiXiXxX0XY.I.I.5X)._.(.]._.xXiX6X7XwXsXY.Y.7X/.sXpXkXbX].v.7X6X)._._.(.0XwX]._.qX",
"vXvXGX$XZ.$X#X$X$X}.}.B.}.}.J.sXhXhXCXOXj.M.&. X&.+X XS.}.%.M.g.g.g.g. X$X#X&XDXmXAXCXOXg.j.f.qXc.}. Xh.0XQ.A.}.}.&.g.}.Z.#X#XmX",
"vX>X4Xm C M.j.x $.&.$.&. .# X .XgX|.2X$ .... ...z : = % =  . ...X. . .) 1 M./ $XvX>XBX$ $. ...R = X.@.% * % = % $ 1 % % % c $ oX",
"ZX,XBX-.+.C.C.R Z.Z.D.C.e.m % 3XgX}.MX< y.u.t.y.V B n z J u.r.a.i.n.r.e.T C.B.3XmXBXCXN m.y.r.m.b y.l.M w B B B N w N G B E ) 4X",
"bX} l.Q Q { R +.T [ [ T T m b ~ zXC 6.N V R ' B N M z q.n G L N A y.n.! [ Y ' g.bXk.D.A B U T A L B G N N T U m t B B N L M b +.",
"xXK @.F A 2.R 5.O.R ' T ] ) ! n.DXC 9.A ^ W W Y W 7.6.A R A N B B m b N M 7.D $.AX{ 6.V R Y Q w U M M B N V B B M B B N B L b o.",
"iX2 ^ ~ Y Y T m o...O.o.O.+.5.| DX1.e.q.< 4 = w b y.O.O.3.5.@.O.Y J D U Y Y D R sX) D S D = N N Y D Y Y U Y Y J Y D Y J Y V ^ ' ",
"iXy I 3.Q Q K t w.q.w.q.q.0.{ h JXj w.l.& 6 6 9 7 1.a.p.p.p.q.0.Q W Q >.Q Q 1 i uXy I ] ! K f 4 ,.-.! Q ] -.>.Q ! -.Q >.] -.P i ",
"dX^.lX6 6 6 ; u p a p a a p - uXAX0XAXa g :.k k k u a > 6 8 , s 6 6 4 6 6 6 . _.hX].kX6 6 & 3 d 6 6 6 6 6 6 3 6 6 6 4 6 6 >   ]."
};
