/* XPM */
static char *f36c9b1d649d4bace1933fb93f35814fHnhsxPoWjZ89wh84[] = {
/* columns rows colors chars-per-pixel */
"64 64 71 1 ",
"  c black",
". c #12041A",
"X c #12041E",
"o c #13051F",
"O c #130521",
"+ c #140521",
"@ c #150624",
"# c #150826",
"$ c #140629",
"% c #14082F",
"& c #150730",
"* c #160937",
"= c #140A36",
"- c #140A3B",
"; c #170A3E",
": c #180C45",
"> c #1A0E4B",
", c #151844",
"< c #18144F",
"1 c #171453",
"2 c #1C1152",
"3 c #121559",
"4 c #181C59",
"5 c #250F4B",
"6 c #28104D",
"7 c #271259",
"8 c #171C61",
"9 c #161C69",
"0 c #171F73",
"q c #241561",
"w c #1E2365",
"e c #182467",
"r c #1A216B",
"t c #192C6E",
"y c #1E366B",
"u c #1E2675",
"i c #1B237A",
"p c #193A7A",
"a c #203979",
"s c #1C4369",
"d c #1D4470",
"f c #1F477E",
"g c #1F3F8F",
"h c #203683",
"j c #1A4285",
"k c #194987",
"l c #1F4F8C",
"z c #1C589C",
"x c #20498D",
"c c #234691",
"v c #225FA4",
"b c #2B6CA5",
"n c #2866AD",
"m c #2774B2",
"M c #2F7CB8",
"N c #3572B7",
"B c #2783B8",
"V c #2F8BBE",
"C c #3797C3",
"Z c #3793C4",
"A c #36A5C8",
"S c #46C8D9",
"D c #74D4E0",
"F c #9BCBE1",
"G c #8BDCE7",
"H c #A2E1E8",
"J c #B9E9EE",
"K c #D0F0F3",
"L c #D0F1F5",
"P c #E7F8FA",
"I c white",
/* pixels */
"$$$::::8888:a:t:::::88888:::::::::$$$$$$$$$$$$:$$$..............",
"$$:::88888:::::::::f88::::::::::::$$$$$$$:::::::n$$.............",
"$::e88::8:::::::::::8::::::::::::$$$$$$:::::::::::$.............",
"$a1881::::::::*$$d:: ::::**$-::*$$$$$$:::::::::a::$.............",
"$$::888:::t:*$$$B$:::t:::$$$$$$$$$$$$$$$:$$$$$:::$$.............",
"$::::888:B:::$$$n$:::n::$$$$$$$$$$$$$$$$$$$$$$$$$$$.............",
":::8::88888::$$$$$::t:t$$t$$$$$$$$$$$$.......$$$$$$.............",
"::888:88888:::$$$$$$:$$$$$$$5$$...$.............................",
"8:888888888:a:$$$$$$$$$$$$$$$$$..........................B......",
"888:::888:::::::$$$$$$$$$$$$$$..................................",
"888:::::::::7:::$$$$$$:$:-$$$..............................B....",
"888:::::::::::::::$$$$$:$:$............................t........",
"18::::::::>*$*:::::$$$*Gy4&.......,.............................",
"t::::::::t:t:$$::::$$-:t..................................t.....",
"::::$$$:2::::$$::::$$$.::.....................................$$",
":n::$$$$::::q:$:::$$$...........$$$$......####................$$",
"::t:$$$$$::q2:$$:$$$$..:.......%$$$$.....###-:#@..............$$",
":::*$$$$$$$$:t$$$$$$$..........#$.......#:#:w::+#.............$$",
":::*$$$$$$$$$$$:::$y...................###t:xt::#.............$$",
"::a$$$$$O...+$:::::+.......#####X+.....#*:4nFt4:##.........$+$$$",
":::*$$$.......:::::.....###:*$:###6+...##:tnInt::#........$$$$$$",
"::::n$$........:::....#@:$:$::::#:###..#::ttNt::#.........$$d$$$",
"$:::$$$....:......t..##:$::::::::::-#####::tl::##...........$$$$",
"$$:*$$$.............#$::::t:4t:t:t:::$####::::##............$$$:",
"$$$$$$$............#@::t:tttttttt:t4::$#####*##............$$$::",
"$$$$$$$$..........##::::ttznxtBtktk4:::##..##............$$$$:::",
"$t$$$$$...........#-:::tztnnmnZnnntt::::##..........:...$$$$::::",
"$$$$t$$..........##*::tttBnSKHLHZnBtt::$:#..............$$$$::::",
".$$$$$O..........#*;44txnAJPIIIIKDnxt4::-#..X$$$$$$.....$$$$::::",
"..$$.............#:::kttZHIIIIIIIISxtt::==#.$$$$$$$$.....$$$-:::",
"................##$:tttnSIIIIIIIIILnttt::**$$$$$$:$$......$$$:::",
"................##:::tnnLIIIIIIIIIHnBt::**$$$$$$:::*$.....$$$:::",
"................@@$:tttBHIIIIIIIIIInttt::==$$$$$::::$....$$$$$::",
"................@O:::tnnSLIIIIIIIIHVnt::==$$*:::t:::$...$$$$$:::",
"...,t............@$:tttBZLIIIIIIIHSnttt::==$::::::::$$$$$$$:::::",
".................@*-:4jvnSKIIIIPPKMvt4:-=%$$::4::::%$$$$5$::::::",
".......t.........@@-:tttZBSHIIIISntltk::==$$:::::::$$$$$$:::::::",
"...s.....:........O*::tztnBBSSSnnzntt::*=$$$::::::$$$$$$$:::::88",
"..............:...@*$::tttntnZnnttt4::**$$$$::::::$$$$$$:::::888",
".............:.....@:$::ttztpttttt:4:=:==$$:::n:::$$$$$:::::8888",
"+...................@:$::t:tttt:t:t:=:==$$:::::::::$$$:::Bt:8888",
"+........:..........@@:$::::4t:::::-===$$$:::::::::::::::::88888",
"+++.....$....$:$.....@@$=:=::::::=:*$=$$$:::3::::::::8::88888888",
"+++.........*t:$.......@===*=:====$%$$$$$:339i8::::::::888888888",
"+++........$xZ:........+$%%%%%&&%$$$$$$$*:33iii8:::::p:88888b888",
"+++........:nt:........$$$$$$$$$$$t$$$$$::33iii8:::4t::888888888",
"+++.......$:*$......$$$$$$$$$$$$$$$$$:::::3iii88:::f:8:888888888",
"+++++......$........$$$$$$$$$$t$$$$$$:::::88i88:::::8:8888888888",
"+++++++............$$$$$$$$$d$:::$$$::::::888n8:8848888888888888",
"++++++++...........O$$$t$$$$@:::::$$::::::88888u8guu888888888888",
"+++++++++...........$$$$$$$t::::::$$$:::::888888ucuuu88488888888",
"+++++++++............$$$$$::1::::*$$-::::1888888cuuhu8lc88888888",
"+++++++++......t.....$$$$::::::::::*:::::::888888uuuu8888888::t:",
"+++++++++............$$$$$::::::::::::::8:88888888u9888800888:::",
"+++++++++.t...........$$$$:::::::8::t::888:888888888888000008:::",
"++++++++++.............$$$$$::::884:M:88888888888888880000001:::",
"++++++++++++++..........$$t$::::888:::88888888888888880008881:::",
"++++++t++++++++.........$$$$::::888888888888888888::::8888881:::",
"+++++++++++++++........$$$$$::::88888888888888888:::::888888:::$",
"+++++++++++++++....X...$$$$$::::88n88888888888888::::::8888:::$$",
"++++++++++++++++OO$$$$$$$$$::::88888g88888888888::-$::::-$$$$$$$",
"++++++++++++++++O$$$$$$$$::::::8888848888888888::$$$$::$@$$$$$$$",
"++++++++++++++++O$$$$$$$:::::::88888888888888::::$$$$$$$$$$$$$$$",
"++++++++++:+++++OO$$$$$$:::::::8888888888:::::::$$$$$$$$$$$$$$$$"
};
