/* XPM */
static char *_540bb53498348f9917bf173dd9b95ddwKZkWueFUIMUlSWH[] = {
/* columns rows colors chars-per-pixel */
"64 64 2 1 ",
"  c #0C6624",
". c #3F48CC",
/* pixels */
"             ........                        ........           ",
"           ..........                        ........           ",
"          ...........                        .........          ",
"         ...........                         ...........        ",
"        ............                         ............       ",
"      .............                           .............     ",
"    ..............                             .............    ",
".................                               ..............  ",
"................                                 .............. ",
"..............                                     .............",
".............                                       ............",
"...........                                           ..........",
".........                                              .........",
".....                                                    .......",
"                                                          ......",
"                                                            ....",
"                                                            ....",
"                                                            ....",
"                                                                ",
"                                                                ",
"                                                                ",
"                                                                ",
"                                                                ",
"                                                                ",
"                                                                ",
"                                                                ",
"                                                                ",
"                                                                ",
"                                                                ",
"                                                                ",
"                                                                ",
"                                                                ",
"                                                                ",
"                                                                ",
"                                                                ",
"                                                                ",
"                                                                ",
"                                                                ",
"                                                                ",
"                                                                ",
"                                                                ",
"                                                                ",
"                                                                ",
"                                                                ",
"                                                                ",
"                                                                ",
"                                                                ",
"                                                                ",
".......                                                         ",
"........                                                    ....",
"..........                                                 .....",
"............                                              ......",
"..............                                        ..........",
"................                                     ...........",
" .................                                ..............",
"   ................                              ...............",
"     ...............                            ................",
"       ..............                          ................ ",
"         .............                         ............     ",
"           ............                       ............      ",
"             ...........                      .........         ",
"              ..........                      ........          ",
"               .........                      .......           ",
"                ........                      .......           "
};
