/* XPM */
static char *f9410a184895469eb456d8f5c5e424712ivMKew3oHmX5ggC[] = {
/* columns rows colors chars-per-pixel */
"64 64 256 2 ",
"   c #72586D",
".  c #7B707D",
"X  c #885C7C",
"o  c #98676B",
"O  c #FF656E",
"+  c #7FBA6F",
"@  c #5AE264",
"#  c #70F973",
"$  c #9E8E69",
"%  c #AD8C6E",
"&  c #8DBB6C",
"*  c #BEB27D",
"=  c #E2955B",
"-  c #FF947E",
";  c #FBB06D",
":  c #8FED68",
">  c #94FC6A",
",  c #87FF78",
"<  c #95FE76",
"1  c #B1EB71",
"2  c #FED754",
"3  c #CBF852",
"4  c #FBFF56",
"5  c #D4D86D",
"6  c #FECF6F",
"7  c #D6F775",
"8  c #F2FE65",
"9  c #FFFF7C",
"0  c #6E779D",
"q  c #6D59FF",
"w  c #5070E0",
"e  c #7B6AFF",
"r  c #9C6AA1",
"t  c #FE6686",
"y  c #E2619D",
"u  c #FD7793",
"i  c #FD79B5",
"p  c #9F5BFE",
"a  c #AD57FE",
"s  c #8B73F9",
"d  c #AF76FF",
"f  c #D46EDC",
"g  c #FB6FD1",
"h  c #FF53EF",
"j  c #FB58F9",
"k  c #DB6FF6",
"l  c #FF64EA",
"z  c #FF6BFE",
"x  c #E976FF",
"c  c #FE79FB",
"v  c #71A69A",
"b  c #768EB3",
"n  c #59BDA0",
"m  c #6AADAD",
"M  c #74C897",
"N  c #73FC8D",
"B  c #76C0A0",
"V  c #56FFB4",
"C  c #74F6B4",
"Z  c #749ED8",
"A  c #67BDDC",
"S  c #6F98F6",
"D  c #73CED5",
"F  c #6FF4CB",
"G  c #51CCFF",
"H  c #6ED1F9",
"J  c #5CEBFF",
"K  c #67F0FF",
"L  c #76FEFE",
"P  c #938C98",
"I  c #B19491",
"U  c #A7B192",
"Y  c #869DAB",
"T  c #B896B0",
"R  c #83ADAC",
"E  c #ADA8B7",
"W  c #C9908C",
"Q  c #C7989C",
"!  c #FF9190",
"~  c #F6AB91",
"^  c #FEA798",
"/  c #C796B6",
"(  c #FE8CA9",
")  c #FE96A8",
"_  c #FF8CB8",
"`  c #D5BAB2",
"'  c #F7AFAA",
"]  c #FEA7B6",
"[  c #FBB8B7",
"{  c #86D093",
"}  c #96FC87",
"|  c #9AF69A",
" . c #AFF38E",
".. c #B1D9A5",
"X. c #84FFA6",
"o. c #98FFA9",
"O. c #8AFFB6",
"+. c #96FFBC",
"@. c #A5FFAB",
"#. c #BBFBA6",
"$. c #AAFCB5",
"%. c #C8D18C",
"&. c #FCD28A",
"*. c #F1CF93",
"=. c #F9CA98",
"-. c #D4FC8A",
";. c #CDF190",
":. c #EEF18F",
">. c #FEFC87",
",. c #FEFB95",
"<. c #FEFE9C",
"1. c #C5DDB1",
"2. c #FFDEAB",
"3. c #F9C9B2",
"4. c #FED4B9",
"5. c #C8FFA7",
"6. c #D5FFA8",
"7. c #CDEEB5",
"8. c #C4FFB3",
"9. c #D6FFB7",
"0. c #FEE7A8",
"q. c #E8FFA1",
"w. c #FCF6A7",
"e. c #FEFFA4",
"r. c #FFFFAC",
"t. c #FEEAB2",
"y. c #E8FFB8",
"u. c #F7FAB5",
"i. c #FEFFB3",
"p. c #FEFFBB",
"a. c #948BCE",
"s. c #B18DCE",
"d. c #8EB9C4",
"f. c #B6B6D4",
"g. c #8C95EE",
"h. c #9A98FF",
"j. c #A583FB",
"k. c #A897FD",
"l. c #B895FD",
"z. c #85A1FF",
"x. c #98A4FF",
"c. c #93B9F8",
"v. c #A4A9FC",
"b. c #A6B7FC",
"n. c #B4B3F2",
"m. c #D29ADB",
"M. c #FD90D9",
"N. c #D2B5D1",
"B. c #FDA5C5",
"V. c #FBB9C8",
"C. c #FBABD8",
"Z. c #FCB5D5",
"A. c #D28DFD",
"S. c #C59BFD",
"D. c #D99AFF",
"F. c #F492EE",
"G. c #FA86FF",
"H. c #FE8BFE",
"J. c #E997FC",
"K. c #FA99FA",
"L. c #FF9CFF",
"P. c #CBA9F0",
"I. c #D1A8F9",
"U. c #C8BDFE",
"Y. c #D7BAFD",
"T. c #FFA5E7",
"R. c #FAB9E6",
"E. c #EBAAFA",
"W. c #FFA6FE",
"Q. c #F8AAFA",
"!. c #FEABFE",
"~. c #E9BAFC",
"^. c #FFB3FE",
"/. c #F8B9F8",
"(. c #FFBBFE",
"). c #86D3D2",
"_. c #A4CEC8",
"`. c #8CEBCF",
"'. c #87FBC5",
"]. c #9AFFC8",
"[. c #A9FFCB",
"{. c #B9F4CF",
"}. c #B5FDCA",
"|. c #A8FCD9",
" X c #93CBF9",
".X c #89D7FD",
"XX c #A6CBFC",
"oX c #A5D8FD",
"OX c #BBD1FF",
"+X c #8AF4ED",
"@X c #9AF9E8",
"#X c #88FCFE",
"$X c #93FDFE",
"%X c #9BFFFF",
"&X c #A4FEE7",
"*X c #B4FDE7",
"=X c #A8E5FF",
"-X c #B7E8FF",
";X c #A8F3FF",
":X c #A3FDFE",
">X c #ABFEFF",
",X c #B5FAF7",
"<X c #B2FEFF",
"1X c #BBFFFE",
"2X c #D0DAD4",
"3X c #F2CECB",
"4X c #FFD7C8",
"5X c #FFD7D7",
"6X c #C7FFC7",
"7X c #C3FEDB",
"8X c #D6F4D1",
"9X c #F1F0C7",
"0X c #FEFEC3",
"qX c #FBFFCB",
"wX c #E6FCD9",
"eX c #FEFED2",
"rX c #F6FBD8",
"tX c #FEFFDB",
"yX c #C1CEFF",
"uX c #D5CAF0",
"iX c #C8D5FB",
"pX c #FFC7E9",
"aX c #F3D7E8",
"sX c #EDC7FF",
"dX c #F3C2FF",
"fX c #FEC2FF",
"gX c #FFCCFF",
"hX c #E6D9FE",
"jX c #F6D5FC",
"kX c #FED2FD",
"lX c #FEDCFE",
"zX c #C6E8E9",
"xX c #C5FEE6",
"cX c #DBFDE9",
"vX c #C6E9FD",
"bX c #D8E8FD",
"nX c #C9F7FF",
"mX c #C3FFFE",
"MX c #CDFEFF",
"NX c #D7FAF8",
"BX c #D5FEFF",
"VX c #DCFEFE",
"CX c #EBF7E5",
"ZX c #FEFFE4",
"AX c #FCFBEB",
"SX c #E6E8FE",
"DX c #FEE2FE",
"FX c #F7EAFC",
"GX c #FEEEFF",
"HX c #E7FBF6",
"JX c #E3FEFE",
"KX c #EBFEFF",
"LX c #FEFEF4",
"PX c #FEF5FF",
"IX c #F7F9F9",
"UX c #FEFFFE",
/* pixels */
"gXgXi.r.HXVXiXuXiX-X=Xv.v.R.R.j.s z z n n f.f.>.>.>.Y Y UXUXO.O.t.0.KXKXJ.J.IXHXHXUXUX<  .).).x.x.@ + ~.sXBXBXaX2X9Xq q ( i Q.L.",
"gXgXi.i.NXHXuXiXiXoX=Xv.v.pXR.j.d z z M n N.f.>.>.>.Y Y UXUXO.O.t.t.KXKXJ.J.UXHXHXUXUX} < H H v.v.@ @ uXjXVXVX2XaX2Xq q ! u W.L.",
"IXIX2.2.5 5 ^ ^ ' ..#.eXeXUXUX=.*.<X,XOXOX#X#X-X-XvXUXLX9 9 K L N N (.^.K.K.> # < UXUXAXLX[.[.qXqXZXrXa.g.N N }.}.6XZXZXUXUXj z ",
"IXIX0.0.5 5 ' ^ ^ 5.;.eXeXUXPX*.=.<X<XOXOX#X#X-X-X-XUXUX9 9 L K N C (.(.K.T.# > > UXUXLXLX[.[.qXqXZXZXa.a.C N }.6X6XZXZXUXUXj j ",
"hXjX<.,.h h l.S.S.MXBXAXAX<.e.kXgX+ + 5. .[.[.5.5.5.-XvXtXtXhXbX7 7 c g `.F GXGXFX7X7X/./.;. .<.,.a a C C aXaXUXUXUXZ a.9X9XW I ",
"jXhX,.,.h h l.l.l.MXMXAXAXe.e.gXgX+ +  .#.].[.5.5.-.OXvXtXeXSXbX7 7 g g '.+XFXFXGX7X7X/.^.%.;.,.,.d a C C aXCXUXUXLXs g.4X9XI I ",
"UXUX(.(.^.^.tXtXeXbXbXz.z.z z wXrXBXVX/ / 2.4.kXkXkX$X%XcXcXQ.Q., } p.p.> > &.6 *..X X@X@X@X].sXdX. . !.Q.i.p.LXLXIX>.>.y.y.oXoX",
"UXUX(.(.^.^.tXeXtXbXbXx.x.z z rXrXVXVX/ T 4.4.kXkXkX$X$XcXwXQ.Q.} } i.e.> > &.&.&. X X@X@X@X@XsXdX. 0 T.!.i.i.IXUXUX9 >.y.y.oX.X",
"PXPX(.fX^.!.eXeXrXbXbXx.z.c G.rXrXNXNXT s.4.4.jXkXkX%X:XcXcX^.^.} X.0Xp., > &.&.&..X.X&X&X&X&X~.pXr X Q.Q.p.p.IXIXPX>.:.9Xy.oXXX",
"[ [ (.(.] B./.~.dXtXtXL L UXUXwXrXW y T s.UXLXiXiXiX=X;XbXbXUXUXa.r UXUXx G.PXLXLX@ @ ^.!.eXeXf f 7 :.{ { ].].L.H.H.l l >X:X- - ",
"V.] (.(.] ] /./.(.tXtXL L UXUXwX8Xy W a.T PXUXiXOX2X;X;XvXbXUXUXP s UXUXG.G.UXUXCX@ @ pX^.eXeXf f 7 :.{ { [.].J.H.H.l l :X:X- - ",
"7 7 >X:Xa.r ).+.`.UXUXn.n.H.c # : z z M @ iXbXnXnXmX0Xp.( ) N.E.j.j.= ; XXXXUXUXLXB.] c.x.4 4 UXUXlXlXUXIXS S IXUXUX3.[ kXjX| o.",
"8 7 1X<Xr a.`.F `.UXUXn.OXG.H.: : z z @ @ bXbXMXmXNX0X0X( ( P.P.j.j.; = XXXXIXLXUX] [ v.b.4 4 UXUXlXlXUXUXS S IXUXUX3.[ kXkXo.o.",
"iXiXBXBXvXvX# # # 8.8.KXKXyXOX^.^.FXhXKXKXz.z.FXGXGX# N .X.XB.B.>X>XfXgXUXPXJ.F.E.1 1 vXvXyXiX<.<.1XmX0X0X^.~.;X<X<XW.W.t O W.W.",
"vXiXBXBXvXbX# # # 8.7.JXKXyXOX^.(.SXFXKXKXz.z.FXGXGXN M .X.XB.B.>X>XgXgXPXPXJ.J.E.1 1 nXvXiXyX<.<.1X1X0XqX!.^.<X<X>XW.W.t O !.W.",
"m m (.fX,.,.HXLXLX1.1.b b w.w.UXUXUXUX(.^.9.9.FXPXIXIXLXz.z.UXUXb.b.H.H.I I j.j.k.#.#.6.6./ / ^./.PXPX2X2XJXJXDXDXlX( ( D.A.O.O.",
"m D (.(.,.,.LXIXAX1.1.b b t.t.UXUXUXUX(.(.9.9.FXGXGXUXPXz.z.UXUXb.b.G.G.I I j.j.k.#.#.6.q./ / /./.PXLX2XOXHXHXDXDXlX( ( D.J.O.O.",
"jXgXLXLX$.}.>.>.,.tXrXsX~.w w .X X3.=.8.8.wXcX~.Y.~.U.OX=.3.H.H.6.6.A.G.IXUXgXgXgXUXLX! - Y R mXmXhXSX;.-.@.o.IXUXUXk.v.IXLXl l ",
"jXjXLXLX}.$.,.>.<.ZXtX~.R.w w .X.X3.' 8.#.wXwX~.~.~.U.U.[ =.H.H.6.6.J.A.UXUXgXgXgXUXUX~ ~ R Y mXMXhXhX-.;.@.@.UXUXUXk.k.LXLXl g ",
"(.fXbXbX.X.XPXPXIX.X.X(.dX4X3XxX*Xt t :X%XUXUXW.W.W.UXUXb.b.*X&XF.T.& & @.@.b b Y <.e.T.C.- - 3XN.e.e.:.>.UXIX&.&.&.UXUXJXSXL.L.",
"gXgXbXbX.X.XUXPXFX.X.X(.(.4X4X,X1Xt t :X%XUXUX!.!.!.UXUXb.b.*X&XT.T.& & @.$.b b Y <.e.T.T.! - N.3Xw.e.:.&.UXIX&.&.&.UXUXJXJXW.L.",
"' ~ #.#.mXmX-X<X,Xt.w.G.x MXBX, , bXvXu t UXUXT T T H J pXpXUXUX^.(.P P c c 3 3 7 FXPXUXUX! ! @X@X$X%Xi i p p lXDXDX>X>X! - ZXZX",
"~ *.#.#.1XmX;X<X-X0.0.G.x MXMX, , bXvXt u UXUXT T I J H pXpXUXUX(./.P U c c 3 3 7 FXFXUXUX! ! @X@X%X%Xi i p p lXDXlX>X>X- - tXZX",
"B.B.W.W.BXBX7XxXxX~.E.T.T.IXIXIXLX*X*X/.~.Q.!.;.%.;.rXtXzXzXb.v.k.g._.E ^.!.BXNXxXn.f.] ) Z Z q.q.;.-.{ { $ $ k.k.l.H H 4X4XQ Q ",
"B.B.G.K.BXBXxXxX7XE.E.T.T.LXUXUXUX*X|.sX~.Q.Q.;.*.%.tXeXzXzXv.x.h.h.d._.^.(.VXVXbXf.n.] ) Z Z q.6.7 -.{ { $ $ k.k.k.H H 5X4XW I ",
"B.B.L.L.JXBX7X7XxXQ.E.T.T.LXUXUXUX|.*X~.~.Q.Q.%.;.;.eXeXzXzXx.k.h.h._._.(.(.BXVXnXf.f.) B.Z Z 6.q.-.7 { { $ $ g.k.k.H H 4X3XW W ",
"} < Y.Y.UXUXI.D.D.s.s.BXBXlXDXN N P P %.%.wXCX8 8 8 XXc.:X:Xc.c.D ).k k V.V.UXUXPXY.Y.yXOX<X1X....C.C.JXcX9X3X1XmX1XLXLX!.!.IXUX",
"< } Y.Y.UXUXD.D.D.m.s.BXMXlXlX} N P r %.%.wXZX8 8 8 c.XX%X%Xc. XD D k k N.V.UXUXLXY.Y.yXOX<X1X....C.C.VXVX3X9XmX1XmXUXUX!.!.UXUX",
"gXgX2X2XVXBXlXlXjXXXXXh.h.tXtX-.7 L L UXUXM.M.X X   7 -.dX/.4.2.J.J.m R $X$XUXUXIX@ M vX-Xf.c.[.[.mXmX-.-.< } ^ ^ ^ r f :X:Xt.t.",
"fXgX2X2XBXBXlXlXjXXXXXh.h.tXtX7 7 L L PXPXM.M.X     -.7 pXdX2.2.J.K.R v $X$XUXUXIX# # vXvX Xb.[.[.1XMX-.-.} } ^ ^ ) r r %X:Xt.t.",
"e e SXSXr r SXKXKXDXDX[.[.e.e.L.W.sXsX7.4.fXfX;X;X;X,.,.+.+.UXUX6.6.v b 1X1XW.!.Q.$ % DXDXMXMXe.e.R.R.x.x.9.9.t t t FXSXN.C.MXmX",
"e e hXSXr r SXJXJXlXDX[.[.e.e.L.L.sXsX4.7.(.fX;X;X:X,.,.].+.UXUXy.6.v v 1X1XW.W.T.U $ FXDXMXMXe.e.R.R.x.x.9.8.t t t SXSXB.V.MXmX",
"JXVX@X+Xu ! u.u.u.#X#XL.L.!./.XXXXzXzXL.L.BXBX/./.Q.>.>.B.] ].[.) ) x c N.uXC.R.E.z.z.K.K.$.1.b.c.e.r.cXwXZ.R.#XL #XbXCX{.{.,XnX",
"VXBX'.+X( ( t.u.u.#X#XL.W.!.!.OXXX7XzXK.L.BXBX/.Q./.>.>.] B.].].] ] x x uXR.R.Z.R.z.z.T.F.2X$.n.v.e.r.CXcXpX3X#XL L NXSX{.{.mXmX",
"KXKXz.c.8.#.:.0.w.>.>.) ( AXAX% % LXUXw.w.H.H.S.S.P./ E t.t., ,     ZXLXUXUX~.^.fXUXUXkXgXUXUX3 3 MXMXcXcXd d ^.!.^.N.N.0 0 i.i.",
"KXKXH c.9.$.w.:.:.>.>.) ( LXAX% % LXPXw.w.L.H.S.S.l.T s.t.t.# ,     LXIXUXLX^.^.(.UXUXkXkXUXUX3 3 MXMXcXxXj.d ^.^.^.N._.w 0 i.i.",
"9X9.[ ] F O.x.k.v.i.p.rXrX6X8X8.5.<.e.1.1.D d.#X#XL -.:.z.g.;X:Xc. X% o UXUX] B.] AXAX) ^ A A A.S.| | 7X7X+X+XrXZXZXT.K.UXUXR d.",
"y.9X[ ' O.O.v.v.v.i.i.qXrX8X8X5.5.e.<.1.1.D A #X#X#X-.:.g.g.;X;Xc.c.= % UXUX] _ B.AXaX) ) A m S.A.| | 7X*X+XL ZXZXZXT.T.UXUXd.d.",
"2 2 AXAX( i #X$X.Xj j UXUXk k PXGXUXUXUXUXN.N.cXcXVXs.s.l f V.V.K.K.s r h.h.qXp.9X@X`.n.v.jXlX2.0.MXMXT.!.=.=.;. . .h.g.rXAX{ M ",
"2 2 AXAXi i #X#X#Xj j UXUXk k PXGXUXUXUXUXN.m.cXNXNXs.s.f f V.V.L.K.s s h.h.p.p.p.+X@Xv.v.lXjX2.0.MXMXW.!.=.=. . . .h.j.AXAX{ { ",
"2 2 LXIX_ _ #X#X+Xj l UXUXk k FXGXPXUXIXIXN.N.HXNXSXs.s.f f 3XV.K.F.a.j.k.h.y.u.9X`.`.v.n.aXkX2.0.BXBX!.!.' =. . .1 k.x.rXCX{ { ",
"_._.<X<X!.^.H .X.Xm m IXUX3.[ GXPX^.(.C C >X%X~.~.Y.W * K.L.9XwX! ! UXUXK.J.M { M I r o.o.Q ~ o.o.JXJXfXfX1.N.o o o UXUX=X=X ...",
"|._.>X<X^.!..X.XH v n AXUX' 3.GXGXQ.^.C C >X:XY.Y.~.W W J.K.wX8X! ! UXUXW.K.M M : r r | X.~ ~ @.o.KXKXfXfX` ` o o o PXUX=X=X..| ",
"t O bXbXUXUXUXUXPXZXZXR U HXHX*X*X X XO u M.M.SXSXHXUXUX>X>Xl.l.0.,.0X0Xn.n.=X=XoXl.l.q q }.[.Q Q U U ZXZXXXXXUXPXUXUXUXi ( s e ",
"t O bXbXUXUXUXUXUXZXAXU U IXAX*X|. X Xt u M.M.SXKXSXUXUX>X-Xl.l.&.,.p.0Xn.n.oXoXoXl.l.q q [.}.Q Q U ` tXZXXXXXUXUXPXUXUX( i e s ",
"5X4X{.7X# # eXeXqXmXmXUXIX,.>.a.a.M.C.~ ~ <.e.7 5 %.5X5Xy y 9.9.i g [.[.ZXZX4X4.4.4X4Xi.w.S S :X>XUXUX*.*.UXUXa a a * * F F n n ",
"9X5X7X*X# # qXeXqXnXmXUXUX,.>.a.a.M.T.~ ~ r.e.5 5 %.5X5Xy y 9.9.g i [.[.tXtX4X4.4X4X4Xi.r.S g.:X>XUXUX*.*.PXPXa a a * * F F n n ",
"S.I.PXPXc z I.I.A.1 1 <X<X' ] NXHXDXGXa a D D e e q ZXCXV.C.6 ~ jXlX:.w.2X1.LXIXAX6X8.E E < > xXxXT.M.qXqX0X0X|.@X|.`.C f.f.# # ",
"S.S.PXPXc c I.I.I.1 1 ,X>X] ] NXJXDXDXa p D D s q q tXtX3X3.~ ; FXGX<.<.2X1.LXAXAX6X6XE E < > xXxXM.T.qXqX0X0X&X|.|.'.O.f.c.# # ",
"}.[.A.d CXCXUXUXIXu.y.SXSXE.E.UXUXcXcX&X&X0X0X0X0X0XUXUXUXUXs s $.$.UXUXP.P.&X@X&X+.+.w.0.D.D.y.y.KXKX!.!.PXPXDXDXDXUXUXN.N.p.i.",
"[.}.d k CXCXUXUXIXu.u.HXSXJ.E.UXUXHXHX&X&X0X0Xp.0X0XUXUXUXUXp s $.$.UXUXP.P.&X&X@X+.+.0.0.D.D.9.y.KXKX!.!.PXUXDXDXDXUXUXN.N.0X0X",
"fXfXO.O.> > AXAXAX%X$Xm m JXJX: : UXUX] V.gXgXZXZXqX6 ; UXUX^.^.$.@.4X5XmXMXDXDXDXbXbXUXUX= = lXDXFXFXe.e.i.r.-.-.q.PXUXUXPXJ J ",
"fXfX[.+.> > ZXAXAX%X$Xm m JXJX: : UXUX[ [ gXgXZXZXZX6 ; LXUX^.^.+.$.4X5XxXMXlXDXFXbXbXUXUX= = lXjXFXFXe.r.i.i.q.-.q.PXUXUXUXK J ",
"9X9Xn.b.qXqX( ( ) MXBXc c UXUXw.e.NXNX$.$.UXUXhXhXhXUXUXtXtXHXHXUXUX.X.X; ; lXDXjXS g.%X:XC.C.L L :X:XhXaXi.i.K.G.G.l.S.).).nXnX",
"4X9Xn.b.qXeX( ( ) MXBXc c UXUXe.e.cXcX@.$.UXPXhXhXhXUXUXtXtXHXHXUXUX#X.X; = DXDXjXg.Z :X>XC.C.L L >X:XaXhXi.i.G.G.G.S.S.).).nXnX",
"=.[ v B V V l l c <X<XAXLX*X,X|.[.N N ` ' H H n.P.P.-X-XAXLX|.|.8X8XQ Q ,.,.mX1X1XU.Y.< : :X&XX.X.J K IXIXW.W.s s s W.W.IXPXpXpX",
"=.' B B V V l l c ,X>XLXLX*X,X|.|.# N ` ` G H l.n.S.-X-XAXAX|.|.6X8XQ Q ,.,.1X1X,XU.Y.1 : :X:XX.X.J J UXUXL.K.s e e Q.Q.UXUXpXpX",
"' ' v B V V l l c >X>XAXLX*X*X|.].N # ` ` S G P.S.P.=X-XLXFX|.|.6X7XQ Q ,.w.1X1X,XyXU.: : %X:XC X.J J LXUXK.L.e e e Q.Q.UXUXR.pX",
"UXUX#X$XUXUXVXbXbXsXhXNXcXO O 5XaXT.K.j.l.9XqXG G G Z.Z.bXNX~.E.mXmXUXUX'.+.e.e.q.D D gXgXZXZX%X@XGXFX5.5.f.N.6 6 6 UXUXF F m.m.",
"UXUX$X#XUXUXNXVXNXhXhXNXcXO O 5X5XF.Q.d d 0X9XG G G Z.Z.BXbX~.~.mXmXUXUX].].r.r.6.D D gXgXtXZX$X$XGXFX5.5.E f.6 6 6 UXUXF F m.m.",
"#X#X| ..:X>XPXPXSXM.F.*.*.LXLX<.<.kXkXfXjXy y u.u.0Xi.i.IXIX!.W.w.q.6X6XUXUXmXMXMXp.i.gXgXMXMX%X%X} | G.H.kXkX>X:X:X-XvX8.7.].'.",
"#X#X| | ;X;XPXPXFXM.M.*.%.UXLX<.<.jXpXgXfXW W p.p.p.i.i.UXIX!.!.q.q.$.6XUXUXMXmXMXp.p.gXgXMXMX%X%X} } H.H.kXkX>X:X:XvXvX7.7.'.].",
"UXUXhXSXU.OXIXUXIX] ] GXPX:.:.B.B.AXZXx.c.OXOXJXJXJX(.fXM.c mXmXiXiXPXUXo X 3.3X3.9 9 [ 3.i.r.wXwX9X2XBXMXUXPXAXAXAX9 >.J.D.] ] ",
"UXLXSXbXOXOXIXUXFX] ] IXPX5 ;.C.C.AXZXb.v.-X-XJXJXJX(.gXc c 1X1XiXiXGXlXX r 4X3.4.9 9 3.[ i.u.wXwX8X2XMXMXUXPXAXFXAX>.>.J.J.] [ "
};
