/* XPM */
static char *_b19922afda34c95db379f41442529dfZ6hhMaMVOOrXLA6u[] = {
/* columns rows colors chars-per-pixel */
"64 64 54 1 ",
"  c #26A7FD",
". c #28A6FB",
"X c #26A8FC",
"o c #2DACFD",
"O c #31AEFE",
"+ c #2EB1FF",
"@ c #32B1FE",
"# c #3CBCFE",
"$ c #41BFFD",
"% c #3FC2FC",
"& c #44C4FD",
"* c #49C3FD",
"= c #4DC9FE",
"- c #51C7FB",
"; c #53CAFD",
": c #5DCDFD",
"> c #64CFFD",
", c #76CFFF",
"< c #65D2FE",
"1 c #6BD4FE",
"2 c #6FDEFF",
"3 c #74D6F5",
"4 c #70D6FF",
"5 c #75DAFF",
"6 c #7BDBFE",
"7 c #85DEFE",
"8 c #8BDAFF",
"9 c #85E0FF",
"0 c #8DE3FF",
"q c #92E4FE",
"w c #9BE6FF",
"e c #9EEBFE",
"r c #A4E6FF",
"t c #A1EBFF",
"y c #AAEDFF",
"u c #B1EDFE",
"i c #B7F2FF",
"p c #BBF2FF",
"a c #C6EFFE",
"s c #C8EEFD",
"d c #D4E9FF",
"f c #D9EDFF",
"g c #C6F2FF",
"h c #CAF3FF",
"j c #D5F5FF",
"k c #DBF5FE",
"l c #DCF8FF",
"z c #E7F7FB",
"x c #ECF6FC",
"c c #E7FBFF",
"v c #EAFAFE",
"b c #F7FFF7",
"n c #F1FBFD",
"m c #FFFFFF",
/* pixels */
"ccccvccccccccccccccccccccccccx55555555cccccccccccccccccccccccccc",
"ccccvcttcctccccccttccccccccc556tttttt55cccccccvccccccccccccccccc",
"ccccccvtkucccccccctyccccccc555ttttttt55ccctcctccccccvcccccvccccc",
"cccccccvccccccccccc55vcccc55qttttttttt56ccctlccccccccccccccccccc",
"cccccccvccccxccccc555ttttttttttttttttttt55xcccccz5cccccccccccccc",
"cccccccjccccccccc555ttttt55tt55etttttetytt55ccct55ccccvvcccvcccc",
"cccccccccc5zcccb55tttttttttttttttttteytttttettttt52cccchjvltyccc",
"ccccccccv555tttetttttyttttttttttt5ttttttttttttttt55cccccvttccccc",
"ccccccccc555ttttttttyttttttttttttt56ttttttttttttte5wcccccccccccc",
"cccccccc555ttt555556ttttt5555555tttt&&tttettttttttt55ccccccccccc",
"ccccccc655ttt6hgmbmbmggqrgmmmmga5tte5&*tte55tttttttt55cccccccccc",
"cccccc55qetghmmmmmmmmmmhmmmmmmmmhg555555555&qttyyttttt5tcccccccc",
"cccc555tttggmmmmmmmmmmmmmmmmmmmmmgh55555555&&ttw5t5etttq5ccccccv",
"c556ttttttgmmmmmmmmmmmmmgmmmmmmmmmm555555555&tttettttttttttt65cc",
"ttttttt7tttmmmmmmmmmgmhkmmmmmmmmmmm15*5;5555;*etttt6tttttttttttt",
"ttttttttttthmmmmmmmmmlkmmmmmnmmmmmv5:5>525556*&6ttte0ttttttttttt",
"ttttttttttttxmmmmmhmmmmmmmmmmggmmm&=656<;&&&135555555&&ttttttttt",
"ttttttttttt&&bmmmmggmmmmmmmmmh&mmm53&&%;1335;*&&55555&&ttttttttt",
"tetwtttt1;&5555mmmm4&mmmmmmm&&*&&&&&&&&&&&tttttttett65&4yttttttt",
"t7q7tttw*&55555kmmk<&dmmmmmd>&<&&&&=&<&<&tegnmmmmmgt95;&wttt7ttt",
"ttetttt-=5555555555&&&mmmmm&&&&&&&&&&&&&7tmmmmmmmmmme56&&ttttttt",
"ttttt<&-55555555;&&&&&&:8&&&&1>1<1&&&&&&,mmmmmiimemmr5551&<ttttt",
"ttet&&&555555555&&&&&&&&&&&&&&55&&&&&*&&&mmmmtmmtmmm755555&&tttt",
"&&&&&#&$:111#&$&&&&&&#&#&&&&#&#&&&&*&#&#&&fm8mmmmf&&&#&#&&&&#&#&",
"&&&&&&&&&&&&&&&&&&;=&&&&&&&&&&&&&&&&&&&&&&&&&mmmm&&&&&&&&&&&&&&&",
"&&&#&X&@&&&&o&.&&*&$& &O&&*&o& &&*;#&.&@&&&&o&m&*&&$&X&@&&&&.&X&",
"&&&#.X.@#&&&+XXX*&*#X X@#&&&oXXX&&&$..XO#&&&o X.&&&#.XX@#&&&OX o",
"*&#&O@O@##&#@+@@#&#$++@@##&##@@@#&##@@@@##&#@+@O#&##@@+@##&#@O@O",
"& &o&&&&o&.&$&&*&m&o&&&&o&.&#;*&& *o&*&&O& &$&&&&.&o&&&&o&X&&&&&",
"&&&&&&&&&&&&&&&mmmm&&&&&&&&&&&&&&&&&&&&&&&&&=;&&&&&&&&&&&&&&&&&&",
"&#&#&&&&#&#&&&fmmmm8mf&&#&#&&&&&&#&#&&&&$&$&$*&&&$&#111:#&#&&&&&",
"et&&&&&555&&&mmmmmbtmm&&&&&&;&&&&&&&&&&&&&&&&&&&&&6555555&&&&&te",
"tttt&&555557mmmtmmtmmmm*&&*&&&&&55*&&&&&&&&&&&&&555555555&&&ettt",
"ttttt<&1555rmmtmiimmmmm4&&&&&&1<1<<&&&&8:&&&&&&;55555555=&<ttttt",
"tttttt&&<56mmtmmmmmmmmm&&&&&&&&&&&&&&%mmm&&&&&55555555&<=&ettttt",
"tttttte&&65emmmmmmmmmmt9&&&&&&&&&&&&&mmmmm&&&5555555555--ttttttt",
"tet9tttw&;69tpmmmmmnget&>&<&=&&&*<&>dmmmmmd&<kmmk55555&*wttt9q7t",
"tteyttty1&55tttttttttt&&&&&&&&&&&&&*mmmmmmm&4mmmm4555&;1ttttwtet",
"ttttttttt&&55565&5*1&&*&<*5&=&&&&5*bmmmkmmmghmmmmmb55;&ttttetttt",
"ttttttttt&&55555&&*-6631;%&&36mmm&hmmmmmmmmmggmmmmb&&ttttttttttt",
"tttttttet&&556556531&&&;<656=&mmmggmmmmmmmmmmhmmmmmvtttttttttttt",
"tttttttttt5tttyt&&5*5565;6&5<hmmmmmgmmmmmmmmmmmmmmmntttttttttttt",
"ttttttttttt0ettt6&&755515<5:6cmmmmmbmmmmmllmmmmmmmmmhttttttttttt",
"tttttttttttt6etttt*-5555;5*51mmmmmmmmmmmkgmgmmmmmmmmmttt7ttttttt",
"cc56tttttttttttttey&555555555mmmmmmmmmmgmmmmmmmmmmmmmgtttttt656c",
"ccccv55ttttttt00tye&&55555555hmmmmmmmmmmmmmmmmmmmmmmpgtttt255vcc",
"vcccccc50ettt5e5wtt&&55555555ggmmmmmmmmmmmmmmmmmmmmmghtte555cccc",
"ccccccccy5tttttytttq&555555555ghmmmmmmmmhmmmmmmmmmmhgttq55cccccv",
"ccccccccci50ettttttq&0001:5550uhxmmmmmmkpzmmmmmmmcgwttt55ucccccc",
"cccccccccc55ettttttt65ttt&&5ett3shbmmmgrqggmbmbmgs5ttt555ccccccc",
"ccccccccccc55tttttttttettt&&ettt4555555tettt665555ttt555cccccccc",
"cccccccccccc55ttttttttttttt&5tttttttttttttttttttttttt55wcccccccc",
"ccccccvcccccw5ettetttttttttt65tttttttttttetytttttttt555ccccccccc",
"cccccttvccccc55ttttttttttttttt5ttttttttttyyttttttttt555ccccccccc",
"cccytlvjhvccc25tttttttttttytttttttttttttttttet55ncccx5cccccccccc",
"ccctccccieccc65etttttttttttttttttte5ettttttte552cccccctxcccccccc",
"ccccccccvccccc55tccc55ttyttttettt55tt55ttttt555cccccccccjccccccc",
"cccccccccccccc5zcccccv55etttttttttttttttttt555ccccczcccccccccccc",
"ccccccccvcccceccccccccc7qtttt5tttttttetttet55ccccccccccccccccccc",
"cccccccccccccccccccltccc55tttttttttq55czccv65vcccccccccccccccccc",
"cccccccccccvcccccctcctccc55ttttttt555cccccccyeccccccccyzyxcccccc",
"ccccccccccccccccccccccccc55tttttt655cccccccccetcccvcctccetvccccc",
"cccccvcccccvccccvccccccccc555tte555cccvcccccccceccvcccccccvccccc",
"cccccccccccccccccccccccccc55556555vccccccccccccccccccccccccccccc"
};
