/* XPM */
static char *result[] = {
/* columns rows colors chars-per-pixel */
"64 64 9 1 ",
"  c black",
". c #4D3D3D",
"X c #4D3E3E",
"o c #E64EB5",
"O c #E64EB6",
"+ c #9D9595",
"@ c #9E9595",
"# c #9E9696",
"$ c None",
/* pixels */
"$$$$$$$$$$$$$$$$$$$$$$$$$$$$$$$$$$$$$$$$$$$$$$$$$$$$$$$$$$$$$$$$",
"$$$$$$$$$$$$$$$$$$$$$$$$$$$$$$$$$$$$$$$$$$$$$$$$$$$$$$$$$$$$$$$$",
"$$$$$$$$$$$$$$$$$$$$$$$$$$$$$$$$$$$$$$$$$$$$$$$$$$$$$$$$$$$$$$$$",
"$$$$$$$$$$$$$$$$$$$$$$$$$$$$$$$$$$$$$$$$$$$$$$$$$$$$$$$$$$$$$$$$",
"$$$$$$$$$$$$$$$$$$$$$$$$$$$$$$$$$$$$$$$$$$$$$$$$$$$$$$$$$$$$$$$$",
"$$$$$$$$$$$$$$$$$$$$$$$$$$$$$$$$$$$$$$$$$$$$$$$$$$$$$$$$$$$$$$$$",
"$$$$$$$$$$$$$$$$$$$$$$$$$$$$$$$$$$$$$$$$$$$$$$$$$$$$$$$$$$$$$$$$",
"$$$$$$$$$$$$$$$$$$$$$$$$$$$$$$$$$$$$$$$$$$$$$$$$$$$$$$$$$$$$$$$$",
"$$$$$$$$$$$$$$$$$$$$$$$$$$$$$$$$$$$$$$$$$$$$$$$$$$$$$$$$$$$$$$$$",
"$$$$$$$$$$$$$$$$$$$$$$$$$$$$$$$$$$$$$$$$$$$$$$$$$$$$$$$$$$$$$$$$",
"$$$$$$$$$$$$$$$$$$$$$$$$$$$$$$$$$$$$$$$$$$$$$$$$$$$$$$$$$$$$$$$$",
"$$$$$$$$$$$$$$$$$$$$$$  $$$$$$$$$$  $$$$$$$$$$$$$$$$$$$$$$$$$$$$",
"$$$$$$$$$$$$$$$$$$$$  ##  $$$$$$  ##  $$$$$$$$$$$$$$$$$$$$$$$$$$",
"$$$$$$$$$$$$$$$$$$$$  ##  $$$$$$  ##  $$$$$$$$$$$$$$$$$$$$$$$$$$",
"$$$$$$$$$$$$$$$$$$$$  ##X.      XX##  $$$$$$$$$$$$$$$$$$$$$$$$$$",
"$$$$$$$$$$$$$$$$$$$$  ##X.      XX##  $$$$$$$$$$$$$$$$$$$$$$$$$$",
"$$$$$$$$$$$$$$$$$$  .X####X.X...####XX  $$$$$$$$$$$$$$$$$$$$$$$$",
"$$$$$$$$$$$$$$$$$$  #+#++#+#+###+@+#+#  $$$$$$$$$$$$$$$$$$$$$$$$",
"$$$$$$$$$$$$$$$$$$  #+#++#+#+#@#@#+#+#  $$$$$$$$$$$$$$$$$$$$$$$$",
"$$$$$$$$$$$$$$$$  XX#+#++#+#+###+++#+#XX  $$$$$$$$$$$$$$$$$$$$$$",
"$$$$$$$$$$$$$$$$  #+#+  +#+#  ##++  +#+#  $$$$$$$$$$$$$$$$$$$$$$",
"$$$$$$$$$$$$$$$$  +#+#  #+#+  ++##  ####  $$$$$$$$$$$$$$$$$$$$$$",
"$$$$$$$$$$$$$$$$  #+oo#++#  +#  +++#oO+#  $$$$$$$$$$$$$$$$$$$$$$",
"$$$$$$$$$$$$$$$$  +#oO+##+  #+  ####Oo##  $$$$$$$$$$$$$$$$$$$$$$",
"$$$$$$$$$$$$$$  XX#+#+#++#+#+###+++#+#+#XX  $$$$$$$$$$$$$$$$$$$$",
"$$$$$$$$$$$$$$  XX+#+#+##+#+#+++########XX  $$$$$$$$$$$$$$$$$$$$",
"$$$$$$$$$$$$$$  XX#+#+#++#+#+###+++#+#+#XX  $$$$$$$$$$$$$$$$$$$$",
"$$$$$$$$$$$$$$  +++@+#+##+#+@+++##########  $$$$$$$$$$$$$$$$$$$$",
"$$$$$$$$$$$$$$  #@#+#+#++#+#+#@#@#+#+#+##+  $$$$$$$$$$$$$$$$$$$$",
"$$$$$$$$$$$$$$  ###+#+#++#+#+###+@+#+#+##+  $$$$$$$$$$$$$$$$$$$$",
"$$$$$$$$$$$$  XXXX+#+#+##+#+#+@+########XXXX  $$$$$$$$$$$$$$$$$$",
"$$$$$$$$$$$$  XXXX+#+#+##+#+#+#@########XXXX  $$$$$$$$$$$$$$$$$$",
"$$$$$$$$$$$$  XX+++#+#+##+#+#+++##########XX  $$$$$$$$$$$$$$$$$$",
"$$$$$$$$$$$$  ##+++#+#+##+#+#+++############  $$$$    $$$$$$$$$$",
"$$$$$$$$$$$$  ##############################  $$$$    $$$$$$$$$$",
"$$$$$$$$$$$$  XXXX+#+#+##+#+#+++########XXXX  $$  ####  $$$$$$$$",
"$$$$$$$$$$$$  XXXX######################XXXX  $$  ####  $$$$$$$$",
"$$$$$$$$$$$$  XX+++#+#+##+#+#+++##########XX  $$$$  XX  $$$$$$$$",
"$$$$$$$$$$$$  ######  ##############  ######  $$$$  ##  $$$$$$$$",
"$$$$$$$$$$$$  ##+++#  +##+#+#+++####  ######  $$$$  ##  $$$$$$$$",
"$$$$$$$$$$$$  XX####  ##  ######  ##  ####XX      ####  $$$$$$$$",
"$$$$$$$$$$$$$$  XX+#  +#  #+#+#@  ##  ##XX  ####XX##  $$$$$$$$$$",
"$$$$$$$$$$$$$$  XX+#  +#  #+#+@+  ##  ##XX  ####XX##  $$$$$$$$$$",
"$$$$$$$$$$$$$$$$      +#          ##                $$$$$$$$$$$$",
"$$$$$$$$$$$$$$$$      +#          ##                $$$$$$$$$$$$",
"$$$$$$$$$$$$$$$$$$$$      $$$$$$      $$$$$$$$$$$$$$$$$$$$$$$$$$",
"$$$$$$$$$$$$$$$$$$$$$$$$$$$$$$$$$$$$$$$$$$$$$$$$$$$$$$$$$$$$$$$$",
"$$$$$$$$$$$$$$$$$$$$$$$$$$$$$$$$$$$$$$$$$$$$$$$$$$$$$$$$$$$$$$$$",
"$$$$$$$$$$$$$$$$$$$$$$$$$$$$$$$$$$$$$$$$$$$$$$$$$$$$$$$$$$$$$$$$",
"$$$$$$$$$$$$$$$$$$$$$$$$$$$$$$$$$$$$$$$$$$$$$$$$$$$$$$$$$$$$$$$$",
"$$$$$$$$$$$$$$$$$$$$$$$$$$$$$$$$$$$$$$$$$$$$$$$$$$$$$$$$$$$$$$$$",
"$$$$$$$$$$$$$$$$$$$$$$$$$$$$$$$$$$$$$$$$$$$$$$$$$$$$$$$$$$$$$$$$",
"$$$$$$$$$$$$$$$$$$$$$$$$$$$$$$$$$$$$$$$$$$$$$$$$$$$$$$$$$$$$$$$$",
"$$$$$$$$$$$$$$$$$$$$$$$$$$$$$$$$$$$$$$$$$$$$$$$$$$$$$$$$$$$$$$$$",
"$$$$$$$$$$$$$$$$$$$$$$$$$$$$$$$$$$$$$$$$$$$$$$$$$$$$$$$$$$$$$$$$",
"$$$$$$$$$$$$$$$$$$$$$$$$$$$$$$$$$$$$$$$$$$$$$$$$$$$$$$$$$$$$$$$$",
"$$$$$$$$$$$$$$$$$$$$$$$$$$$$$$$$$$$$$$$$$$$$$$$$$$$$$$$$$$$$$$$$",
"$$$$$$$$$$$$$$$$$$$$$$$$$$$$$$$$$$$$$$$$$$$$$$$$$$$$$$$$$$$$$$$$",
"$$$$$$$$$$$$$$$$$$$$$$$$$$$$$$$$$$$$$$$$$$$$$$$$$$$$$$$$$$$$$$$$",
"$$$$$$$$$$$$$$$$$$$$$$$$$$$$$$$$$$$$$$$$$$$$$$$$$$$$$$$$$$$$$$$$",
"$$$$$$$$$$$$$$$$$$$$$$$$$$$$$$$$$$$$$$$$$$$$$$$$$$$$$$$$$$$$$$$$",
"$$$$$$$$$$$$$$$$$$$$$$$$$$$$$$$$$$$$$$$$$$$$$$$$$$$$$$$$$$$$$$$$",
"$$$$$$$$$$$$$$$$$$$$$$$$$$$$$$$$$$$$$$$$$$$$$$$$$$$$$$$$$$$$$$$$",
"$$$$$$$$$$$$$$$$$$$$$$$$$$$$$$$$$$$$$$$$$$$$$$$$$$$$$$$$$$$$$$$$"
};
