/* XPM */
static char *result[] = {
/* columns rows colors chars-per-pixel */
"64 64 256 2 ",
"   c black",
".  c #000100",
"X  c #010100",
"o  c #000001",
"O  c #010101",
"+  c #020101",
"@  c #000200",
"#  c #000201",
"$  c #000301",
"%  c #010301",
"&  c #020200",
"*  c #020300",
"=  c #010102",
"-  c #010103",
";  c #020002",
":  c #020102",
">  c #030103",
",  c #010202",
"<  c #000302",
"1  c #000203",
"2  c #000303",
"3  c #020202",
"4  c gray1",
"5  c #040002",
"6  c #040103",
"7  c #000503",
"8  c #020104",
"9  c #030204",
"0  c #010504",
"q  c #010704",
"w  c #000705",
"e  c #000506",
"r  c #000606",
"t  c #040404",
"y  c #0C0001",
"u  c #0E0100",
"i  c #0D0301",
"p  c #0F0401",
"a  c #0E0600",
"s  c #0F0600",
"d  c #090909",
"f  c #090B0B",
"g  c gray4",
"h  c gray5",
"j  c #0E0E0E",
"k  c gray6",
"l  c #140304",
"z  c #130B07",
"x  c #140906",
"c  c #180E18",
"v  c #041C1C",
"b  c #041F1E",
"n  c #131313",
"m  c gray8",
"M  c #171715",
"N  c #141A17",
"B  c #30170E",
"V  c #311810",
"C  c #231825",
"Z  c #241926",
"A  c #261B27",
"S  c #062021",
"D  c #062022",
"F  c #062122",
"G  c #0E2B2D",
"H  c #0D2C2C",
"J  c #0B3234",
"K  c #0E3437",
"L  c #0C393C",
"P  c #0C393D",
"I  c #0F393D",
"U  c #0E393E",
"Y  c #56211D",
"T  c #7F2E26",
"R  c #3F2A45",
"E  c #5D3D68",
"W  c #5C3E68",
"Q  c #0C4642",
"!  c #0E4544",
"~  c #114345",
"^  c #114347",
"/  c #104445",
"(  c #104447",
")  c #104D54",
"_  c #4B474E",
"`  c #5B5158",
"'  c #585259",
"]  c #755956",
"[  c #775856",
"{  c #745A57",
"}  c #775B58",
"|  c #785D5A",
" . c #822B27",
".. c #822E26",
"X. c #8B2F27",
"o. c #812B28",
"O. c #812B2A",
"+. c #802C28",
"@. c #8A2F28",
"#. c #8B2E29",
"$. c #8B2F2A",
"%. c #8A2E2B",
"&. c #8D2D28",
"*. c #8C2E29",
"=. c #8C2F2A",
"-. c #8C2F2D",
";. c #932B27",
":. c #912B29",
">. c #902F28",
",. c #9E392D",
"<. c #9F392E",
"1. c #9E382F",
"2. c #973533",
"3. c #993430",
"4. c #993431",
"5. c #9B3632",
"6. c #9B3732",
"7. c #9F3731",
"8. c #9B3634",
"9. c #9F3830",
"0. c #9E3930",
"q. c #9C3C31",
"w. c #9D3C32",
"e. c #9F3B34",
"r. c #953F3C",
"t. c #973E3C",
"y. c #A1362D",
"u. c #A2372D",
"i. c #A2372E",
"p. c #A1382F",
"a. c #A33531",
"s. c #A13730",
"d. c #A13731",
"f. c #A23630",
"g. c #A33630",
"h. c #A23730",
"j. c #A33731",
"k. c #A03532",
"l. c #A13732",
"z. c #A13733",
"x. c #A23732",
"c. c #A33534",
"v. c #A13737",
"b. c #A03833",
"n. c #A53B33",
"m. c #AF3B37",
"M. c #AD3D35",
"N. c #AF3D34",
"B. c #AF3C35",
"V. c #AF3D35",
"C. c #AD3E34",
"Z. c #AD3C36",
"A. c #AF3D36",
"S. c #A33C38",
"D. c #AB3F38",
"F. c #B53C33",
"G. c #B03B36",
"H. c #B23D35",
"J. c #B13E35",
"K. c #B13F35",
"L. c #B23E35",
"P. c #B13F36",
"I. c #B43E35",
"U. c #B73F35",
"Y. c #B23D39",
"T. c #B03E39",
"R. c #B73E38",
"E. c #AC4037",
"W. c #A5413F",
"Q. c #AD473F",
"!. c #BB4237",
"~. c #B3413A",
"^. c #B64538",
"/. c #B4403C",
"(. c #BB4138",
"). c #B94338",
"_. c #BC4038",
"`. c #BC4239",
"'. c #BD413B",
"]. c #C3453C",
"[. c #C6453F",
"{. c #C4483B",
"}. c #A94242",
"|. c #BF5148",
" X c #BF5249",
".X c #C24F46",
"XX c #129140",
"oX c #E18D7C",
"OX c #9A9A9A",
"+X c #A2A2A1",
"@X c gray65",
"#X c #A5AEBD",
"$X c #DC8F80",
"%X c #CB9085",
"&X c #CD9084",
"*X c #F3A194",
"=X c #FCAF9A",
"-X c #FFAE9B",
";X c #FFAE9C",
":X c #FFAE9E",
">X c #FEAF9E",
",X c #FDB797",
"<X c #FDB099",
"1X c #FFADA0",
"2X c #FFAEA0",
"3X c #FDB2A1",
"4X c #FFB2A2",
"5X c #FFB5A3",
"6X c #FFB4A5",
"7X c #FFBBB2",
"8X c #FFBEB0",
"9X c #FFBEB2",
"0X c #FFBFB5",
"qX c #FEC585",
"wX c #FEC58A",
"eX c #FFC48B",
"rX c #FEC58C",
"tX c #FFC198",
"yX c #F6CFA2",
"uX c #FACBA2",
"iX c #FFC8BB",
"pX c #FFC8BD",
"aX c #FEC9BD",
"sX c #F8D4B2",
"dX c #F7D5BA",
"fX c #C9BDCF",
"gX c #B3C8C9",
"hX c #CECECE",
"jX c #FDE1CE",
"kX c #FDE6D9",
"lX c #FCE7D9",
"zX c #EAD9EE",
"xX c #E8DAEE",
"cX c #E9DAEE",
"vX c #E9DAEF",
"bX c #E9D9F3",
"nX c #ECD8F1",
"mX c #E4E4E4",
"MX c #E7E7E7",
"NX c #FCE7E1",
"BX c #EEE7F4",
"VX c #FFEEF3",
"CX c #FEEDF4",
"ZX c #F5F0F6",
"AX c #F8F1F0",
"SX c #F8F1F1",
"DX c #F8F8F8",
"FX c #F9F9F9",
"GX c gray98",
"HX c #FBFBFB",
"JX c #FEFFFD",
"KX c #FFFFFD",
"LX c #FDFFFF",
"PX c #FEFFFF",
"IX c white",
"UX c None",
/* pixels */
"UXUXUXUXUXUXUXUXUXUXUXUXUXUXUXUXUXUXUXUXUXUXUXUXUXUXUXUXUXUXUXUXUXUXUXUXUXUXUXUXUXUXUXUXUXUXUXUXUXUXUXUXUXUXUXUXUXUXUXUXUXUXUXUX",
"UXUXUXUXUXUXUXUXUXUXUXUXUXUXUXUXUXUXUXUXUXUXUXUXUXUXUXUXUXUXUXUXUXUXUXUXUXUXUXUXUXUXUXUXUXUXUXUXUXUXUXUXUXUXUXUXUXUXUXUXUXUXUXUX",
"UXUXUXUXUXUXUXUXUXUXUXUXUXUXUXUXUXUXUXUXUXUXUXUXUXUXUXUXUXUXUXUXUXUXUXUXUXUXUXUXUXUXUXUXUXUXUXUXUXUXUXUXUXUXUXUXUXUXUXUXUXUXUXUX",
"UXUXUXUXUXUXUXUXUXUXUXUXUXUXUXUXUXUXUXUXUXUXUXUXUXUXUXUXUXUXUXUXUXUXUXUXUXUXUXUXUXUXUXUXUXUXUXUXUXUXUXUXUXUXUXUXUXUXUXUXUXUXUXUX",
"UXUXUXUXUXUXUXUXUXUXUXUXUXUXUXUXUXUXUXUXUXUXUXUXUXUXUXUXUXUXUXUXUXUXUXUXUXUXUXUXUXUXUXUXUXUXUXUXUXUXUXUXUXUXUXUXUXUXUXUXUXUXUXUX",
"UXUXUXUXUXUXUXUXUXUXUXUXUXUXUXUXUXUXUXUXUXUXUXUXUXUXUXUXUXUXUXUXUXUXUXUXUXUXUXUXUXUXUXUXUXUXUXUXUXUXUXUXUXUXUXUXUXUXUXUXUXUXUXUX",
"UXUXUXUXUXUXUXUXUXUXUXUXUXUXUXUXUXUXUXUXUXUXUXUXUXUXUXUXUXUXUXUXUXUXUXUXUXUXUXUXUXUXUXUXUXUXUXUXUXUXUXUXUXUXUXUXUXUXUXUXUXUXUXUX",
"UXUXUXUXUXUXUXUXUXUXUXUXUXUXUXUXUXUXUXUXUXUXUXUXUXUXUXUXUXUXUXUXUXUXUXUXUXUXUXUXUXUXUXUXUXUXUXUXUXUXUXUXUXUXUXUXUXUXUXUXUXUXUXUX",
"UXUXUXUXUXUXUXUXUXUXUXUXUXUXUXUXUXUXUXUXUXUXUXUXUXUXUXUXUXUXUXUXUXUXUXUXUXUXUXUXUXUXUXUXUXUXUXUXUXUXUXUXUXUXUXUXUXUXUXUXUXUXUXUX",
"UXUXUXUXUXUXUXUXUXUXUXUXUXUXUXUXUXUXUXUXUXUXUXUXUXUXUXUXUXUXUXUXUXUXUXUXUXUXUXUXUXUXUXUXUXUXUXUXUXUXUXUXUXUXUXUXUXUXUXUXUXUXUXUX",
"UXUXUXUXUXUXUXUXUXUXUXUXUXUXUXUXUXUXUXUXUXUXUXUXUXUXUXUXUXUXUXUXUXUXUXUXUXUXUXUXUXUXUXUXUXUXUXUXUXUXUXUXUXUXUXUXUXUXUXUXUXUXUXUX",
"UXUXUXUXUXUXUXUXUXUXUXUXUXUXUXUXUXUXUXUXUXUXUXUXUXUXUXUXUXUXUXUXUXUXUXUXUXUXUXUXUXUXUXUXUXUXUXUXUXUXUXUXUXUXUXUXUXUXUXUXUXUXUXUX",
"UXUXUXUXUXUXUXUXUXUXUXUXUXUXUXUXUXUXUXUXUXUXUXUXUXUXUXUXUX    m   UXUXUXUXUXUXUXUXUXUXUXUXUXUXUXUXUXUXUXUXUXUXUXUXUXUXUXUXUXUXUX",
"UXUXUXUXUXUXUXUXUXUXUXUXUXUXUXUXUXUXUXUXUXUXUXUXUXUXUX    #.r.4.u.    UXUXUXUXUXUXUXUXUXUXUXUXUXUXUXUXUXUXUXUXUXUXUXUXUXUXUXUXUX",
"UXUXUXUXUXUXUXUXUXUXUXUXUXUXUXUXUXUXUXUXUXUXUXUXUXUX  s.s.S.#.3.s.s.s.  UXUXUXUXUXUXUXUXUXUXUXUXUXUXUXUXUXUXUXUXUXUXUXUXUXUXUXUX",
"UXUXUXUXUXUXUXUXUXUXUXUXUXUXUXUXUXUXUXUXUXUXUXUXO p x.s.s.&.=.3.s.s.s.a.3 UXUXUXUXUXUXUXUXUXUXUXUXUXUXUXUXUXUXUXUXUXUXUXUXUXUXUX",
"UXUXUXUXUXUXUXUXUXUXUXUXUXUXUXUXUXUXUXUXUXUXUXUX  u s.j.b.#.-.2.7.s.f.g.  UXUXUXUXUXUXUXUXUXUXUXUXUXUXUXUXUXUXUXUXUXUXUXUXUXUXUX",
"UXUXUXUXUXUXUXUXUXUXUXUXUXUXUXUXUXUXUXUXUXUXUXUX8 i i.].#.%.y Y T s.[.].O UXUXUXUXUXUXUXUXUXUXUXUXUXUXUXUXUXUXUXUXUXUXUXUXUXUXUX",
"UXUXUXUXUXUXUXUXUXUXUXUXUXUXUXUXUXUXUXUXUXUXUX  {.].].].#.  nX` , s.s.].].7 4 UXUXUXUXUXUXUXUXUXUXUXUXUXUXUXUXUXUXUXUXUXUXUXUXUX",
"UXUXUXUXUXUXUXUXUXUXUXUXUXUXUXUXUXUXUXUXUXUX  ,.h.h.h.@.#.  nXvXzXo +.o.g.p.q.  UXUXUXUXUXUXUXUXUXUXUXUXUXUXUXUXUXUXUXUXUXUXUXUX",
"UXUXUXUXUXUXUXUXUXUXUXUXUXUXUXUXUXUXUXUXUXUX  0.s.s.s.# @ vXJXIXIX  # . O.v.w.k UXUXUXUXUXUXUXUXUXUXUXUXUXUXUXUXUXUXUXUXUXUXUXUX",
"UXUXUXUXUXUXUXUXUXUXUXUXUXUXUXUXUXUXUXUXUXUXm )._.}.= xXcXLXIXIXIXIXIX  `..X X  UXUXUXUXUXUXUXUXUXUXUXUXUXUXUXUXUXUXUXUXUXUXUXUX",
"UXUXUXUXUXUXUXUXUXUXUXUXUXUXUXUXUXUXUXUXUX+XB !.P.W.  BX#XIXIXIXIXgXIX  Q.|.^.V OXUXUXUXUXUXUXUXUXUXUXUXUXUXUXUXUXUXUXUXUXUXUXUX",
"UXUXUXUXUXUXUXUXUXUXUXUXUXUXUXUXUXUXUXUXUX+ (.(.k.6.  IX! IXIXIXIXQ IX  o.R.(.'.  UXUXUXUXUXUXUXUXUXUXUXUXUXUXUXUXUXUXUXUXUXUXUX",
"UXUXUXUXUXUXUXUXUXUXUXUXUXUXUXUXUXUXUXUXUX  s.s.s.8.  IXXXIXIXIXIXXXIX  o.c.s.z.  UXUXUXUXUXUXUXUXUXUXUXUXUXUXUXUXUXUXUXUXUXUXUX",
"UXUXUXUXUXUXUXUXUXUXUXUXUXUXUXUXUXUXUXUXUXO s.s.s.8.  iXiXIXO @XPXaXpX  o.c.s.d.  UXUXUXUXUXUXUXUXUXUXUXUXUXUXUXUXUXUXUXUXUXUXUX",
"UXUXUXUXUXUXUXUXUXUXUXUXUXUXUXUXUXUXUXUXUXUX: 9.L.G.;.9 IXIXIXIXIXKXO :.F.H.U.> UXUXUXUXUXUXUXUXUXUXUXUXUXUXUXUXUXUXUXUXUXUXUXUX",
"UXUXUXUXUXUXUXUXUXUXUXUXUXUXUXUXUXUXUXUXUX5 Y.J./.Z.g. .    bX'     *.#.y.N.I.K.  UXUXUXUXUXUXUXUXUXUXUXUXUXUXUXUXUXUXUXUXUXUXUX",
"UXUXUXUXUXUXUXUXUXUXUXUXUXUXUXUXUXUXUXUXUX- V.A.V.B.s...z   fX_ 6 x X.>.s.M.C.D.  UXUXUXUXUXUXUXUXUXUXUXUXUXUXUXUXUXUXUXUXUXUXUX",
"UXUXUXUXUXUXUXUXUXUXUXUXUXUXUXUXUXUXUXUXUXO s.s.s.s.s.#.o.g n   < o.#.s.s.n.s.l.  UXUXUXUXUXUXUXUXUXUXUXUXUXUXUXUXUXUXUXUXUXUXUX",
"UXUXUXUXUXUXUXUXUXUXUXUXUXUXUXUXUXUXUXUXUXUX  <.L.m.s.#.  6XrX,X-X  #.s.J.H.~.  UXUXUXUXUXUXUXUXUXUXUXUXUXUXUXUXUXUXUXUXUXUXUXUX",
"UXUXUXUXUXUXUXUXUXUXUXUXUXUXUXUXUXUXUXUXUXO s.T.Y.m.s.$.j $X$X$XoX  #.s.s.N.H.E.  UXUXUXUXUXUXUXUXUXUXUXUXUXUXUXUXUXUXUXUXUXUXUX",
"UXUXUXUXUXUXUXUXUXUXUXUXUXUXUXUXUXUXUXUXUX    1.s.5.t.  :X:X:X:X:X:X  s.s.s.e.    UXUXUXUXUXUXUXUXUXUXUXUXUXUXUXUXUXUXUXUXUXUXUX",
"UXUXUXUXUXUXUXUXUXUXUXUXUXUXUXUXUXUXUXUXGXUXUX< O @ M 8XeXSXtXjXAXeX8X1 $ 1 w UXUXUXUXUXUXUXUXUXUXUXUXUXUXUXUXUXUXUXUXUXUXUXUXUX",
"UXUXUXUXUXUXUXUXUXUXUXUXUXUXUXUXUXUXUXUXUXUXUXhX  l %X4XlXyXNXdXuXkX3X&X  UXUXUXUXUXUXUXUXUXUXUXUXUXUXUXUXUXUXUXUXUXUXUXUXUXUXUX",
"UXUXUXUXUXUXUXUXUXUXUXUXUXUXUXUXUXUXUXUXUXUXUXUX  s :X2XVXwXZXsXqXCX1X:X  UXUXUXUXUXUXUXUXUXUXUXUXUXUXUXUXUXUXUXUXUXUXUXUXUXUXUX",
"UXUXUXUXUXUXUXUXUXUXUXUXUXUXUXUXUXUXUXUXUXUXUXUX  a :X$X:X:X:X:X:X:X$X;X  UXUXHXUXUXUXUXUXUXUXUXUXUXUXUXUXUXUXUXUXUXUXUXUXUXUXUX",
"UXUXUXUXUXUXUXUXUXUXUXUXUXUXUXUXUXUXUXUXUXUXUX  =X:X:X  *X*X*X*X*X*XO ;X;Xf t UXUXUXUXUXUXUXUXUXUXUXUXUXUXUXUXUXUXUXUXUXUXUXUXUX",
"UXUXUXUXUXUXUXUXUXUXUXUXUXUXUXUXUXUXUXUXUXUXUX  <X:X:X  *X*X*X*X*X*X  >X5XN 4 UXUXUXUXUXUXUXUXUXUXUXUXUXUXUXUXUXUXUXUXUXUXUXUXUX",
"UXUXUXUXUXUXUXUXUXUXUXUXUXUXUXUXUXUXUXUXUXUXUX  7X9X9X                0X9Xq 4 UXUXUXUXUXUXUXUXUXUXUXUXUXUXUXUXUXUXUXUXUXUXUXUXUX",
"UXUXUXUXUXUXUXUXUXUXUXUXUXUXUXUXUXUXUXUXUXUXUX  { } |   S S v b D F h ] [ % 4 UXUXUXUXUXUXUXUXUXUXUXUXUXUXUXUXUXUXUXUXUXUXUXUXUX",
"UXUXUXUXUXUXUXUXUXUXUXUXUXUXUXUXUXUXUXUXUXUXUX          L U J K I P       O 3 UXUXUXUXUXUXUXUXUXUXUXUXUXUXUXUXUXUXUXUXUXUXUXUXUX",
"UXUXUXUXUXUXUXUXUXUXUXUXUXUXUXUXUXUXUXUXUXUXUXUX  d GX  ) ( ^ ^ / )   HX  UXUXUXUXUXUXUXUXUXUXUXUXUXUXUXUXUXUXUXUXUXUXUXUXUXUXUX",
"UXUXUXUXUXUXUXUXUXUXUXUXUXUXUXUXUXUXUXUXUXUXUXUX        ) ( O H ~ )       UXUXUXUXUXUXUXUXUXUXUXUXUXUXUXUXUXUXUXUXUXUXUXUXUXUXUX",
"UXUXUXUXUXUXUXUXUXUXUXUXUXUXUXUXUXUXUXUXUXUXUXUXUXUXUX  ) ( & G ~ )   UXUXUXUXUXUXUXUXUXUXUXUXUXUXUXUXUXUXUXUXUXUXUXUXUXUXUXUXUX",
"UXUXUXUXUXUXUXUXUXUXUXUXUXUXUXUXUXUXUXUXUXUXUXUXUXUXUX  ) ( X G ~ )   UXUXUXUXFXUXUXUXUXUXUXUXUXUXUXUXUXUXUXUXUXUXUXUXUXUXUXUXUX",
"UXUXUXUXUXUXUXUXUXUXUXUXUXUXUXUXUXUXUXUXUXUXUXUXUXUXUX  0 r * 2 e e   UXUXUXUXFXUXUXUXUXUXUXUXUXUXUXUXUXUXUXUXUXUXUXUXUXUXUXUXUX",
"UXUXUXUXUXUXUXUXUXUXUXUXUXUXUXUXUXUXUXUXUXUXUXUXUXUXUX; ; ;   ; ; ; ; UXUXUXUXFXUXUXUXUXUXUXUXUXUXUXUXUXUXUXUXUXUXUXUXUXUXUXUXUX",
"UXUXUXUXUXUXUXUXUXUXUXUXUXUXUXUXUXUXUXUXUXUXUXUXUXmXj Z C C @ c C C A   UXUXUXUXUXUXUXUXUXUXUXUXUXUXUXUXUXUXUXUXUXUXUXUXUXUXUXUX",
"UXUXUXUXUXUXUXUXUXUXUXUXUXUXUXUXUXUXUXUXUXUXUXUXDXMX  E E E 3 R W E E   UXUXUXUXUXUXUXUXUXUXUXUXUXUXUXUXUXUXUXUXUXUXUXUXUXUXUXUX",
"UXUXUXUXUXUXUXUXUXUXUXUXUXUXUXUXUXUXUXUXUXUXUXUXUXUXUX                UXUXUXUXUXUXUXUXUXUXUXUXUXUXUXUXUXUXUXUXUXUXUXUXUXUXUXUXUX",
"UXUXUXUXUXUXUXUXUXUXUXUXUXUXUXUXUXUXUXUXUXUXUXUXUXUXUXUXUXUXUXUXUXUXUXUXUXUXUXUXUXUXUXUXUXUXUXUXUXUXUXUXUXUXUXUXUXUXUXUXUXUXUXUX",
"UXUXUXUXUXUXUXUXUXUXUXUXUXUXUXUXUXUXUXUXUXUXUXUXUXUXUXUXUXUXUXUXUXUXUXUXUXUXUXUXUXUXUXUXUXUXUXUXUXUXUXUXUXUXUXUXUXUXUXUXUXUXUXUX",
"UXUXUXUXUXUXUXUXUXUXUXUXUXUXUXUXUXUXUXUXUXUXUXUXUXUXUXUXUXUXUXUXUXUXUXUXUXUXUXUXUXUXUXUXUXUXUXUXUXUXUXUXUXUXUXUXUXUXUXUXUXUXUXUX",
"UXUXUXUXUXUXUXUXUXUXUXUXUXUXUXUXUXUXUXUXUXUXUXUXUXUXUXUXUXUXUXUXUXUXUXUXUXUXUXUXUXUXUXUXUXUXUXUXUXUXUXUXUXUXUXUXUXUXUXUXUXUXUXUX",
"UXUXUXUXUXUXUXUXUXUXUXUXUXUXUXUXUXUXUXUXUXUXUXUXUXUXUXUXUXUXUXUXUXUXUXUXUXUXUXUXUXUXUXUXUXUXUXUXUXUXUXUXUXUXUXUXUXUXUXUXUXUXUXUX",
"UXUXUXUXUXUXUXUXUXUXUXUXUXUXUXUXUXUXUXUXUXUXUXUXUXUXUXUXUXUXUXUXUXUXUXUXUXUXUXUXUXUXUXUXUXUXUXUXUXUXUXUXUXUXUXUXUXUXUXUXUXUXUXUX",
"UXUXUXUXUXUXUXUXUXUXUXUXUXUXUXUXUXUXUXUXUXUXUXUXUXUXUXUXUXUXUXUXUXUXUXUXUXUXUXUXUXUXUXUXUXUXUXUXUXUXUXUXUXUXUXUXUXUXUXUXUXUXUXUX",
"UXUXUXUXUXUXUXUXUXUXUXUXUXUXUXUXUXUXUXUXUXUXUXUXUXUXUXUXUXUXUXUXUXUXUXUXUXUXUXUXUXUXUXUXUXUXUXUXUXUXUXUXUXUXUXUXUXUXUXUXUXUXUXUX",
"UXUXUXUXUXUXUXUXUXUXUXUXUXUXUXUXUXUXUXUXUXUXUXUXUXUXUXUXUXUXUXUXUXUXUXUXUXUXUXUXUXUXUXUXUXUXUXUXUXUXUXUXUXUXUXUXUXUXUXUXUXUXUXUX",
"UXUXUXUXUXUXUXUXUXUXUXUXUXUXUXUXUXUXUXUXUXUXUXUXUXUXUXUXUXUXUXUXUXUXUXUXUXUXUXUXUXUXUXUXUXUXUXUXUXUXUXUXUXUXUXUXUXUXUXUXUXUXUXUX",
"UXUXUXUXUXUXUXUXUXUXUXUXUXUXUXUXUXUXUXUXUXUXUXUXUXUXUXUXUXUXUXUXUXUXUXUXUXUXUXUXUXUXUXUXUXUXUXUXUXUXUXUXUXUXUXUXUXUXUXUXUXUXUXUX",
"UXUXUXUXUXUXUXUXUXUXUXUXUXUXUXUXUXUXUXUXUXUXUXUXUXUXUXUXUXUXUXUXUXUXUXUXUXUXUXUXUXUXUXUXUXUXUXUXUXUXUXUXUXUXUXUXUXUXUXUXUXUXUXUX",
"UXUXUXUXUXUXUXUXUXUXUXUXUXUXUXUXUXUXUXUXUXUXUXUXUXUXUXUXUXUXUXUXUXUXUXUXUXUXUXUXUXUXUXUXUXUXUXUXUXUXUXUXUXUXUXUXUXUXUXUXUXUXUXUX"
};
