/* XPM */
static char *bc0c1da0d6e34241a4e7fc86698d292eWapEQqCsamlwviUu[] = {
/* columns rows colors chars-per-pixel */
"64 64 4 1 ",
"  c None",
". c black",
"X c gray50",
"o c gray63",
/* pixels */
"                                                                ",
"                                                                ",
"                                                                ",
"                                                                ",
"                                                                ",
"                                                                ",
"                        XXXXXXXXXXXXXX                          ",
"                      XXXXXXXXXXXXXXXXXX                        ",
"                     XXXXX..........XXXXX                       ",
"                    XXXX..............XXXX                      ",
"                   XXXX................XXXX                     ",
"                  XXXX..................XXXX                    ",
"                 XXXX....................XXXX                   ",
"                XXXX......................XXXX                  ",
"               XXXX........................XXXX                 ",
"              XXXX..........................XXXX                ",
"             XXXX............................XXXX               ",
"            XXXX..............................XXXX              ",
"            XXX................................XXX              ",
"           XXX..................................XXX             ",
"           XXX..................................XXX             ",
"           XX....................................XX             ",
"           XX....................................XX             ",
"           XX....................................XX             ",
"           XX....................................XX             ",
"           XX....................................XX             ",
"           XX....................................XX             ",
"           XX....................................XX             ",
"           XX....................................XX             ",
"           XX....................................XX             ",
"           XX....................................XX             ",
"           XX....................................XX             ",
"           XX....................................XX             ",
"           XX....................................XX             ",
"           XX....................................XX             ",
"           XX....................................XX             ",
"           XX....................................XX             ",
"           XX....................................XX             ",
"           XX....................................XX             ",
"           XX....................................XX             ",
"           XX....................................XX             ",
"           XX....................................XX             ",
"           XX....................................XX             ",
"           XX....................................XX             ",
"           XX....................................XX             ",
"           XX....................................XX             ",
"           XX....................................XX             ",
"           XX....................................XX             ",
"           XX....................................XX             ",
"           XX....................................XX             ",
"           XX....................................XX             ",
"           XX....................................XX             ",
"           XX....................................XX             ",
"           XX....................................XX             ",
"           XX....................................XX             ",
"           XX.....XXXXXXXXXXXXXXXXXXXXXXXXXX.....XX             ",
"           XXXXXXXXXXXXXXXXXXXXXXXXXXXXXXXXXXXXXXXX             ",
"           XXXXXXoooooooooooooooooooooooooooooXXXXX             ",
"            oooooooooooooooooooooooooooooooooooooo              ",
"         XXXXXXXXXXXXXXXXXXXXXXXXXXXXXXXXXXXXXXXXXXXXX          ",
"        XXXXXXXXXXXXXXXXXXXXXXXXXXXXXXXXXXXXXXXXXXXXXXX         ",
"        XXXXXXXXXXXXXXXXXXXXXXXXXXXXXXXXXXXXXXXXXXXXXXX         ",
"     oooooooooooooooooooooooooooooooooooooooooooooooooooo       ",
"     oooooooooooooooooooooooooooooooooooooooooooooooooooo       "
};
