/* XPM */
static char *result[] = {
/* columns rows colors chars-per-pixel */
"64 64 10 1 ",
"  c #3D2D09",
". c #4D525E",
"X c #636A7A",
"o c #ED1C24",
"O c #E01444",
"+ c #1EE656",
"@ c #E887CB",
"# c #C3C3C3",
"$ c #E8E0DF",
"% c None",
/* pixels */
"%%%%%%%%%%%%%%%%%%%%%%%%%%%%%%%%%%%%%%%%%%%%%%%%%%%%%%%%%%%%%%%%",
"%%%%%%%%%%%%%%%%%%%%%%%%%%%%%%%%%%%%%%%%%%%%%%%%%%%%%%%%%%%%%%%%",
"%%%%%%%%%%%%%%%%%%%%%%%%%%%%%%%%%%%%%%%%%%%%%%%%%%%%%%%%%%%%%%%%",
"%%%%%%%%%%%%%%%%%%%%%%%%%%%%%%%%%%%%%%%%%%%%%%%%%%%%%%%%%%%%%%%%",
"%%%%%%%%%%%%%%%%%%%%%%%%%%%%%%%%%%%%%%%%%%%%%%%%%%%%%%%%%%%%%%%%",
"%%%%%%%%%%%%%%%%%%%%%%%%%%%%%%%%%%%%%%%%%%%%%%%%%%%%%%%%%%%%%%%%",
"%%%%%%%%%%%%%%%%%%%%%%%%%%%%%%%%%%%%%%%%%%%%%%%%%%%%%%%%%%%%%%%%",
"%%%%%%%%%%%%%%%%%%%%%%%%%%%%%%%%%%%%%%%%%%%%%%%%%%%%%%%%%%%%%%%%",
"%%%%%%%%%%%%%%%%%%%%      %%%%%%%%      %%%%%%%%%%%%%%%%%%%%%%%%",
"%%%%%%%%%%%%%%%%%%%%      %%%%%%%%      %%%%%%%%%%%%%%%%%%%%%%%%",
"%%%%%%%%%%%%%%%%%%%%      %%%%%%%%      %%%%%%%%%%%%%%   %%%%%%%",
"%%%%%%%%%%%%%%%%%%    XX    %%%%    XX  %%%%%%%        ##   %%%%",
"%%%%%%%%%%%%%%%%%%    XX    %%%%    XX  %%%%%%   .X++X ####  %%%",
"%%%%%%%%%%%%%%%%%%    XX    %%%%    XX  %%%%   X.XX+XX #####  %%",
"      %%%%%%%%%%%%  XX$$XX        XX$$  %%%   X..XX+XX    ###  %",
"      %%%%%%%%%%%%  XX$$XX        XX$$  %%   XX.XXXXX   %   ## %",
"      %%%%%%%%%%%%  XX$$XX        XX$$  %   XXX.XXXX  %%%%% ## %",
"  $$  %%%%%%%%%%%%  ..XXXX..XX..XX..XX     XXX.XXXX   %%%%%%  %%",
"  $$  %%%%%%%%%%%%  ..XXXX..XX..XX..XX    XXXX.XXXXXXX   %%%%%%%",
"  XX  %%%%%%%%%%    XXXXXXXXXX..XXXXXXXX  XXXX.XXXXX...X %%%%%%%",
"  XX  %%%%%%%%%%    XXXXXXXXXX..XXXXXXXX  XXXX.XXX..XXXXX    %%%",
"  XX  %%%%%%%%%%    XXX+++XXXX..X+++XXXX  XXXX.XX..XXXXXX ###  %",
"  ..    %%%%%%%%  ....X+OOXXXXXXX+OOXX..  XXXXXXX.XXXXXXXX ### %",
"  ..    %%%%%%%%  ....X+OOXXXXXXX+OOXX..  XXXXXXXXX XXX    ### %",
"  ..    %%%%%%%%  ....X+OoXXXXXXX+OoXX..  XXXXXXXX      %%  ## %",
"    XX            XXXXXXXXXXXXXXXXXXXXXX  XXXXXXXX   %%%%%%  # %",
"    XX            XXXXXXXXXXXXXXXXXXXXXX  XXXXXXXXXXX   %%%% # %",
"    XX            XXXXXXXXXXXXXXXXXXXXXX  XXXXXX..XXXXXX  %% # %",
"%%    ..XX..XX..XX....XXXX$$@@$$XXXXXX..  XXXXX..XXXXXXXXX %   %",
"%%    ..XX..XX..XX....XXXX$$@@$$XXXXXX..  XXXX..XXXXXXXXXX  %%%%",
"%%    ..XX..XX..XX....XXXX$$@@$$XXXXXX..  XXXX.XXXXXXXXXXXX %%%%",
"%%%%        XX..XXXXXXXXXXXX$$XXXXXXXXXX  XXXX.XXXXXXXXXXXX %%%%",
"%%%%        XX..XXXXXXXXoooX$$XoooXXXXXX  XXX.XXXX            %%",
"%%%%%%%%%%  XXXXXXXX..XXoXXXXXXXXoXXXX    XXX.XXXX   %%%% #### %",
"%%%%%%%%%%  XXXXXXXX..XXoXXXXXXXXoXXXX       .XXXXXXX  %%  ### %",
"%%%%%%%%%%  XXXXXXXX..XXoXXoXooXXoXXXX       .XXXXXXXX  %% ### %",
"%%%%%%%%%%  XXXXXXXXXXXXXXXoXXoXXXXX    %%%  .XXXX+XXXX  % ### %",
"%%%%%%%%%%  XXXXXXXXXXXXXXXoXXoXXXXX    %%%%  XX++XXXXXX % ##  %",
"%%%%%%%%%%  XXXXXXXXXXXXXXXoXXoXXXXX    %%%%   X+XXXXXX    ## %%",
"%%%%%%%%%%    XXXXXXXXXXXX$$o$oX$$XX  %%%%%%%      X    % ##  %%",
"%%%%%%%%%%    XXXXXXXXXXXX$$o$oo$$XX  %%%%%%%%      ### %    %%%",
"%%%%%%%%%%    XXXXXXXXXXXX$$o$XX$$XX  %%%%%%%%%%%%% ### %%%%%%%%",
"%%%%%%%%%%%%  XXXX$$$$$$XX$$o$XXXXXX  %%%%%%%%%%%%% ### %%%%%%%%",
"%%%%%%%%%%%%  XXXX$$$$$$XX$$o$XXXXXX  %%%%%%%%%%%%  ### %%%%%%%%",
"%%%%%%%%%%%%  XXXX$$$$$$XX$$o$XXXXXX  %%%%%%%%%%%  #### %%%%%%%%",
"%%%%%%%%%%%%  $$XXXX$$XX$$XXXX$$XX    %%%%%%%%%%% ####  %%%%%%%%",
"%%%%%%%%%%%%  $$XXXX$$XX$$XXXX$$XX    %%%%%%%%%%% ##   %%%%%%%%%",
"%%%%%%%%%%%%                        %%%%%%%%%%%%%    %%%%%%%%%%%",
"%%%%%%%%%%%%                        %%%%%%%%%%%%%%%%%%%%%%%%%%%%",
"%%%%%%%%%%%%                        %%%%%%%%%%%%%%%%%%%%%%%%%%%%",
"%%%%%%%%%%%%%%%%%%%%%%%%%%%%%%%%%%%%%%%%%%%%%%%%%%%%%%%%%%%%%%%%",
"%%%%%%%%%%%%%%%%%%%%%%%%%%%%%%%%%%%%%%%%%%%%%%%%%%%%%%%%%%%%%%%%",
"%%%%%%%%%%%%%%%%%%%%%%%%%%%%%%%%%%%%%%%%%%%%%%%%%%%%%%%%%%%%%%%%",
"%%%%%%%%%%%%%%%%%%%%%%%%%%%%%%%%%%%%%%%%%%%%%%%%%%%%%%%%%%%%%%%%",
"%%%%%%%%%%%%%%%%%%%%%%%%%%%%%%%%%%%%%%%%%%%%%%%%%%%%%%%%%%%%%%%%",
"%%%%%%%%%%%%%%%%%%%%%%%%%%%%%%%%%%%%%%%%%%%%%%%%%%%%%%%%%%%%%%%%",
"%%%%%%%%%%%%%%%%%%%%%%%%%%%%%%%%%%%%%%%%%%%%%%%%%%%%%%%%%%%%%%%%",
"%%%%%%%%%%%%%%%%%%%%%%%%%%%%%%%%%%%%%%%%%%%%%%%%%%%%%%%%%%%%%%%%",
"%%%%%%%%%%%%%%%%%%%%%%%%%%%%%%%%%%%%%%%%%%%%%%%%%%%%%%%%%%%%%%%%",
"%%%%%%%%%%%%%%%%%%%%%%%%%%%%%%%%%%%%%%%%%%%%%%%%%%%%%%%%%%%%%%%%",
"%%%%%%%%%%%%%%%%%%%%%%%%%%%%%%%%%%%%%%%%%%%%%%%%%%%%%%%%%%%%%%%%",
"%%%%%%%%%%%%%%%%%%%%%%%%%%%%%%%%%%%%%%%%%%%%%%%%%%%%%%%%%%%%%%%%",
"%%%%%%%%%%%%%%%%%%%%%%%%%%%%%%%%%%%%%%%%%%%%%%%%%%%%%%%%%%%%%%%%",
"%%%%%%%%%%%%%%%%%%%%%%%%%%%%%%%%%%%%%%%%%%%%%%%%%%%%%%%%%%%%%%%%"
};
