/* XPM */
static char *_ea78369684043e7a03cf863a00de465CGeISOkNnOJqk7BI[] = {
/* columns rows colors chars-per-pixel */
"64 64 8 1 ",
"  c None",
". c black",
"X c #0C6624",
"o c gray50",
"O c #880015",
"+ c #C40424",
"@ c #EFE4B0",
"# c white",
/* pixels */
"                                                                ",
"                                                                ",
"                                                                ",
"                                                                ",
"                                                                ",
"                                                                ",
"                                                                ",
"                                                                ",
"                                                                ",
"                                                                ",
"                                                                ",
"                                                                ",
"                                      .........                 ",
"             .............           .................          ",
"            ..............          .....  ...........          ",
"          .......    .......        ....        ........        ",
"          .....         ....       ....             ....        ",
"        .....             .O+++++  ...               ...        ",
"       .....             OOO++++++ ...                ..        ",
"      ....              OOOOO++++OO...                .         ",
"      ...               OOOOO+++OOOO                            ",
"      ..                OOO#OO+O#OOOO                           ",
"                        ##OOOO+OOOO#O                           ",
"                        OOOOOO+OOOOO#                           ",
"                        OOOO#O+OOOOOO...........                ",
"                  ......OO##OO+O#OOOO.............              ",
"            ............##OOOOOOOOO#O...  ...........           ",
"          ...............OOOOOOOOOOO#..       ........          ",
"         ........     oooooooooooooo              .....         ",
"        ....         ooooooooooooooo                ....        ",
"       .....         oooooooooooooooo               ....        ",
"      ....         ..ooooooooooooooooo               ....       ",
"      ....        ...oooXXXXoooooooooo....            ....      ",
"     ....       .....ooo@@XXoooXXooooo.......         ....      ",
"    ....       ......oooo@@@oooX@@oooo.......          ...      ",
"    ....      .....   ooooooooooooooo.    .....         ...     ",
"    ...      ....     ooooooooooooooo       .....       ...     ",
"    ...      ....     oooooooooooooo         ....       ....    ",
"    ...     ...        oo@@@@@@@ooo            ...      ....    ",
"            ...         oo@ooo@ooo             ...       ...    ",
"           ....                                ....      ...    ",
"           ...                                 ....             ",
"          ...                                   ...             ",
"          ...                                   ...             ",
"          ...                                  ....             ",
"          ...                                  ....             ",
"          ...                                  ...              ",
"          ...                                  ...              ",
"          ...                                  ...              ",
"          ...                                                   ",
"          ...                                                   ",
"           .                                                    ",
"                                                                ",
"                                                                ",
"                                                                ",
"                                                                ",
"                                                                ",
"                                                                ",
"                                                                ",
"                                                                ",
"                                                                ",
"                                                                ",
"                                                                ",
"                                                                "
};
